Capriola.glyphspackage
{
color = 4;
glyphname = exclam;
layers = (
{
guides = (
{
pos = (0,1527);
}
);
layerId = m001;
shapes = (
{
closed = 1;
nodes = (
(482,1527,ls),
(483,1562,o),
(460,1590,o),
(427,1590,cs),
(257,1590,ls),
(226,1590,o),
(201,1562,o),
(201,1527,cs),
(252,575,ls),
(252,540,o),
(277,512,o),
(307,512,cs),
(387,512,ls),
(418,512,o),
(443,540,o),
(443,575,cs)
);
},
{
closed = 1;
nodes = (
(517,54,o),
(440,-25,o),
(347,-25,cs),
(252,-25,o),
(175,54,o),
(175,151,cs),
(175,247,o),
(252,325,o),
(347,325,cs),
(440,325,o),
(517,247,o),
(517,151,cs)
);
}
);
width = 684;
},
{
guides = (
{
pos = (0,1527);
}
);
layerId = m002;
shapes = (
{
closed = 1;
nodes = (
(482,1527,ls),
(483,1562,o),
(460,1590,o),
(427,1590,cs),
(257,1590,ls),
(226,1590,o),
(201,1562,o),
(201,1527,cs),
(252,575,ls),
(252,540,o),
(277,512,o),
(307,512,cs),
(387,512,ls),
(418,512,o),
(443,540,o),
(443,575,cs)
);
},
{
closed = 1;
nodes = (
(517,54,o),
(440,-25,o),
(347,-25,cs),
(252,-25,o),
(175,54,o),
(175,151,cs),
(175,247,o),
(252,325,o),
(347,325,cs),
(440,325,o),
(517,247,o),
(517,151,cs)
);
}
);
width = 684;
},
{
guides = (
{
pos = (0,1527);
}
);
layerId = m003;
shapes = (
{
closed = 1;
nodes = (
(482,1527,ls),
(483,1562,o),
(460,1590,o),
(427,1590,cs),
(257,1590,ls),
(226,1590,o),
(201,1562,o),
(201,1527,cs),
(252,575,ls),
(252,540,o),
(277,512,o),
(307,512,cs),
(387,512,ls),
(418,512,o),
(443,540,o),
(443,575,cs)
);
},
{
closed = 1;
nodes = (
(517,54,o),
(440,-25,o),
(347,-25,cs),
(252,-25,o),
(175,54,o),
(175,151,cs),
(175,247,o),
(252,325,o),
(347,325,cs),
(440,325,o),
(517,247,o),
(517,151,cs)
);
}
);
width = 684;
}
);
unicode = 33;
}
{
color = 4;
glyphname = numbersign;
layers = (
{
guides = (
{
pos = (0,46);
},
{
pos = (0,1419);
},
{
angle = 90;
pos = (122,0);
},
{
angle = 90;
pos = (1288,0);
}
);
layerId = m001;
shapes = (
{
closed = 1;
nodes = (
(1202,372,o),
(1222,394,o),
(1222,427,cs),
(1222,503,ls),
(1222,534,o),
(1196,551,o),
(1165,551,cs),
(993,551,l),
(1050,894,l),
(1228,894,ls),
(1259,894,o),
(1279,916,o),
(1279,949,cs),
(1279,1025,ls),
(1279,1056,o),
(1254,1073,o),
(1223,1073,cs),
(1080,1073,l),
(1128,1360,ls),
(1133,1391,o),
(1114,1419,o),
(1077,1419,cs),
(982,1419,ls),
(956,1419,o),
(929,1408,o),
(923,1370,cs),
(873,1073,l),
(585,1073,l),
(633,1360,ls),
(638,1391,o),
(619,1419,o),
(582,1419,cs),
(487,1419,ls),
(461,1419,o),
(434,1408,o),
(428,1370,cs),
(378,1073,l),
(164,1073,ls),
(134,1073,o),
(113,1051,o),
(113,1025,cs),
(113,939,ls),
(113,912,o),
(137,894,o),
(167,894,cs),
(348,894,l),
(291,551,l),
(106,551,ls),
(76,551,o),
(56,529,o),
(56,503,cs),
(56,417,ls),
(56,390,o),
(80,372,o),
(110,372,cs),
(261,372,l),
(217,105,ls),
(212,74,o),
(230,46,o),
(267,46,cs),
(362,46,ls),
(388,46,o),
(416,57,o),
(422,95,cs),
(468,372,l),
(756,372,l),
(712,105,ls),
(707,74,o),
(725,46,o),
(762,46,cs),
(857,46,ls),
(883,46,o),
(911,57,o),
(917,95,cs),
(963,372,l),
(1171,372,ls)
);
},
{
closed = 1;
nodes = (
(843,894,l),
(786,551,l),
(498,551,l),
(555,894,l)
);
}
);
width = 1362;
},
{
guides = (
{
pos = (0,46);
},
{
pos = (0,1419);
},
{
angle = 90;
pos = (122,0);
},
{
angle = 90;
pos = (1288,0);
}
);
layerId = m002;
shapes = (
{
closed = 1;
nodes = (
(1202,372,o),
(1222,394,o),
(1222,427,cs),
(1222,503,ls),
(1222,534,o),
(1196,551,o),
(1165,551,cs),
(993,551,l),
(1050,894,l),
(1228,894,ls),
(1259,894,o),
(1279,916,o),
(1279,949,cs),
(1279,1025,ls),
(1279,1056,o),
(1254,1073,o),
(1223,1073,cs),
(1080,1073,l),
(1128,1360,ls),
(1133,1391,o),
(1114,1419,o),
(1077,1419,cs),
(982,1419,ls),
(956,1419,o),
(929,1408,o),
(923,1370,cs),
(873,1073,l),
(585,1073,l),
(633,1360,ls),
(638,1391,o),
(619,1419,o),
(582,1419,cs),
(487,1419,ls),
(461,1419,o),
(434,1408,o),
(428,1370,cs),
(378,1073,l),
(164,1073,ls),
(134,1073,o),
(113,1051,o),
(113,1025,cs),
(113,939,ls),
(113,912,o),
(137,894,o),
(167,894,cs),
(348,894,l),
(291,551,l),
(106,551,ls),
(76,551,o),
(56,529,o),
(56,503,cs),
(56,417,ls),
(56,390,o),
(80,372,o),
(110,372,cs),
(261,372,l),
(217,105,ls),
(212,74,o),
(230,46,o),
(267,46,cs),
(362,46,ls),
(388,46,o),
(416,57,o),
(422,95,cs),
(468,372,l),
(756,372,l),
(712,105,ls),
(707,74,o),
(725,46,o),
(762,46,cs),
(857,46,ls),
(883,46,o),
(911,57,o),
(917,95,cs),
(963,372,l),
(1171,372,ls)
);
},
{
closed = 1;
nodes = (
(843,894,l),
(786,551,l),
(498,551,l),
(555,894,l)
);
}
);
width = 1362;
},
{
guides = (
{
pos = (0,46);
},
{
pos = (0,1419);
},
{
angle = 90;
pos = (122,0);
},
{
angle = 90;
pos = (1288,0);
}
);
layerId = m003;
shapes = (
{
closed = 1;
nodes = (
(1202,372,o),
(1222,394,o),
(1222,427,cs),
(1222,503,ls),
(1222,534,o),
(1196,551,o),
(1165,551,cs),
(993,551,l),
(1050,894,l),
(1228,894,ls),
(1259,894,o),
(1279,916,o),
(1279,949,cs),
(1279,1025,ls),
(1279,1056,o),
(1254,1073,o),
(1223,1073,cs),
(1080,1073,l),
(1128,1360,ls),
(1133,1391,o),
(1114,1419,o),
(1077,1419,cs),
(982,1419,ls),
(956,1419,o),
(929,1408,o),
(923,1370,cs),
(873,1073,l),
(585,1073,l),
(633,1360,ls),
(638,1391,o),
(619,1419,o),
(582,1419,cs),
(487,1419,ls),
(461,1419,o),
(434,1408,o),
(428,1370,cs),
(378,1073,l),
(164,1073,ls),
(134,1073,o),
(113,1051,o),
(113,1025,cs),
(113,939,ls),
(113,912,o),
(137,894,o),
(167,894,cs),
(348,894,l),
(291,551,l),
(106,551,ls),
(76,551,o),
(56,529,o),
(56,503,cs),
(56,417,ls),
(56,390,o),
(80,372,o),
(110,372,cs),
(261,372,l),
(217,105,ls),
(212,74,o),
(230,46,o),
(267,46,cs),
(362,46,ls),
(388,46,o),
(416,57,o),
(422,95,cs),
(468,372,l),
(756,372,l),
(712,105,ls),
(707,74,o),
(725,46,o),
(762,46,cs),
(857,46,ls),
(883,46,o),
(911,57,o),
(917,95,cs),
(963,372,l),
(1171,372,ls)
);
},
{
closed = 1;
nodes = (
(843,894,l),
(786,551,l),
(498,551,l),
(555,894,l)
);
}
);
width = 1362;
}
);
unicode = 35;
}
{
color = 4;
glyphname = dollar;
layers = (
{
layerId = m001;
shapes = (
{
closed = 1;
nodes = (
(422,193,o),
(350,215,o),
(289,243,cs),
(255,258,o),
(200,300,o),
(156,300,cs),
(135,300,o),
(116,291,o),
(104,265,cs),
(69,194,ls),
(59,173,o),
(55,160,o),
(55,152,cs),
(55,124,o),
(81,104,o),
(104,86,cs),
(177,29,o),
(287,-4,o),
(399,-19,c),
(399,-250,ls),
(399,-284,o),
(425,-314,o),
(455,-314,cs),
(556,-314,ls),
(588,-314,o),
(613,-285,o),
(613,-251,cs),
(613,-14,l),
(792,26,o),
(951,169,o),
(951,386,cs),
(951,623,o),
(736,746,o),
(554,820,cs),
(444,865,o),
(309,921,o),
(309,1036,cs),
(309,1146,o),
(395,1194,o),
(506,1194,cs),
(609,1194,o),
(703,1156,o),
(777,1100,cs),
(787,1093,o),
(801,1086,o),
(812,1086,cs),
(831,1086,o),
(854,1111,o),
(867,1136,cs),
(903,1204,o),
(911,1232,o),
(911,1244,cs),
(911,1276,o),
(881,1298,o),
(853,1316,cs),
(793,1355,o),
(715,1389,o),
(623,1404,c),
(623,1639,ls),
(623,1673,o),
(598,1703,o),
(568,1703,cs),
(467,1703,ls),
(435,1703,o),
(410,1674,o),
(410,1639,cs),
(410,1402,l),
(228,1367,o),
(74,1240,o),
(74,1040,cs),
(74,810,o),
(265,670,o),
(452,600,cs),
(590,549,o),
(719,488,o),
(719,375,cs),
(719,253,o),
(630,193,o),
(498,193,cs)
);
}
);
width = 1024;
},
{
layerId = m002;
shapes = (
{
closed = 1;
nodes = (
(422,193,o),
(350,215,o),
(289,243,cs),
(255,258,o),
(200,300,o),
(156,300,cs),
(135,300,o),
(116,291,o),
(104,265,cs),
(69,194,ls),
(59,173,o),
(55,160,o),
(55,152,cs),
(55,124,o),
(81,104,o),
(104,86,cs),
(177,29,o),
(287,-4,o),
(399,-19,c),
(399,-250,ls),
(399,-284,o),
(425,-314,o),
(455,-314,cs),
(556,-314,ls),
(588,-314,o),
(613,-285,o),
(613,-251,cs),
(613,-14,l),
(792,26,o),
(951,169,o),
(951,386,cs),
(951,623,o),
(736,746,o),
(554,820,cs),
(444,865,o),
(309,921,o),
(309,1036,cs),
(309,1146,o),
(395,1194,o),
(506,1194,cs),
(609,1194,o),
(703,1156,o),
(777,1100,cs),
(787,1093,o),
(801,1086,o),
(812,1086,cs),
(831,1086,o),
(854,1111,o),
(867,1136,cs),
(903,1204,o),
(911,1232,o),
(911,1244,cs),
(911,1276,o),
(881,1298,o),
(853,1316,cs),
(793,1355,o),
(715,1389,o),
(623,1404,c),
(623,1639,ls),
(623,1673,o),
(598,1703,o),
(568,1703,cs),
(467,1703,ls),
(435,1703,o),
(410,1674,o),
(410,1639,cs),
(410,1402,l),
(228,1367,o),
(74,1240,o),
(74,1040,cs),
(74,810,o),
(265,670,o),
(452,600,cs),
(590,549,o),
(719,488,o),
(719,375,cs),
(719,253,o),
(630,193,o),
(498,193,cs)
);
}
);
width = 1024;
},
{
layerId = m003;
shapes = (
{
closed = 1;
nodes = (
(422,193,o),
(350,215,o),
(289,243,cs),
(255,258,o),
(200,300,o),
(156,300,cs),
(135,300,o),
(116,291,o),
(104,265,cs),
(69,194,ls),
(59,173,o),
(55,160,o),
(55,152,cs),
(55,124,o),
(81,104,o),
(104,86,cs),
(177,29,o),
(287,-4,o),
(399,-19,c),
(399,-250,ls),
(399,-284,o),
(425,-314,o),
(455,-314,cs),
(556,-314,ls),
(588,-314,o),
(613,-285,o),
(613,-251,cs),
(613,-14,l),
(792,26,o),
(951,169,o),
(951,386,cs),
(951,623,o),
(736,746,o),
(554,820,cs),
(444,865,o),
(309,921,o),
(309,1036,cs),
(309,1146,o),
(395,1194,o),
(506,1194,cs),
(609,1194,o),
(703,1156,o),
(777,1100,cs),
(787,1093,o),
(801,1086,o),
(812,1086,cs),
(831,1086,o),
(854,1111,o),
(867,1136,cs),
(903,1204,o),
(911,1232,o),
(911,1244,cs),
(911,1276,o),
(881,1298,o),
(853,1316,cs),
(793,1355,o),
(715,1389,o),
(623,1404,c),
(623,1639,ls),
(623,1673,o),
(598,1703,o),
(568,1703,cs),
(467,1703,ls),
(435,1703,o),
(410,1674,o),
(410,1639,cs),
(410,1402,l),
(228,1367,o),
(74,1240,o),
(74,1040,cs),
(74,810,o),
(265,670,o),
(452,600,cs),
(590,549,o),
(719,488,o),
(719,375,cs),
(719,253,o),
(630,193,o),
(498,193,cs)
);
}
);
width = 1024;
}
);
unicode = 36;
}
{
color = 4;
glyphname = percent;
layers = (
{
layerId = m001;
shapes = (
{
closed = 1;
nodes = (
(701,802,o),
(872,965,o),
(872,1209,cs),
(872,1451,o),
(738,1613,o),
(484,1613,cs),
(265,1613,o),
(94,1451,o),
(94,1209,cs),
(94,971,o),
(248,802,o),
(484,802,cs)
);
},
{
closed = 1;
nodes = (
(627,1440,o),
(672,1315,o),
(672,1206,cs),
(672,1077,o),
(623,976,o),
(486,976,cs),
(354,976,o),
(296,1083,o),
(296,1200,cs),
(296,1321,o),
(345,1440,o),
(483,1440,cs)
);
},
{
closed = 1;
nodes = (
(1714,-20,o),
(1885,143,o),
(1885,387,cs),
(1885,629,o),
(1751,791,o),
(1497,791,cs),
(1278,791,o),
(1107,629,o),
(1107,387,cs),
(1107,149,o),
(1261,-20,o),
(1497,-20,cs)
);
},
{
closed = 1;
nodes = (
(1640,618,o),
(1685,493,o),
(1685,384,cs),
(1685,255,o),
(1636,154,o),
(1499,154,cs),
(1367,154,o),
(1309,261,o),
(1309,378,cs),
(1309,499,o),
(1358,618,o),
(1496,618,cs)
);
},
{
closed = 1;
nodes = (
(386,40,o),
(375,57,o),
(375,75,cs),
(375,85,o),
(378,96,o),
(386,107,cs),
(1423,1582,ls),
(1435,1599,o),
(1451,1613,o),
(1472,1613,cs),
(1480,1613,o),
(1490,1611,o),
(1500,1605,cs),
(1573,1558,ls),
(1588,1549,o),
(1596,1534,o),
(1596,1517,cs),
(1596,1505,o),
(1592,1492,o),
(1583,1480,cs),
(550,5,ls),
(538,-11,o),
(524,-29,o),
(502,-29,cs),
(491,-29,o),
(478,-25,o),
(463,-14,cs),
(404,28,ls)
);
}
);
width = 2043;
},
{
layerId = m002;
shapes = (
{
closed = 1;
nodes = (
(701,802,o),
(872,965,o),
(872,1209,cs),
(872,1451,o),
(738,1613,o),
(484,1613,cs),
(265,1613,o),
(94,1451,o),
(94,1209,cs),
(94,971,o),
(248,802,o),
(484,802,cs)
);
},
{
closed = 1;
nodes = (
(627,1440,o),
(672,1315,o),
(672,1206,cs),
(672,1077,o),
(623,976,o),
(486,976,cs),
(354,976,o),
(296,1083,o),
(296,1200,cs),
(296,1321,o),
(345,1440,o),
(483,1440,cs)
);
},
{
closed = 1;
nodes = (
(1714,-20,o),
(1885,143,o),
(1885,387,cs),
(1885,629,o),
(1751,791,o),
(1497,791,cs),
(1278,791,o),
(1107,629,o),
(1107,387,cs),
(1107,149,o),
(1261,-20,o),
(1497,-20,cs)
);
},
{
closed = 1;
nodes = (
(1640,618,o),
(1685,493,o),
(1685,384,cs),
(1685,255,o),
(1636,154,o),
(1499,154,cs),
(1367,154,o),
(1309,261,o),
(1309,378,cs),
(1309,499,o),
(1358,618,o),
(1496,618,cs)
);
},
{
closed = 1;
nodes = (
(386,40,o),
(375,57,o),
(375,75,cs),
(375,85,o),
(378,96,o),
(386,107,cs),
(1423,1582,ls),
(1435,1599,o),
(1451,1613,o),
(1472,1613,cs),
(1480,1613,o),
(1490,1611,o),
(1500,1605,cs),
(1573,1558,ls),
(1588,1549,o),
(1596,1534,o),
(1596,1517,cs),
(1596,1505,o),
(1592,1492,o),
(1583,1480,cs),
(550,5,ls),
(538,-11,o),
(524,-29,o),
(502,-29,cs),
(491,-29,o),
(478,-25,o),
(463,-14,cs),
(404,28,ls)
);
}
);
width = 2043;
},
{
layerId = m003;
shapes = (
{
closed = 1;
nodes = (
(701,802,o),
(872,965,o),
(872,1209,cs),
(872,1451,o),
(738,1613,o),
(484,1613,cs),
(265,1613,o),
(94,1451,o),
(94,1209,cs),
(94,971,o),
(248,802,o),
(484,802,cs)
);
},
{
closed = 1;
nodes = (
(627,1440,o),
(672,1315,o),
(672,1206,cs),
(672,1077,o),
(623,976,o),
(486,976,cs),
(354,976,o),
(296,1083,o),
(296,1200,cs),
(296,1321,o),
(345,1440,o),
(483,1440,cs)
);
},
{
closed = 1;
nodes = (
(1714,-20,o),
(1885,143,o),
(1885,387,cs),
(1885,629,o),
(1751,791,o),
(1497,791,cs),
(1278,791,o),
(1107,629,o),
(1107,387,cs),
(1107,149,o),
(1261,-20,o),
(1497,-20,cs)
);
},
{
closed = 1;
nodes = (
(1640,618,o),
(1685,493,o),
(1685,384,cs),
(1685,255,o),
(1636,154,o),
(1499,154,cs),
(1367,154,o),
(1309,261,o),
(1309,378,cs),
(1309,499,o),
(1358,618,o),
(1496,618,cs)
);
},
{
closed = 1;
nodes = (
(386,40,o),
(375,57,o),
(375,75,cs),
(375,85,o),
(378,96,o),
(386,107,cs),
(1423,1582,ls),
(1435,1599,o),
(1451,1613,o),
(1472,1613,cs),
(1480,1613,o),
(1490,1611,o),
(1500,1605,cs),
(1573,1558,ls),
(1588,1549,o),
(1596,1534,o),
(1596,1517,cs),
(1596,1505,o),
(1592,1492,o),
(1583,1480,cs),
(550,5,ls),
(538,-11,o),
(524,-29,o),
(502,-29,cs),
(491,-29,o),
(478,-25,o),
(463,-14,cs),
(404,28,ls)
);
}
);
width = 2043;
}
);
unicode = 37;
}
{
color = 4;
glyphname = ampersand;
layers = (
{
layerId = m001;
shapes = (
{
closed = 1;
nodes = (
(1251,625,o),
(1277,642,o),
(1277,668,cs),
(1277,769,ls),
(1277,801,o),
(1259,817,o),
(1221,817,cs),
(754,817,ls),
(610,817,o),
(403,881,o),
(403,1038,cs),
(403,1184,o),
(530,1238,o),
(651,1238,cs),
(778,1238,o),
(870,1182,o),
(947,1125,cs),
(954,1120,o),
(970,1115,o),
(979,1115,cs),
(1001,1115,o),
(1019,1130,o),
(1034,1152,cs),
(1095,1239,ls),
(1103,1250,o),
(1105,1264,o),
(1105,1272,cs),
(1104,1297,o),
(1083,1317,o),
(1059,1336,cs),
(962,1412,o),
(804,1458,o),
(636,1458,cs),
(406,1458,o),
(149,1305,o),
(149,1035,cs),
(149,836,o),
(275,729,o),
(422,691,c),
(279,634,o),
(149,516,o),
(149,335,cs),
(149,78,o),
(417,-30,o),
(637,-30,cs),
(923,-30,o),
(1174,148,o),
(1174,428,cs),
(1174,502,o),
(1153,569,o),
(1124,625,c),
(1221,625,ls)
);
},
{
closed = 1;
nodes = (
(521,181,o),
(404,242,o),
(404,353,cs),
(404,522,o),
(559,631,o),
(844,631,cs),
(858,631,o),
(872,631,o),
(886,630,c),
(898,615,o),
(945,573,o),
(945,470,cs),
(945,284,o),
(803,181,o),
(640,181,cs)
);
}
);
width = 1361;
},
{
layerId = m002;
shapes = (
{
closed = 1;
nodes = (
(1251,625,o),
(1277,642,o),
(1277,668,cs),
(1277,769,ls),
(1277,801,o),
(1259,817,o),
(1221,817,cs),
(754,817,ls),
(610,817,o),
(403,881,o),
(403,1038,cs),
(403,1184,o),
(530,1238,o),
(651,1238,cs),
(778,1238,o),
(870,1182,o),
(947,1125,cs),
(954,1120,o),
(970,1115,o),
(979,1115,cs),
(1001,1115,o),
(1019,1130,o),
(1034,1152,cs),
(1095,1239,ls),
(1103,1250,o),
(1105,1264,o),
(1105,1272,cs),
(1104,1297,o),
(1083,1317,o),
(1059,1336,cs),
(962,1412,o),
(804,1458,o),
(636,1458,cs),
(406,1458,o),
(149,1305,o),
(149,1035,cs),
(149,836,o),
(275,729,o),
(422,691,c),
(279,634,o),
(149,516,o),
(149,335,cs),
(149,78,o),
(417,-30,o),
(637,-30,cs),
(923,-30,o),
(1174,148,o),
(1174,428,cs),
(1174,502,o),
(1153,569,o),
(1124,625,c),
(1221,625,ls)
);
},
{
closed = 1;
nodes = (
(521,181,o),
(404,242,o),
(404,353,cs),
(404,522,o),
(559,631,o),
(844,631,cs),
(858,631,o),
(872,631,o),
(886,630,c),
(898,615,o),
(945,573,o),
(945,470,cs),
(945,284,o),
(803,181,o),
(640,181,cs)
);
}
);
width = 1361;
},
{
layerId = m003;
shapes = (
{
closed = 1;
nodes = (
(1251,625,o),
(1277,642,o),
(1277,668,cs),
(1277,769,ls),
(1277,801,o),
(1259,817,o),
(1221,817,cs),
(754,817,ls),
(610,817,o),
(403,881,o),
(403,1038,cs),
(403,1184,o),
(530,1238,o),
(651,1238,cs),
(778,1238,o),
(870,1182,o),
(947,1125,cs),
(954,1120,o),
(970,1115,o),
(979,1115,cs),
(1001,1115,o),
(1019,1130,o),
(1034,1152,cs),
(1095,1239,ls),
(1103,1250,o),
(1105,1264,o),
(1105,1272,cs),
(1104,1297,o),
(1083,1317,o),
(1059,1336,cs),
(962,1412,o),
(804,1458,o),
(636,1458,cs),
(406,1458,o),
(149,1305,o),
(149,1035,cs),
(149,836,o),
(275,729,o),
(422,691,c),
(279,634,o),
(149,516,o),
(149,335,cs),
(149,78,o),
(417,-30,o),
(637,-30,cs),
(923,-30,o),
(1174,148,o),
(1174,428,cs),
(1174,502,o),
(1153,569,o),
(1124,625,c),
(1221,625,ls)
);
},
{
closed = 1;
nodes = (
(521,181,o),
(404,242,o),
(404,353,cs),
(404,522,o),
(559,631,o),
(844,631,cs),
(858,631,o),
(872,631,o),
(886,630,c),
(898,615,o),
(945,573,o),
(945,470,cs),
(945,284,o),
(803,181,o),
(640,181,cs)
);
}
);
width = 1361;
}
);
unicode = 38;
}
{
color = 4;
glyphname = quotesingle;
layers = (
{
layerId = m001;
shapes = (
{
closed = 1;
nodes = (
(316,1090,o),
(336,1115,o),
(338,1145,cs),
(381,1661,ls),
(383,1691,o),
(364,1716,o),
(333,1716,cs),
(175,1716,ls),
(147,1716,o),
(127,1691,o),
(130,1661,cs),
(177,1145,ls),
(180,1115,o),
(198,1090,o),
(224,1090,cs),
(288,1090,ls)
);
}
);
width = 511;
},
{
layerId = m002;
shapes = (
{
closed = 1;
nodes = (
(316,1090,o),
(336,1115,o),
(338,1145,cs),
(381,1661,ls),
(383,1691,o),
(364,1716,o),
(333,1716,cs),
(175,1716,ls),
(147,1716,o),
(127,1691,o),
(130,1661,cs),
(177,1145,ls),
(180,1115,o),
(198,1090,o),
(224,1090,cs),
(288,1090,ls)
);
}
);
width = 511;
},
{
layerId = m003;
shapes = (
{
closed = 1;
nodes = (
(316,1090,o),
(336,1115,o),
(338,1145,cs),
(381,1661,ls),
(383,1691,o),
(364,1716,o),
(333,1716,cs),
(175,1716,ls),
(147,1716,o),
(127,1691,o),
(130,1661,cs),
(177,1145,ls),
(180,1115,o),
(198,1090,o),
(224,1090,cs),
(288,1090,ls)
);
}
);
width = 511;
}
);
unicode = 39;
}
{
color = 4;
glyphname = parenleft;
layers = (
{
layerId = m001;
shapes = (
{
closed = 1;
nodes = (
(498,70,o),
(395,428,o),
(395,784,cs),
(395,1115,o),
(467,1505,o),
(692,1742,cs),
(711,1763,o),
(720,1783,o),
(720,1803,cs),
(720,1828,o),
(706,1851,o),
(682,1873,cs),
(648,1906,o),
(627,1912,o),
(608,1912,cs),
(585,1912,o),
(565,1902,o),
(553,1890,cs),
(284,1600,o),
(164,1152,o),
(164,793,cs),
(164,406,o),
(287,-19,o),
(531,-301,cs),
(544,-315,o),
(568,-335,o),
(598,-335,cs),
(614,-335,o),
(631,-330,o),
(668,-294,cs),
(705,-259,o),
(712,-241,o),
(712,-224,cs),
(712,-192,o),
(685,-163,o),
(672,-147,cs)
);
}
);
width = 854;
},
{
layerId = m002;
shapes = (
{
closed = 1;
nodes = (
(498,70,o),
(395,428,o),
(395,784,cs),
(395,1115,o),
(467,1505,o),
(692,1742,cs),
(711,1763,o),
(720,1783,o),
(720,1803,cs),
(720,1828,o),
(706,1851,o),
(682,1873,cs),
(648,1906,o),
(627,1912,o),
(608,1912,cs),
(585,1912,o),
(565,1902,o),
(553,1890,cs),
(284,1600,o),
(164,1152,o),
(164,793,cs),
(164,406,o),
(287,-19,o),
(531,-301,cs),
(544,-315,o),
(568,-335,o),
(598,-335,cs),
(614,-335,o),
(631,-330,o),
(668,-294,cs),
(705,-259,o),
(712,-241,o),
(712,-224,cs),
(712,-192,o),
(685,-163,o),
(672,-147,cs)
);
}
);
width = 854;
},
{
layerId = m003;
shapes = (
{
closed = 1;
nodes = (
(498,70,o),
(395,428,o),
(395,784,cs),
(395,1115,o),
(467,1505,o),
(692,1742,cs),
(711,1763,o),
(720,1783,o),
(720,1803,cs),
(720,1828,o),
(706,1851,o),
(682,1873,cs),
(648,1906,o),
(627,1912,o),
(608,1912,cs),
(585,1912,o),
(565,1902,o),
(553,1890,cs),
(284,1600,o),
(164,1152,o),
(164,793,cs),
(164,406,o),
(287,-19,o),
(531,-301,cs),
(544,-315,o),
(568,-335,o),
(598,-335,cs),
(614,-335,o),
(631,-330,o),
(668,-294,cs),
(705,-259,o),
(712,-241,o),
(712,-224,cs),
(712,-192,o),
(685,-163,o),
(672,-147,cs)
);
}
);
width = 854;
}
);
unicode = 40;
}
{
color = 4;
glyphname = parenright;
layers = (
{
layerId = m001;
shapes = (
{
closed = 1;
nodes = (
(169,-163,o),
(142,-192,o),
(142,-224,cs),
(142,-241,o),
(149,-259,o),
(186,-294,cs),
(223,-330,o),
(240,-335,o),
(256,-335,cs),
(286,-335,o),
(310,-315,o),
(323,-301,cs),
(567,-19,o),
(690,406,o),
(690,793,cs),
(690,1152,o),
(570,1600,o),
(301,1890,cs),
(289,1902,o),
(269,1912,o),
(246,1912,cs),
(227,1912,o),
(206,1906,o),
(172,1873,cs),
(148,1851,o),
(134,1828,o),
(134,1803,cs),
(134,1783,o),
(143,1763,o),
(162,1742,cs),
(387,1505,o),
(459,1115,o),
(459,784,cs),
(459,428,o),
(356,70,o),
(182,-147,cs)
);
}
);
width = 854;
},
{
layerId = m002;
shapes = (
{
closed = 1;
nodes = (
(169,-163,o),
(142,-192,o),
(142,-224,cs),
(142,-241,o),
(149,-259,o),
(186,-294,cs),
(223,-330,o),
(240,-335,o),
(256,-335,cs),
(286,-335,o),
(310,-315,o),
(323,-301,cs),
(567,-19,o),
(690,406,o),
(690,793,cs),
(690,1152,o),
(570,1600,o),
(301,1890,cs),
(289,1902,o),
(269,1912,o),
(246,1912,cs),
(227,1912,o),
(206,1906,o),
(172,1873,cs),
(148,1851,o),
(134,1828,o),
(134,1803,cs),
(134,1783,o),
(143,1763,o),
(162,1742,cs),
(387,1505,o),
(459,1115,o),
(459,784,cs),
(459,428,o),
(356,70,o),
(182,-147,cs)
);
}
);
width = 854;
},
{
layerId = m003;
shapes = (
{
closed = 1;
nodes = (
(169,-163,o),
(142,-192,o),
(142,-224,cs),
(142,-241,o),
(149,-259,o),
(186,-294,cs),
(223,-330,o),
(240,-335,o),
(256,-335,cs),
(286,-335,o),
(310,-315,o),
(323,-301,cs),
(567,-19,o),
(690,406,o),
(690,793,cs),
(690,1152,o),
(570,1600,o),
(301,1890,cs),
(289,1902,o),
(269,1912,o),
(246,1912,cs),
(227,1912,o),
(206,1906,o),
(172,1873,cs),
(148,1851,o),
(134,1828,o),
(134,1803,cs),
(134,1783,o),
(143,1763,o),
(162,1742,cs),
(387,1505,o),
(459,1115,o),
(459,784,cs),
(459,428,o),
(356,70,o),
(182,-147,cs)
);
}
);
width = 854;
}
);
unicode = 41;
}
{
color = 4;
glyphname = asterisk;
layers = (
{
layerId = m001;
shapes = (
{
closed = 1;
nodes = (
(840,885,ls),
(853,854,o),
(882,836,o),
(910,836,cs),
(920,836,o),
(930,838,o),
(939,844,cs),
(1006,885,ls),
(1025,897,o),
(1043,921,o),
(1043,949,cs),
(1043,962,o),
(1039,977,o),
(1028,991,cs),
(785,1302,l),
(1169,1259,ls),
(1173,1258,o),
(1176,1258,o),
(1180,1258,cs),
(1218,1258,o),
(1262,1277,o),
(1262,1331,cs),
(1262,1403,ls),
(1262,1458,o),
(1225,1470,o),
(1193,1470,cs),
(1186,1470,o),
(1179,1470,o),
(1173,1469,cs),
(784,1418,l),
(1026,1748,ls),
(1037,1763,o),
(1042,1778,o),
(1042,1792,cs),
(1042,1818,o),
(1025,1842,o),
(999,1856,cs),
(934,1891,o),
(921,1894,o),
(907,1894,cs),
(879,1894,o),
(851,1881,o),
(840,1856,cs),
(679,1483,l),
(522,1847,ls),
(508,1879,o),
(484,1896,o),
(456,1896,cs),
(441,1896,o),
(426,1891,o),
(410,1882,cs),
(347,1844,ls),
(325,1831,o),
(312,1804,o),
(312,1779,cs),
(312,1766,o),
(316,1753,o),
(324,1743,cs),
(579,1424,l),
(173,1471,ls),
(170,1471,o),
(168,1471,o),
(165,1471,cs),
(136,1471,o),
(101,1450,o),
(101,1411,cs),
(101,1322,ls),
(101,1275,o),
(141,1259,o),
(175,1259,cs),
(180,1259,o),
(184,1259,o),
(188,1260,cs),
(581,1307,l),
(338,981,ls),
(329,969,o),
(324,954,o),
(324,937,cs),
(324,914,o),
(334,891,o),
(357,878,cs),
(418,844,ls),
(433,836,o),
(447,832,o),
(461,832,cs),
(490,832,o),
(516,850,o),
(529,881,cs),
(683,1244,l)
);
}
);
width = 1363;
},
{
layerId = m002;
shapes = (
{
closed = 1;
nodes = (
(840,885,ls),
(853,854,o),
(882,836,o),
(910,836,cs),
(920,836,o),
(930,838,o),
(939,844,cs),
(1006,885,ls),
(1025,897,o),
(1043,921,o),
(1043,949,cs),
(1043,962,o),
(1039,977,o),
(1028,991,cs),
(785,1302,l),
(1169,1259,ls),
(1173,1258,o),
(1176,1258,o),
(1180,1258,cs),
(1218,1258,o),
(1262,1277,o),
(1262,1331,cs),
(1262,1403,ls),
(1262,1458,o),
(1225,1470,o),
(1193,1470,cs),
(1186,1470,o),
(1179,1470,o),
(1173,1469,cs),
(784,1418,l),
(1026,1748,ls),
(1037,1763,o),
(1042,1778,o),
(1042,1792,cs),
(1042,1818,o),
(1025,1842,o),
(999,1856,cs),
(934,1891,o),
(921,1894,o),
(907,1894,cs),
(879,1894,o),
(851,1881,o),
(840,1856,cs),
(679,1483,l),
(522,1847,ls),
(508,1879,o),
(484,1896,o),
(456,1896,cs),
(441,1896,o),
(426,1891,o),
(410,1882,cs),
(347,1844,ls),
(325,1831,o),
(312,1804,o),
(312,1779,cs),
(312,1766,o),
(316,1753,o),
(324,1743,cs),
(579,1424,l),
(173,1471,ls),
(170,1471,o),
(168,1471,o),
(165,1471,cs),
(136,1471,o),
(101,1450,o),
(101,1411,cs),
(101,1322,ls),
(101,1275,o),
(141,1259,o),
(175,1259,cs),
(180,1259,o),
(184,1259,o),
(188,1260,cs),
(581,1307,l),
(338,981,ls),
(329,969,o),
(324,954,o),
(324,937,cs),
(324,914,o),
(334,891,o),
(357,878,cs),
(418,844,ls),
(433,836,o),
(447,832,o),
(461,832,cs),
(490,832,o),
(516,850,o),
(529,881,cs),
(683,1244,l)
);
}
);
width = 1363;
},
{
layerId = m003;
shapes = (
{
closed = 1;
nodes = (
(840,885,ls),
(853,854,o),
(882,836,o),
(910,836,cs),
(920,836,o),
(930,838,o),
(939,844,cs),
(1006,885,ls),
(1025,897,o),
(1043,921,o),
(1043,949,cs),
(1043,962,o),
(1039,977,o),
(1028,991,cs),
(785,1302,l),
(1169,1259,ls),
(1173,1258,o),
(1176,1258,o),
(1180,1258,cs),
(1218,1258,o),
(1262,1277,o),
(1262,1331,cs),
(1262,1403,ls),
(1262,1458,o),
(1225,1470,o),
(1193,1470,cs),
(1186,1470,o),
(1179,1470,o),
(1173,1469,cs),
(784,1418,l),
(1026,1748,ls),
(1037,1763,o),
(1042,1778,o),
(1042,1792,cs),
(1042,1818,o),
(1025,1842,o),
(999,1856,cs),
(934,1891,o),
(921,1894,o),
(907,1894,cs),
(879,1894,o),
(851,1881,o),
(840,1856,cs),
(679,1483,l),
(522,1847,ls),
(508,1879,o),
(484,1896,o),
(456,1896,cs),
(441,1896,o),
(426,1891,o),
(410,1882,cs),
(347,1844,ls),
(325,1831,o),
(312,1804,o),
(312,1779,cs),
(312,1766,o),
(316,1753,o),
(324,1743,cs),
(579,1424,l),
(173,1471,ls),
(170,1471,o),
(168,1471,o),
(165,1471,cs),
(136,1471,o),
(101,1450,o),
(101,1411,cs),
(101,1322,ls),
(101,1275,o),
(141,1259,o),
(175,1259,cs),
(180,1259,o),
(184,1259,o),
(188,1260,cs),
(581,1307,l),
(338,981,ls),
(329,969,o),
(324,954,o),
(324,937,cs),
(324,914,o),
(334,891,o),
(357,878,cs),
(418,844,ls),
(433,836,o),
(447,832,o),
(461,832,cs),
(490,832,o),
(516,850,o),
(529,881,cs),
(683,1244,l)
);
}
);
width = 1363;
}
);
unicode = 42;
}
{
color = 4;
glyphname = plus;
layers = (
{
layerId = m001;
shapes = (
{
closed = 1;
nodes = (
(1206,508,o),
(1231,530,o),
(1231,563,cs),
(1231,647,ls),
(1231,678,o),
(1206,700,o),
(1175,700,cs),
(782,700,l),
(782,1085,ls),
(782,1115,o),
(760,1140,o),
(734,1140,cs),
(630,1140,ls),
(603,1140,o),
(581,1115,o),
(581,1085,cs),
(581,700,l),
(187,700,ls),
(157,700,o),
(132,678,o),
(132,652,cs),
(132,557,ls),
(132,530,o),
(157,508,o),
(187,508,cs),
(581,508,l),
(581,117,ls),
(581,86,o),
(603,61,o),
(636,61,cs),
(729,61,ls),
(760,61,o),
(782,86,o),
(782,117,cs),
(782,508,l),
(1175,508,ls)
);
}
);
width = 1363;
},
{
layerId = m002;
shapes = (
{
closed = 1;
nodes = (
(1206,508,o),
(1231,530,o),
(1231,563,cs),
(1231,647,ls),
(1231,678,o),
(1206,700,o),
(1175,700,cs),
(782,700,l),
(782,1085,ls),
(782,1115,o),
(760,1140,o),
(734,1140,cs),
(630,1140,ls),
(603,1140,o),
(581,1115,o),
(581,1085,cs),
(581,700,l),
(187,700,ls),
(157,700,o),
(132,678,o),
(132,652,cs),
(132,557,ls),
(132,530,o),
(157,508,o),
(187,508,cs),
(581,508,l),
(581,117,ls),
(581,86,o),
(603,61,o),
(636,61,cs),
(729,61,ls),
(760,61,o),
(782,86,o),
(782,117,cs),
(782,508,l),
(1175,508,ls)
);
}
);
width = 1363;
},
{
layerId = m003;
shapes = (
{
closed = 1;
nodes = (
(1206,508,o),
(1231,530,o),
(1231,563,cs),
(1231,647,ls),
(1231,678,o),
(1206,700,o),
(1175,700,cs),
(782,700,l),
(782,1085,ls),
(782,1115,o),
(760,1140,o),
(734,1140,cs),
(630,1140,ls),
(603,1140,o),
(581,1115,o),
(581,1085,cs),
(581,700,l),
(187,700,ls),
(157,700,o),
(132,678,o),
(132,652,cs),
(132,557,ls),
(132,530,o),
(157,508,o),
(187,508,cs),
(581,508,l),
(581,117,ls),
(581,86,o),
(603,61,o),
(636,61,cs),
(729,61,ls),
(760,61,o),
(782,86,o),
(782,117,cs),
(782,508,l),
(1175,508,ls)
);
}
);
width = 1363;
}
);
unicode = 43;
}
{
color = 4;
glyphname = comma;
layers = (
{
layerId = m001;
shapes = (
{
closed = 1;
nodes = (
(76,-286,o),
(64,-303,o),
(64,-322,cs),
(64,-333,o),
(69,-347,o),
(82,-358,cs),
(118,-389,ls),
(132,-401,o),
(143,-406,o),
(157,-406,cs),
(196,-406,o),
(233,-362,o),
(257,-332,cs),
(344,-221,o),
(425,-64,o),
(425,108,cs),
(425,223,o),
(362,325,o),
(248,325,cs),
(155,325,o),
(85,248,o),
(85,159,cs),
(85,74,o),
(144,15,o),
(211,-5,c),
(205,-69,o),
(175,-178,o),
(86,-276,cs)
);
}
);
width = 513;
},
{
layerId = m002;
shapes = (
{
closed = 1;
nodes = (
(76,-286,o),
(64,-303,o),
(64,-322,cs),
(64,-333,o),
(69,-347,o),
(82,-358,cs),
(118,-389,ls),
(132,-401,o),
(143,-406,o),
(157,-406,cs),
(196,-406,o),
(233,-362,o),
(257,-332,cs),
(344,-221,o),
(425,-64,o),
(425,108,cs),
(425,223,o),
(362,325,o),
(248,325,cs),
(155,325,o),
(85,248,o),
(85,159,cs),
(85,74,o),
(144,15,o),
(211,-5,c),
(205,-69,o),
(175,-178,o),
(86,-276,cs)
);
}
);
width = 513;
},
{
layerId = m003;
shapes = (
{
closed = 1;
nodes = (
(76,-286,o),
(64,-303,o),
(64,-322,cs),
(64,-333,o),
(69,-347,o),
(82,-358,cs),
(118,-389,ls),
(132,-401,o),
(143,-406,o),
(157,-406,cs),
(196,-406,o),
(233,-362,o),
(257,-332,cs),
(344,-221,o),
(425,-64,o),
(425,108,cs),
(425,223,o),
(362,325,o),
(248,325,cs),
(155,325,o),
(85,248,o),
(85,159,cs),
(85,74,o),
(144,15,o),
(211,-5,c),
(205,-69,o),
(175,-178,o),
(86,-276,cs)
);
}
);
width = 513;
}
);
unicode = 44;
}
{
color = 4;
glyphname = hyphen;
layers = (
{
layerId = m001;
shapes = (
{
closed = 1;
nodes = (
(931,508,o),
(956,530,o),
(956,556,cs),
(956,651,ls),
(956,678,o),
(931,700,o),
(900,700,cs),
(292,700,ls),
(262,700,o),
(237,678,o),
(237,652,cs),
(237,557,ls),
(237,530,o),
(262,508,o),
(292,508,cs),
(900,508,ls)
);
}
);
width = 1193;
},
{
layerId = m002;
shapes = (
{
closed = 1;
nodes = (
(931,508,o),
(956,530,o),
(956,556,cs),
(956,651,ls),
(956,678,o),
(931,700,o),
(900,700,cs),
(292,700,ls),
(262,700,o),
(237,678,o),
(237,652,cs),
(237,557,ls),
(237,530,o),
(262,508,o),
(292,508,cs),
(900,508,ls)
);
}
);
width = 1193;
},
{
layerId = m003;
shapes = (
{
closed = 1;
nodes = (
(931,508,o),
(956,530,o),
(956,556,cs),
(956,651,ls),
(956,678,o),
(931,700,o),
(900,700,cs),
(292,700,ls),
(262,700,o),
(237,678,o),
(237,652,cs),
(237,557,ls),
(237,530,o),
(262,508,o),
(292,508,cs),
(900,508,ls)
);
}
);
width = 1193;
}
);
unicode = 45;
}
{
color = 4;
glyphname = period;
layers = (
{
layerId = m001;
shapes = (
{
closed = 1;
nodes = (
(428,54,o),
(351,-25,o),
(258,-25,cs),
(163,-25,o),
(86,54,o),
(86,151,cs),
(86,247,o),
(163,325,o),
(258,325,cs),
(351,325,o),
(428,247,o),
(428,151,cs)
);
}
);
width = 513;
},
{
layerId = m002;
shapes = (
{
closed = 1;
nodes = (
(428,54,o),
(351,-25,o),
(258,-25,cs),
(163,-25,o),
(86,54,o),
(86,151,cs),
(86,247,o),
(163,325,o),
(258,325,cs),
(351,325,o),
(428,247,o),
(428,151,cs)
);
}
);
width = 513;
},
{
layerId = m003;
shapes = (
{
closed = 1;
nodes = (
(428,54,o),
(351,-25,o),
(258,-25,cs),
(163,-25,o),
(86,54,o),
(86,151,cs),
(86,247,o),
(163,325,o),
(258,325,cs),
(351,325,o),
(428,247,o),
(428,151,cs)
);
}
);
width = 513;
}
);
unicode = 46;
}
{
color = 4;
glyphname = slash;
layers = (
{
layerId = m001;
shapes = (
{
closed = 1;
nodes = (
(282,-130,o),
(287,-130,o),
(293,-130,cs),
(319,-130,o),
(344,-116,o),
(351,-88,cs),
(776,1536,ls),
(777,1541,o),
(778,1547,o),
(778,1552,cs),
(778,1579,o),
(762,1602,o),
(730,1609,cs),
(645,1627,ls),
(640,1628,o),
(635,1628,o),
(630,1628,cs),
(602,1628,o),
(576,1615,o),
(569,1586,cs),
(153,-22,ls),
(151,-29,o),
(150,-37,o),
(150,-46,cs),
(150,-71,o),
(161,-97,o),
(196,-106,cs),
(276,-128,ls)
);
}
);
width = 853;
},
{
layerId = m002;
shapes = (
{
closed = 1;
nodes = (
(282,-130,o),
(287,-130,o),
(293,-130,cs),
(319,-130,o),
(344,-116,o),
(351,-88,cs),
(776,1536,ls),
(777,1541,o),
(778,1547,o),
(778,1552,cs),
(778,1579,o),
(762,1602,o),
(730,1609,cs),
(645,1627,ls),
(640,1628,o),
(635,1628,o),
(630,1628,cs),
(602,1628,o),
(576,1615,o),
(569,1586,cs),
(153,-22,ls),
(151,-29,o),
(150,-37,o),
(150,-46,cs),
(150,-71,o),
(161,-97,o),
(196,-106,cs),
(276,-128,ls)
);
}
);
width = 853;
},
{
layerId = m003;
shapes = (
{
closed = 1;
nodes = (
(282,-130,o),
(287,-130,o),
(293,-130,cs),
(319,-130,o),
(344,-116,o),
(351,-88,cs),
(776,1536,ls),
(777,1541,o),
(778,1547,o),
(778,1552,cs),
(778,1579,o),
(762,1602,o),
(730,1609,cs),
(645,1627,ls),
(640,1628,o),
(635,1628,o),
(630,1628,cs),
(602,1628,o),
(576,1615,o),
(569,1586,cs),
(153,-22,ls),
(151,-29,o),
(150,-37,o),
(150,-46,cs),
(150,-71,o),
(161,-97,o),
(196,-106,cs),
(276,-128,ls)
);
}
);
width = 853;
}
);
unicode = 47;
}
{
color = 4;
glyphname = zero;
layers = (
{
layerId = m001;
shapes = (
{
closed = 1;
nodes = (
(1018,-25,o),
(1242,226,o),
(1242,599,cs),
(1242,973,o),
(1041,1225,o),
(681,1225,cs),
(322,1225,o),
(121,973,o),
(121,599,cs),
(121,236,o),
(335,-25,o),
(675,-25,cs)
);
},
{
closed = 1;
nodes = (
(906,1023,o),
(987,817,o),
(987,597,cs),
(987,381,o),
(906,179,o),
(683,179,cs),
(447,179,o),
(377,406,o),
(377,599,cs),
(378,819,o),
(453,1023,o),
(678,1023,cs)
);
}
);
width = 1363;
},
{
layerId = m002;
shapes = (
{
closed = 1;
nodes = (
(1018,-25,o),
(1242,226,o),
(1242,599,cs),
(1242,973,o),
(1041,1225,o),
(681,1225,cs),
(322,1225,o),
(121,973,o),
(121,599,cs),
(121,236,o),
(335,-25,o),
(675,-25,cs)
);
},
{
closed = 1;
nodes = (
(906,1023,o),
(987,817,o),
(987,597,cs),
(987,381,o),
(906,179,o),
(683,179,cs),
(447,179,o),
(377,406,o),
(377,599,cs),
(378,819,o),
(453,1023,o),
(678,1023,cs)
);
}
);
width = 1363;
},
{
layerId = m003;
shapes = (
{
closed = 1;
nodes = (
(1018,-25,o),
(1242,226,o),
(1242,599,cs),
(1242,973,o),
(1041,1225,o),
(681,1225,cs),
(322,1225,o),
(121,973,o),
(121,599,cs),
(121,236,o),
(335,-25,o),
(675,-25,cs)
);
},
{
closed = 1;
nodes = (
(906,1023,o),
(987,817,o),
(987,597,cs),
(987,381,o),
(906,179,o),
(683,179,cs),
(447,179,o),
(377,406,o),
(377,599,cs),
(378,819,o),
(453,1023,o),
(678,1023,cs)
);
}
);
width = 1363;
}
);
unicode = 48;
}
{
glyphname = one;
layers = (
{
background = {
shapes = (
{
closed = 1;
nodes = (
(540,0,ls),
(590,0,o),
(634,42,o),
(634,96,cs),
(634,1085,ls),
(634,1166,o),
(578,1216,o),
(503,1216,cs),
(421,1216,o),
(380,1168,o),
(312,1130,cs),
(255,1098,o),
(196,1087,o),
(142,1075,cs),
(61,1057,o),
(36,1023,o),
(36,977,cs),
(36,956,o),
(41,931,o),
(48,905,cs),
(61,857,o),
(89,821,o),
(153,821,cs),
(202,821,o),
(266,840,o),
(317,860,c),
(317,96,ls),
(317,42,o),
(357,0,o),
(409,0,cs)
);
}
);
};
hints = (
{
name = _corner.round;
origin = (0,23);
type = Corner;
},
{
name = _corner.round;
origin = (0,0);
scale = (-1,1);
type = Corner;
}
);
layerId = "997F8AB0-1B91-48A1-A6B5-F95345F1D981";
shapes = (
{
closed = 1;
nodes = (
(634,0,l),
(634,1085,ls),
(634,1166,o),
(578,1216,o),
(503,1216,cs),
(421,1216,o),
(380,1168,o),
(312,1130,cs),
(255,1098,o),
(196,1087,o),
(142,1075,cs),
(61,1057,o),
(36,1023,o),
(36,977,cs),
(36,956,o),
(41,931,o),
(48,905,cs),
(61,857,o),
(89,821,o),
(153,821,cs),
(202,821,o),
(266,840,o),
(317,860,c),
(317,0,l)
);
}
);
width = 850;
},
{
background = {
shapes = (
{
closed = 1;
nodes = (
(552,0,ls),
(559,0,o),
(571,14,o),
(571,36,cs),
(571,1141,ls),
(571,1191,o),
(555,1216,o),
(515,1216,cs),
(466,1216,o),
(436,1176,o),
(317,1122,cs),
(244,1089,o),
(173,1073,o),
(118,1062,cs),
(70,1052,o),
(63,1043,o),
(63,1020,cs),
(63,1005,o),
(66,976,o),
(73,951,cs),
(82,919,o),
(96,904,o),
(116,904,cs),
(158,904,o),
(261,936,o),
(386,995,c),
(386,36,ls),
(386,13,o),
(396,0,o),
(402,0,cs)
);
}
);
};
hints = (
{
name = _corner.round;
origin = (0,23);
type = Corner;
},
{
name = _corner.round;
origin = (0,0);
scale = (-1,1);
type = Corner;
}
);
layerId = m001;
shapes = (
{
closed = 1;
nodes = (
(571,0,l),
(571,1141,ls),
(571,1191,o),
(555,1216,o),
(515,1216,cs),
(466,1216,o),
(436,1176,o),
(317,1122,cs),
(244,1089,o),
(173,1073,o),
(118,1062,cs),
(70,1052,o),
(63,1043,o),
(63,1020,cs),
(63,1005,o),
(66,976,o),
(73,951,cs),
(82,919,o),
(96,904,o),
(116,904,cs),
(158,904,o),
(261,936,o),
(386,995,c),
(386,0,l)
);
}
);
width = 814;
},
{
background = {
shapes = (
{
closed = 1;
nodes = (
(552,0,ls),
(581,0,o),
(606,28,o),
(606,63,cs),
(606,1116,ls),
(606,1180,o),
(568,1216,o),
(513,1216,cs),
(445,1216,o),
(421,1178,o),
(333,1129,cs),
(269,1093,o),
(197,1079,o),
(142,1068,cs),
(81,1055,o),
(63,1035,o),
(63,1001,cs),
(63,984,o),
(67,962,o),
(74,937,cs),
(82,906,o),
(94,876,o),
(141,876,cs),
(211,876,o),
(322,916,o),
(361,940,c),
(361,63,ls),
(361,28,o),
(383,0,o),
(413,0,cs)
);
}
);
};
hints = (
{
name = _corner.round;
origin = (0,23);
type = Corner;
},
{
name = _corner.round;
origin = (0,0);
scale = (-1,1);
type = Corner;
}
);
layerId = m002;
shapes = (
{
closed = 1;
nodes = (
(606,-2,l),
(606,1116,ls),
(606,1180,o),
(568,1216,o),
(513,1216,cs),
(445,1216,o),
(421,1178,o),
(333,1129,cs),
(269,1093,o),
(197,1079,o),
(142,1068,cs),
(81,1055,o),
(63,1035,o),
(63,1001,cs),
(63,984,o),
(67,962,o),
(74,937,cs),
(82,906,o),
(94,876,o),
(141,876,cs),
(211,876,o),
(322,916,o),
(361,940,c),
(361,-2,l)
);
}
);
width = 849;
}
);
unicode = 49;
userData = {
KernOnName = one;
KernOnSpecialSpacing = {
L = number;
R = number;
};
};
}
{
glyphname = two;
layers = (
{
background = {
shapes = (
{
closed = 1;
nodes = (
(985,0,ls),
(1057,0,o),
(1094,32,o),
(1094,91,cs),
(1094,174,ls),
(1094,250,o),
(1054,279,o),
(993,278,cs),
(619,269,l),
(679,309,ls),
(847,421,o),
(1055,591,o),
(1055,833,cs),
(1055,1137,o),
(772,1225,o),
(583,1225,cs),
(371,1225,o),
(101,1104,o),
(101,877,cs),
(101,818,o),
(132,775,o),
(216,762,cs),
(229,760,o),
(248,755,o),
(269,755,cs),
(312,755,o),
(355,773,o),
(381,840,cs),
(411,917,o),
(497,953,o),
(572,953,cs),
(644,953,o),
(730,921,o),
(730,813,cs),
(730,607,o),
(357,372,o),
(185,286,cs),
(133,260,o),
(116,240,o),
(116,159,cs),
(116,94,ls),
(116,33,o),
(156,0,o),
(224,0,cs)
);
}
);
};
layerId = "997F8AB0-1B91-48A1-A6B5-F95345F1D981";
shapes = (
{
closed = 1;
nodes = (
(985,0,ls),
(1050,0,o),
(1094,48,o),
(1094,111,cs),
(1094,156,ls),
(1094,219,o),
(1050,267,o),
(985,267,cs),
(619,267,l),
(679,309,ls),
(845,425,o),
(1055,591,o),
(1055,833,cs),
(1055,1137,o),
(772,1225,o),
(583,1225,cs),
(371,1225,o),
(101,1104,o),
(101,877,cs),
(101,818,o),
(132,775,o),
(216,762,cs),
(229,760,o),
(248,755,o),
(269,755,cs),
(312,755,o),
(349,776,o),
(372,820,cs),
(428,929,o),
(488,953,o),
(572,953,cs),
(644,953,o),
(730,921,o),
(730,813,cs),
(730,607,o),
(357,372,o),
(185,286,cs),
(133,260,o),
(116,220,o),
(116,169,cs),
(116,111,ls),
(116,48,o),
(160,0,o),
(225,0,cs)
);
}
);
width = 1195;
},
{
background = {
shapes = (
{
closed = 1;
nodes = (
(990,0,ls),
(1016,0,o),
(1031,13,o),
(1031,44,cs),
(1031,122,ls),
(1031,153,o),
(1016,166,o),
(990,166,cs),
(382,159,l),
(493,234,ls),
(671,354,o),
(990,553,o),
(990,857,cs),
(990,1138,o),
(746,1220,o),
(564,1220,cs),
(336,1220,o),
(128,1089,o),
(128,898,cs),
(128,868,o),
(145,854,o),
(187,847,cs),
(205,844,o),
(216,841,o),
(228,841,cs),
(246,841,o),
(263,848,o),
(270,875,cs),
(300,990,o),
(390,1060,o),
(553,1060,cs),
(649,1060,o),
(800,1009,o),
(800,835,cs),
(800,568,o),
(363,303,o),
(183,192,cs),
(155,175,o),
(144,166,o),
(144,106,cs),
(144,69,ls),
(144,20,o),
(162,0,o),
(200,0,cs)
);
}
);
};
layerId = m001;
shapes = (
{
closed = 1;
nodes = (
(988,0,ls),
(1019,0,o),
(1031,18,o),
(1031,52,cs),
(1031,104,ls),
(1031,138,o),
(1019,156,o),
(988,156,cs),
(353,156,l),
(484,234,ls),
(668,344,o),
(990,553,o),
(990,857,cs),
(990,1138,o),
(746,1220,o),
(564,1220,cs),
(336,1220,o),
(128,1089,o),
(128,898,cs),
(128,868,o),
(145,854,o),
(187,847,cs),
(205,844,o),
(216,841,o),
(228,841,cs),
(246,841,o),
(261,848,o),
(270,875,cs),
(309,996,o),
(390,1060,o),
(553,1060,cs),
(649,1060,o),
(800,1009,o),
(800,835,cs),
(800,568,o),
(363,303,o),
(191,197,cs),
(158,177,o),
(144,146,o),
(144,116,cs),
(144,52,ls),
(144,18,o),
(156,0,o),
(187,0,cs)
);
}
);
width = 1159;
},
{
background = {
shapes = (
{
closed = 1;
nodes = (
(997,1,ls),
(1042,1,o),
(1066,13,o),
(1066,58,cs),
(1066,147,ls),
(1066,188,o),
(1058,217,o),
(1006,216,cs),
(471,204,l),
(514,230,ls),
(697,340,o),
(1026,536,o),
(1026,849,cs),
(1026,1140,o),
(766,1225,o),
(582,1225,cs),
(381,1225,o),
(128,1109,o),
(128,895,cs),
(128,848,o),
(148,822,o),
(211,812,cs),
(227,809,o),
(243,806,o),
(258,806,cs),
(287,806,o),
(314,818,o),
(333,869,cs),
(371,969,o),
(478,1015,o),
(571,1015,cs),
(656,1015,o),
(777,973,o),
(777,828,cs),
(777,580,o),
(375,324,o),
(191,230,cs),
(148,208,o),
(143,195,o),
(143,130,cs),
(143,62,ls),
(143,16,o),
(170,1,o),
(212,1,cs)
);
}
);
};
layerId = m002;
shapes = (
{
closed = 1;
nodes = (
(1011,0,ls),
(1041,0,o),
(1066,29,o),
(1066,64,cs),
(1066,142,ls),
(1066,177,o),
(1041,206,o),
(1011,206,cs),
(471,206,l),
(514,230,ls),
(701,334,o),
(1029,547,o),
(1029,840,cs),
(1029,1141,o),
(766,1225,o),
(582,1225,cs),
(381,1225,o),
(128,1109,o),
(128,895,cs),
(128,848,o),
(148,822,o),
(211,812,cs),
(227,809,o),
(243,806,o),
(258,806,cs),
(287,806,o),
(314,818,o),
(329,858,cs),
(362,946,o),
(438,1015,o),
(561,1015,cs),
(656,1015,o),
(770,970,o),
(770,815,cs),
(770,577,o),
(375,324,o),
(199,234,cs),
(156,212,o),
(143,189,o),
(143,145,cs),
(143,64,ls),
(143,29,o),
(168,0,o),
(198,0,cs)
);
}
);
width = 1194;
}
);
unicode = 50;
userData = {
KernOnName = two;
KernOnSpecialSpacing = {
L = number;
R = number;
};
};
}
{
color = 4;
glyphname = three;
layers = (
{
guides = (
{
pos = (0,-98);
}
);
layerId = m001;
shapes = (
{
closed = 1;
nodes = (
(117,870,o),
(135,820,o),
(255,820,cs),
(286,820,o),
(312,830,o),
(321,867,cs),
(343,963,o),
(457,1008,o),
(539,1008,cs),
(649,1008,o),
(751,950,o),
(751,839,cs),
(751,678,o),
(593,594,o),
(355,541,cs),
(318,533,o),
(310,507,o),
(310,480,cs),
(310,450,o),
(320,363,o),
(367,363,cs),
(370,363,o),
(373,363,o),
(388,366,cs),
(426,373,o),
(458,374,o),
(495,374,cs),
(667,374,o),
(803,309,o),
(803,172,cs),
(803,19,o),
(661,-43,o),
(539,-43,cs),
(437,-43,o),
(349,-24,o),
(250,41,cs),
(228,55,o),
(213,64,o),
(198,64,cs),
(181,63,o),
(166,53,o),
(149,27,cs),
(106,-38,ls),
(98,-50,o),
(95,-60,o),
(95,-70,cs),
(95,-96,o),
(117,-119,o),
(143,-140,cs),
(251,-229,o),
(399,-263,o),
(568,-263,cs),
(795,-263,o),
(1045,-103,o),
(1045,176,cs),
(1045,348,o),
(902,497,o),
(684,497,c),
(796,535,o),
(996,637,o),
(996,859,cs),
(996,1109,o),
(779,1225,o),
(560,1225,cs),
(369,1225,o),
(117,1122,o),
(117,913,cs)
);
}
);
width = 1194;
},
{
guides = (
{
pos = (0,-98);
}
);
layerId = m002;
shapes = (
{
closed = 1;
nodes = (
(117,870,o),
(135,820,o),
(255,820,cs),
(286,820,o),
(312,830,o),
(321,867,cs),
(343,963,o),
(457,1008,o),
(539,1008,cs),
(649,1008,o),
(751,950,o),
(751,839,cs),
(751,678,o),
(593,594,o),
(355,541,cs),
(318,533,o),
(310,507,o),
(310,480,cs),
(310,450,o),
(320,363,o),
(367,363,cs),
(370,363,o),
(373,363,o),
(388,366,cs),
(426,373,o),
(458,374,o),
(495,374,cs),
(667,374,o),
(803,309,o),
(803,172,cs),
(803,19,o),
(661,-43,o),
(539,-43,cs),
(437,-43,o),
(349,-24,o),
(250,41,cs),
(228,55,o),
(213,64,o),
(198,64,cs),
(181,63,o),
(166,53,o),
(149,27,cs),
(106,-38,ls),
(98,-50,o),
(95,-60,o),
(95,-70,cs),
(95,-96,o),
(117,-119,o),
(143,-140,cs),
(251,-229,o),
(399,-263,o),
(568,-263,cs),
(795,-263,o),
(1045,-103,o),
(1045,176,cs),
(1045,348,o),
(902,497,o),
(684,497,c),
(796,535,o),
(996,637,o),
(996,859,cs),
(996,1109,o),
(779,1225,o),
(560,1225,cs),
(369,1225,o),
(117,1122,o),
(117,913,cs)
);
}
);
width = 1194;
},
{
guides = (
{
pos = (0,-98);
}
);
layerId = m003;
shapes = (
{
closed = 1;
nodes = (
(117,870,o),
(135,820,o),
(255,820,cs),
(286,820,o),
(312,830,o),
(321,867,cs),
(343,963,o),
(457,1008,o),
(539,1008,cs),
(649,1008,o),
(751,950,o),
(751,839,cs),
(751,678,o),
(593,594,o),
(355,541,cs),
(318,533,o),
(310,507,o),
(310,480,cs),
(310,450,o),
(320,363,o),
(367,363,cs),
(370,363,o),
(373,363,o),
(388,366,cs),
(426,373,o),
(458,374,o),
(495,374,cs),
(667,374,o),
(803,309,o),
(803,172,cs),
(803,19,o),
(661,-43,o),
(539,-43,cs),
(437,-43,o),
(349,-24,o),
(250,41,cs),
(228,55,o),
(213,64,o),
(198,64,cs),
(181,63,o),
(166,53,o),
(149,27,cs),
(106,-38,ls),
(98,-50,o),
(95,-60,o),
(95,-70,cs),
(95,-96,o),
(117,-119,o),
(143,-140,cs),
(251,-229,o),
(399,-263,o),
(568,-263,cs),
(795,-263,o),
(1045,-103,o),
(1045,176,cs),
(1045,348,o),
(902,497,o),
(684,497,c),
(796,535,o),
(996,637,o),
(996,859,cs),
(996,1109,o),
(779,1225,o),
(560,1225,cs),
(369,1225,o),
(117,1122,o),
(117,913,cs)
);
}
);
width = 1194;
}
);
unicode = 51;
}
{
color = 4;
glyphname = four;
layers = (
{
guides = (
{
pos = (0,292);
},
{
angle = 90;
pos = (729,0);
},
{
angle = 90;
pos = (965,0);
}
);
layerId = m001;
shapes = (
{
closed = 1;
nodes = (
(940,-238,o),
(965,-214,o),
(965,-175,cs),
(965,96,l),
(1110,125,ls),
(1156,134,o),
(1173,150,o),
(1173,188,cs),
(1173,242,ls),
(1173,273,o),
(1161,295,o),
(1114,295,cs),
(965,295,l),
(965,672,ls),
(965,705,o),
(946,741,o),
(892,741,cs),
(809,741,ls),
(767,741,o),
(729,716,o),
(729,670,cs),
(729,295,l),
(333,295,l),
(444,553,o),
(589,965,o),
(619,1135,cs),
(628,1182,o),
(614,1213,o),
(571,1227,cs),
(532,1239,o),
(493,1251,o),
(455,1251,cs),
(413,1251,o),
(384,1222,o),
(375,1179,cs),
(314,887,o),
(207,586,o),
(100,296,cs),
(91,273,o),
(87,245,o),
(87,224,cs),
(87,147,o),
(145,94,o),
(233,94,cs),
(729,94,l),
(729,-170,ls),
(729,-210,o),
(750,-238,o),
(787,-238,cs),
(906,-238,ls)
);
}
);
width = 1185;
},
{
guides = (
{
pos = (0,292);
},
{
angle = 90;
pos = (729,0);
},
{
angle = 90;
pos = (965,0);
}
);
layerId = m002;
shapes = (
{
closed = 1;
nodes = (
(940,-238,o),
(965,-214,o),
(965,-175,cs),
(965,96,l),
(1110,125,ls),
(1156,134,o),
(1173,150,o),
(1173,188,cs),
(1173,242,ls),
(1173,273,o),
(1161,295,o),
(1114,295,cs),
(965,295,l),
(965,672,ls),
(965,705,o),
(946,741,o),
(892,741,cs),
(809,741,ls),
(767,741,o),
(729,716,o),
(729,670,cs),
(729,295,l),
(333,295,l),
(444,553,o),
(589,965,o),
(619,1135,cs),
(628,1182,o),
(614,1213,o),
(571,1227,cs),
(532,1239,o),
(493,1251,o),
(455,1251,cs),
(413,1251,o),
(384,1222,o),
(375,1179,cs),
(314,887,o),
(207,586,o),
(100,296,cs),
(91,273,o),
(87,245,o),
(87,224,cs),
(87,147,o),
(145,94,o),
(233,94,cs),
(729,94,l),
(729,-170,ls),
(729,-210,o),
(750,-238,o),
(787,-238,cs),
(906,-238,ls)
);
}
);
width = 1185;
},
{
guides = (
{
pos = (0,292);
},
{
angle = 90;
pos = (729,0);
},
{
angle = 90;
pos = (965,0);
}
);
layerId = m003;
shapes = (
{
closed = 1;
nodes = (
(940,-238,o),
(965,-214,o),
(965,-175,cs),
(965,96,l),
(1110,125,ls),
(1156,134,o),
(1173,150,o),
(1173,188,cs),
(1173,242,ls),
(1173,273,o),
(1161,295,o),
(1114,295,cs),
(965,295,l),
(965,672,ls),
(965,705,o),
(946,741,o),
(892,741,cs),
(809,741,ls),
(767,741,o),
(729,716,o),
(729,670,cs),
(729,295,l),
(333,295,l),
(444,553,o),
(589,965,o),
(619,1135,cs),
(628,1182,o),
(614,1213,o),
(571,1227,cs),
(532,1239,o),
(493,1251,o),
(455,1251,cs),
(413,1251,o),
(384,1222,o),
(375,1179,cs),
(314,887,o),
(207,586,o),
(100,296,cs),
(91,273,o),
(87,245,o),
(87,224,cs),
(87,147,o),
(145,94,o),
(233,94,cs),
(729,94,l),
(729,-170,ls),
(729,-210,o),
(750,-238,o),
(787,-238,cs),
(906,-238,ls)
);
}
);
width = 1185;
}
);
unicode = 52;
}
{
color = 4;
glyphname = five;
layers = (
{
layerId = m001;
shapes = (
{
closed = 1;
nodes = (
(209,391,o),
(224,386,o),
(287,377,cs),
(305,374,o),
(320,370,o),
(336,370,cs),
(352,370,o),
(373,373,o),
(385,379,cs),
(428,399,o),
(476,471,o),
(628,471,cs),
(741,471,o),
(866,379,o),
(866,217,cs),
(866,41,o),
(736,-46,o),
(592,-46,cs),
(475,-46,o),
(363,-15,o),
(278,57,c),
(258,72,o),
(248,87,o),
(224,87,cs),
(202,87,o),
(184,72,o),
(169,50,cs),
(128,-9,ls),
(110,-35,o),
(108,-49,o),
(108,-57,cs),
(109,-82,o),
(132,-100,o),
(154,-121,cs),
(259,-220,o),
(427,-263,o),
(575,-263,cs),
(901,-263,o),
(1118,-73,o),
(1118,219,cs),
(1118,510,o),
(912,664,o),
(689,664,cs),
(555,664,o),
(480,625,o),
(438,596,c),
(438,983,l),
(966,983,ls),
(1029,983,o),
(1029,1007,o),
(1029,1049,cs),
(1029,1146,ls),
(1029,1191,o),
(1005,1198,o),
(960,1198,cs),
(303,1198,ls),
(226,1198,o),
(209,1166,o),
(209,1089,cs),
(209,444,ls)
);
}
);
width = 1193;
},
{
layerId = m002;
shapes = (
{
closed = 1;
nodes = (
(209,391,o),
(224,386,o),
(287,377,cs),
(305,374,o),
(320,370,o),
(336,370,cs),
(352,370,o),
(373,373,o),
(385,379,cs),
(428,399,o),
(476,471,o),
(628,471,cs),
(741,471,o),
(866,379,o),
(866,217,cs),
(866,41,o),
(736,-46,o),
(592,-46,cs),
(475,-46,o),
(363,-15,o),
(278,57,c),
(258,72,o),
(248,87,o),
(224,87,cs),
(202,87,o),
(184,72,o),
(169,50,cs),
(128,-9,ls),
(110,-35,o),
(108,-49,o),
(108,-57,cs),
(109,-82,o),
(132,-100,o),
(154,-121,cs),
(259,-220,o),
(427,-263,o),
(575,-263,cs),
(901,-263,o),
(1118,-73,o),
(1118,219,cs),
(1118,510,o),
(912,664,o),
(689,664,cs),
(555,664,o),
(480,625,o),
(438,596,c),
(438,983,l),
(966,983,ls),
(1029,983,o),
(1029,1007,o),
(1029,1049,cs),
(1029,1146,ls),
(1029,1191,o),
(1005,1198,o),
(960,1198,cs),
(303,1198,ls),
(226,1198,o),
(209,1166,o),
(209,1089,cs),
(209,444,ls)
);
}
);
width = 1193;
},
{
layerId = m003;
shapes = (
{
closed = 1;
nodes = (
(209,391,o),
(224,386,o),
(287,377,cs),
(305,374,o),
(320,370,o),
(336,370,cs),
(352,370,o),
(373,373,o),
(385,379,cs),
(428,399,o),
(476,471,o),
(628,471,cs),
(741,471,o),
(866,379,o),
(866,217,cs),
(866,41,o),
(736,-46,o),
(592,-46,cs),
(475,-46,o),
(363,-15,o),
(278,57,c),
(258,72,o),
(248,87,o),
(224,87,cs),
(202,87,o),
(184,72,o),
(169,50,cs),
(128,-9,ls),
(110,-35,o),
(108,-49,o),
(108,-57,cs),
(109,-82,o),
(132,-100,o),
(154,-121,cs),
(259,-220,o),
(427,-263,o),
(575,-263,cs),
(901,-263,o),
(1118,-73,o),
(1118,219,cs),
(1118,510,o),
(912,664,o),
(689,664,cs),
(555,664,o),
(480,625,o),
(438,596,c),
(438,983,l),
(966,983,ls),
(1029,983,o),
(1029,1007,o),
(1029,1049,cs),
(1029,1146,ls),
(1029,1191,o),
(1005,1198,o),
(960,1198,cs),
(303,1198,ls),
(226,1198,o),
(209,1166,o),
(209,1089,cs),
(209,444,ls)
);
}
);
width = 1193;
}
);
unicode = 53;
}
{
glyphname = six;
layers = (
{
layerId = "997F8AB0-1B91-48A1-A6B5-F95345F1D981";
shapes = (
{
closed = 1;
nodes = (
(959,-25,o),
(1145,224,o),
(1145,487,cs),
(1145,767,o),
(944,926,o),
(677,926,cs),
(600,926,o),
(478,905,o),
(384,838,c),
(405,1019,o),
(484,1175,o),
(675,1175,cs),
(759,1175,o),
(820,1150,o),
(872,1116,cs),
(896,1100,o),
(922,1088,o),
(948,1088,cs),
(978,1088,o),
(1011,1105,o),
(1046,1156,cs),
(1070,1191,ls),
(1090,1220,o),
(1096,1242,o),
(1096,1262,cs),
(1096,1370,o),
(862,1451,o),
(697,1451,cs),
(146,1451,o),
(68,994,o),
(68,657,cs),
(68,237,o),
(259,-25,o),
(621,-25,cs)
);
},
{
closed = 1;
nodes = (
(489,249,o),
(384,340,o),
(384,551,c),
(394,561,ls),
(434,601,o),
(530,651,o),
(616,651,cs),
(755,651,o),
(834,600,o),
(834,464,cs),
(834,325,o),
(741,249,o),
(627,249,cs)
);
}
);
width = 1194;
},
{
background = {
shapes = (
{
closed = 1;
nodes = (
(276,906,o),
(341,1283,o),
(680,1283,cs),
(781,1283,o),
(883,1259,o),
(945,1211,cs),
(963,1197,o),
(972,1193,o),
(978,1193,cs),
(985,1193,o),
(998,1204,o),
(1021,1238,cs),
(1044,1272,ls),
(1055,1288,o),
(1060,1302,o),
(1060,1315,cs),
(1060,1373,o),
(866,1448,o),
(714,1448,cs),
(198,1448,o),
(125,1012,o),
(125,652,cs),
(125,225,o),
(299,-25,o),
(634,-25,cs),
(943,-25,o),
(1112,210,o),
(1112,466,cs),
(1112,732,o),
(936,878,o),
(693,878,cs),
(571,878,o),
(347,823,o),
(301,612,c)
);
},
{
closed = 1;
nodes = (
(937,248,o),
(800,136,o),
(640,136,cs),
(457,136,o),
(310,260,o),
(310,547,cs),
(310,564,l),
(347,628,o),
(495,715,o),
(629,715,cs),
(812,715,o),
(937,634,o),
(937,441,cs)
);
}
);
};
layerId = m001;
shapes = (
{
closed = 1;
nodes = (
(913,-25,o),
(1082,210,o),
(1082,466,cs),
(1082,732,o),
(906,886,o),
(663,886,cs),
(469,886,o),
(335,790,o),
(274,709,c),
(282,1055,o),
(385,1283,o),
(650,1283,cs),
(751,1283,o),
(853,1259,o),
(915,1211,cs),
(933,1197,o),
(942,1193,o),
(948,1193,cs),
(955,1193,o),
(968,1204,o),
(991,1238,cs),
(1014,1272,ls),
(1025,1288,o),
(1030,1302,o),
(1030,1315,cs),
(1030,1373,o),
(836,1448,o),
(684,1448,cs),
(193,1448,o),
(95,1008,o),
(95,703,cs),
(95,225,o),
(269,-25,o),
(604,-25,cs)
);
},
{
closed = 1;
nodes = (
(429,136,o),
(294,294,o),
(286,560,cs),
(286,585,l),
(331,641,o),
(465,723,o),
(599,723,cs),
(782,723,o),
(907,634,o),
(907,441,cs),
(907,248,o),
(770,136,o),
(610,136,cs)
);
}
);
width = 1158;
},
{
layerId = m002;
shapes = (
{
closed = 1;
nodes = (
(941,-25,o),
(1117,216,o),
(1117,476,cs),
(1117,748,o),
(932,901,o),
(678,901,cs),
(581,901,o),
(416,866,o),
(327,750,c),
(332,995,o),
(414,1237,o),
(666,1237,cs),
(755,1237,o),
(846,1217,o),
(904,1172,cs),
(923,1157,o),
(939,1150,o),
(955,1150,cs),
(975,1151,o),
(996,1165,o),
(1024,1206,cs),
(1047,1240,ls),
(1061,1261,o),
(1067,1278,o),
(1067,1295,cs),
(1067,1374,o),
(857,1451,o),
(699,1451,cs),
(170,1451,o),
(95,1007,o),
(95,656,cs),
(95,230,o),
(276,-25,o),
(621,-25,cs)
);
},
{
closed = 1;
nodes = (
(463,186,o),
(335,297,o),
(335,549,cs),
(335,556,l),
(368,613,o),
(499,689,o),
(616,689,cs),
(778,689,o),
(882,621,o),
(882,452,cs),
(882,282,o),
(765,186,o),
(627,186,cs)
);
}
);
width = 1193;
}
);
unicode = 54;
userData = {
KernOnName = six;
KernOnSpecialSpacing = {
L = number;
R = number;
};
};
}
{
glyphname = seven;
layers = (
{
background = {
shapes = (
{
closed = 1;
nodes = (
(332,-263,o),
(395,-210,o),
(435,-166,cs),
(523,-69,o),
(626,77,o),
(776,466,cs),
(810,554,o),
(859,691,o),
(962,998,cs),
(970,1022,o),
(975,1044,o),
(975,1068,cs),
(975,1151,o),
(919,1200,o),
(855,1200,cs),
(124,1200,ls),
(63,1200,o),
(23,1174,o),
(23,1100,cs),
(23,1029,ls),
(23,964,o),
(64,912,o),
(160,912,cs),
(613,912,l),
(575,771,o),
(511,613,o),
(480,525,cs),
(432,389,o),
(306,99,o),
(155,-7,cs),
(122,-30,o),
(95,-63,o),
(95,-102,cs),
(95,-125,o),
(104,-147,o),
(121,-166,cs),
(168,-219,ls),
(197,-252,o),
(235,-263,o),
(263,-263,cs)
);
}
);
};
hints = (
{
name = _corner.round;
origin = (0,13);
scale = (-1,1);
type = Corner;
},
{
name = _corner.round;
origin = (0,14);
type = Corner;
},
{
name = _corner.round;
origin = (0,12);
type = Corner;
}
);
layerId = "997F8AB0-1B91-48A1-A6B5-F95345F1D981";
shapes = (
{
closed = 1;
nodes = (
(332,-263,o),
(395,-210,o),
(435,-166,cs),
(523,-69,o),
(626,77,o),
(776,466,cs),
(810,554,o),
(859,691,o),
(962,998,cs),
(970,1022,o),
(975,1044,o),
(975,1068,cs),
(975,1200,l),
(23,1200,l),
(23,912,l),
(613,912,l),
(575,771,o),
(511,613,o),
(480,525,cs),
(432,389,o),
(306,99,o),
(155,-7,cs),
(122,-30,o),
(95,-63,o),
(95,-102,cs),
(95,-125,o),
(104,-147,o),
(121,-166,cs),
(168,-219,ls),
(197,-252,o),
(235,-263,o),
(263,-263,cs)
);
}
);
width = 1022;
},
{
background = {
shapes = (
{
closed = 1;
nodes = (
(274,-270,o),
(322,-229,o),
(360,-186,cs),
(443,-92,o),
(545,58,o),
(704,484,cs),
(737,573,o),
(791,725,o),
(902,1068,cs),
(908,1087,o),
(912,1109,o),
(912,1125,cs),
(912,1174,o),
(891,1200,o),
(862,1200,cs),
(91,1200,ls),
(65,1200,o),
(50,1187,o),
(50,1156,cs),
(50,1067,ls),
(50,1036,o),
(65,1023,o),
(91,1023,cs),
(701,1023,l),
(657,822,o),
(579,626,o),
(534,496,cs),
(422,172,o),
(298,-16,o),
(162,-117,cs),
(150,-126,o),
(134,-144,o),
(134,-163,cs),
(134,-173,o),
(139,-184,o),
(146,-192,cs),
(192,-246,ls),
(209,-266,o),
(219,-270,o),
(234,-270,cs)
);
}
);
};
hints = (
{
name = _corner.round;
origin = (0,13);
scale = (-1,1);
type = Corner;
},
{
name = _corner.round;
origin = (0,14);
type = Corner;
},
{
name = _corner.round;
origin = (0,12);
type = Corner;
}
);
layerId = m001;
shapes = (
{
closed = 1;
nodes = (
(270,-270,o),
(319,-231,o),
(371,-171,cs),
(443,-89,o),
(545,58,o),
(704,484,cs),
(737,573,o),
(791,725,o),
(902,1068,cs),
(908,1087,o),
(912,1109,o),
(912,1125,cs),
(912,1200,l),
(50,1200,l),
(50,1023,l),
(701,1023,l),
(657,822,o),
(579,626,o),
(534,496,cs),
(422,172,o),
(324,12,o),
(173,-113,cs),
(147,-135,o),
(139,-147,o),
(139,-164,cs),
(139,-176,o),
(142,-188,o),
(151,-198,cs),
(192,-246,ls),
(209,-266,o),
(219,-270,o),
(234,-270,cs)
);
}
);
width = 986;
},
{
background = {
shapes = (
{
closed = 1;
nodes = (
(314,-263,o),
(369,-215,o),
(404,-176,cs),
(491,-79,o),
(590,66,o),
(745,478,cs),
(778,567,o),
(829,711,o),
(936,1036,cs),
(943,1059,o),
(947,1081,o),
(947,1100,cs),
(947,1160,o),
(915,1200,o),
(866,1200,cs),
(111,1200,ls),
(59,1200,o),
(50,1175,o),
(50,1133,cs),
(50,1059,ls),
(50,1016,o),
(69,974,o),
(148,974,cs),
(670,974,l),
(627,792,o),
(572,662,o),
(519,509,cs),
(411,199,o),
(289,19,o),
(173,-65,cs),
(153,-79,o),
(131,-103,o),
(131,-132,cs),
(131,-146,o),
(136,-162,o),
(150,-178,cs),
(195,-230,ls),
(215,-254,o),
(237,-263,o),
(261,-263,cs)
);
}
);
};
hints = (
{
name = _corner.round;
origin = (0,13);
scale = (-1,1);
type = Corner;
},
{
name = _corner.round;
origin = (0,14);
type = Corner;
},
{
name = _corner.round;
origin = (0,12);
type = Corner;
}
);
layerId = m002;
shapes = (
{
closed = 1;
nodes = (
(314,-263,o),
(369,-215,o),
(404,-176,cs),
(491,-79,o),
(590,66,o),
(745,478,cs),
(778,567,o),
(829,711,o),
(936,1036,cs),
(943,1059,o),
(947,1081,o),
(947,1100,cs),
(947,1200,l),
(50,1200,l),
(50,974,l),
(670,974,l),
(627,792,o),
(572,662,o),
(519,509,cs),
(411,199,o),
(289,19,o),
(173,-65,cs),
(153,-79,o),
(131,-103,o),
(131,-132,cs),
(131,-146,o),
(136,-162,o),
(150,-178,cs),
(195,-230,ls),
(215,-254,o),
(237,-263,o),
(261,-263,cs)
);
}
);
width = 1021;
}
);
unicode = 55;
userData = {
KernOnName = seven;
KernOnSpecialSpacing = {
L = number;
R = number;
};
};
}
{
color = 4;
glyphname = eight;
layers = (
{
guides = (
{
pos = (0,374);
},
{
pos = (0,1055);
}
);
layerId = m001;
shapes = (
{
closed = 1;
nodes = (
(93,113,o),
(341,-25,o),
(602,-25,cs),
(850,-25,o),
(1101,139,o),
(1101,393,cs),
(1101,553,o),
(977,673,o),
(848,718,cs),
(836,722,o),
(830,724,o),
(830,727,cs),
(830,730,o),
(834,733,o),
(841,736,cs),
(948,788,o),
(1063,902,o),
(1063,1090,cs),
(1063,1330,o),
(844,1451,o),
(600,1451,cs),
(395,1451,o),
(132,1356,o),
(132,1075,cs),
(132,904,o),
(254,819,o),
(348,772,cs),
(352,770,o),
(354,767,o),
(354,764,cs),
(354,760,o),
(349,759,o),
(342,755,cs),
(213,686,o),
(93,567,o),
(93,374,cs)
);
},
{
closed = 1;
nodes = (
(689,612,o),
(863,541,o),
(863,393,cs),
(863,259,o),
(746,185,o),
(607,185,cs),
(458,185,o),
(327,248,o),
(327,403,cs),
(327,536,o),
(446,636,o),
(531,654,c)
);
},
{
closed = 1;
nodes = (
(370,1178,o),
(482,1244,o),
(602,1244,cs),
(723,1244,o),
(828,1178,o),
(828,1055,cs),
(828,962,o),
(775,875,o),
(640,817,c),
(487,869,o),
(370,947,o),
(370,1055,cs)
);
}
);
width = 1193;
},
{
guides = (
{
pos = (0,374);
},
{
pos = (0,1055);
}
);
layerId = m002;
shapes = (
{
closed = 1;
nodes = (
(93,113,o),
(341,-25,o),
(602,-25,cs),
(850,-25,o),
(1101,139,o),
(1101,393,cs),
(1101,553,o),
(977,673,o),
(848,718,cs),
(836,722,o),
(830,724,o),
(830,727,cs),
(830,730,o),
(834,733,o),
(841,736,cs),
(948,788,o),
(1063,902,o),
(1063,1090,cs),
(1063,1330,o),
(844,1451,o),
(600,1451,cs),
(395,1451,o),
(132,1356,o),
(132,1075,cs),
(132,904,o),
(254,819,o),
(348,772,cs),
(352,770,o),
(354,767,o),
(354,764,cs),
(354,760,o),
(349,759,o),
(342,755,cs),
(213,686,o),
(93,567,o),
(93,374,cs)
);
},
{
closed = 1;
nodes = (
(689,612,o),
(863,541,o),
(863,393,cs),
(863,259,o),
(746,185,o),
(607,185,cs),
(458,185,o),
(327,248,o),
(327,403,cs),
(327,536,o),
(446,636,o),
(531,654,c)
);
},
{
closed = 1;
nodes = (
(370,1178,o),
(482,1244,o),
(602,1244,cs),
(723,1244,o),
(828,1178,o),
(828,1055,cs),
(828,962,o),
(775,875,o),
(640,817,c),
(487,869,o),
(370,947,o),
(370,1055,cs)
);
}
);
width = 1193;
},
{
guides = (
{
pos = (0,374);
},
{
pos = (0,1055);
}
);
layerId = m003;
shapes = (
{
closed = 1;
nodes = (
(93,113,o),
(341,-25,o),
(602,-25,cs),
(850,-25,o),
(1101,139,o),
(1101,393,cs),
(1101,553,o),
(977,673,o),
(848,718,cs),
(836,722,o),
(830,724,o),
(830,727,cs),
(830,730,o),
(834,733,o),
(841,736,cs),
(948,788,o),
(1063,902,o),
(1063,1090,cs),
(1063,1330,o),
(844,1451,o),
(600,1451,cs),
(395,1451,o),
(132,1356,o),
(132,1075,cs),
(132,904,o),
(254,819,o),
(348,772,cs),
(352,770,o),
(354,767,o),
(354,764,cs),
(354,760,o),
(349,759,o),
(342,755,cs),
(213,686,o),
(93,567,o),
(93,374,cs)
);
},
{
closed = 1;
nodes = (
(689,612,o),
(863,541,o),
(863,393,cs),
(863,259,o),
(746,185,o),
(607,185,cs),
(458,185,o),
(327,248,o),
(327,403,cs),
(327,536,o),
(446,636,o),
(531,654,c)
);
},
{
closed = 1;
nodes = (
(370,1178,o),
(482,1244,o),
(602,1244,cs),
(723,1244,o),
(828,1178,o),
(828,1055,cs),
(828,962,o),
(775,875,o),
(640,817,c),
(487,869,o),
(370,947,o),
(370,1055,cs)
);
}
);
width = 1193;
}
);
unicode = 56;
}
{
color = 4;
glyphname = nine;
layers = (
{
layerId = m001;
shapes = (
{
closed = 1;
nodes = (
(58,456,o),
(260,276,o),
(508,276,cs),
(620,276,o),
(762,311,o),
(842,370,c),
(830,141,o),
(734,-50,o),
(489,-50,cs),
(418,-50,o),
(318,-23,o),
(248,22,cs),
(227,36,o),
(210,44,o),
(196,44,cs),
(179,44,o),
(164,33,o),
(147,8,cs),
(100,-60,ls),
(92,-71,o),
(89,-82,o),
(89,-91,cs),
(89,-116,o),
(111,-138,o),
(139,-158,cs),
(218,-214,o),
(355,-265,o),
(485,-265,cs),
(960,-265,o),
(1079,174,o),
(1079,506,cs),
(1079,937,o),
(949,1224,o),
(567,1224,cs),
(287,1224,o),
(58,1034,o),
(58,755,cs)
);
},
{
closed = 1;
nodes = (
(294,909,o),
(406,1013,o),
(553,1013,cs),
(752,1013,o),
(835,842,o),
(835,564,c),
(763,505,o),
(658,481,o),
(564,481,cs),
(385,481,o),
(294,594,o),
(294,752,cs)
);
}
);
width = 1193;
},
{
layerId = m002;
shapes = (
{
closed = 1;
nodes = (
(58,456,o),
(260,276,o),
(508,276,cs),
(620,276,o),
(762,311,o),
(842,370,c),
(830,141,o),
(734,-50,o),
(489,-50,cs),
(418,-50,o),
(318,-23,o),
(248,22,cs),
(227,36,o),
(210,44,o),
(196,44,cs),
(179,44,o),
(164,33,o),
(147,8,cs),
(100,-60,ls),
(92,-71,o),
(89,-82,o),
(89,-91,cs),
(89,-116,o),
(111,-138,o),
(139,-158,cs),
(218,-214,o),
(355,-265,o),
(485,-265,cs),
(960,-265,o),
(1079,174,o),
(1079,506,cs),
(1079,937,o),
(949,1224,o),
(567,1224,cs),
(287,1224,o),
(58,1034,o),
(58,755,cs)
);
},
{
closed = 1;
nodes = (
(294,909,o),
(406,1013,o),
(553,1013,cs),
(752,1013,o),
(835,842,o),
(835,564,c),
(763,505,o),
(658,481,o),
(564,481,cs),
(385,481,o),
(294,594,o),
(294,752,cs)
);
}
);
width = 1193;
},
{
layerId = m003;
shapes = (
{
closed = 1;
nodes = (
(58,456,o),
(260,276,o),
(508,276,cs),
(620,276,o),
(762,311,o),
(842,370,c),
(830,141,o),
(734,-50,o),
(489,-50,cs),
(418,-50,o),
(318,-23,o),
(248,22,cs),
(227,36,o),
(210,44,o),
(196,44,cs),
(179,44,o),
(164,33,o),
(147,8,cs),
(100,-60,ls),
(92,-71,o),
(89,-82,o),
(89,-91,cs),
(89,-116,o),
(111,-138,o),
(139,-158,cs),
(218,-214,o),
(355,-265,o),
(485,-265,cs),
(960,-265,o),
(1079,174,o),
(1079,506,cs),
(1079,937,o),
(949,1224,o),
(567,1224,cs),
(287,1224,o),
(58,1034,o),
(58,755,cs)
);
},
{
closed = 1;
nodes = (
(294,909,o),
(406,1013,o),
(553,1013,cs),
(752,1013,o),
(835,842,o),
(835,564,c),
(763,505,o),
(658,481,o),
(564,481,cs),
(385,481,o),
(294,594,o),
(294,752,cs)
);
}
);
width = 1193;
}
);
unicode = 57;
}
{
color = 4;
glyphname = less;
layers = (
{
layerId = m001;
shapes = (
{
closed = 1;
nodes = (
(1043,112,o),
(1057,108,o),
(1071,108,cs),
(1094,108,o),
(1114,120,o),
(1127,151,cs),
(1153,213,ls),
(1157,223,o),
(1160,234,o),
(1160,243,cs),
(1159,270,o),
(1143,293,o),
(1110,307,cs),
(429,588,l),
(1127,877,ls),
(1160,891,o),
(1174,913,o),
(1174,940,cs),
(1174,952,o),
(1171,966,o),
(1166,979,cs),
(1142,1040,ls),
(1131,1069,o),
(1111,1078,o),
(1089,1078,cs),
(1075,1078,o),
(1060,1074,o),
(1045,1067,cs),
(223,696,ls),
(159,667,o),
(149,616,o),
(149,584,cs),
(149,551,o),
(157,502,o),
(219,475,cs),
(1028,119,ls)
);
}
);
width = 1364;
},
{
layerId = m002;
shapes = (
{
closed = 1;
nodes = (
(1043,112,o),
(1057,108,o),
(1071,108,cs),
(1094,108,o),
(1114,120,o),
(1127,151,cs),
(1153,213,ls),
(1157,223,o),
(1160,234,o),
(1160,243,cs),
(1159,270,o),
(1143,293,o),
(1110,307,cs),
(429,588,l),
(1127,877,ls),
(1160,891,o),
(1174,913,o),
(1174,940,cs),
(1174,952,o),
(1171,966,o),
(1166,979,cs),
(1142,1040,ls),
(1131,1069,o),
(1111,1078,o),
(1089,1078,cs),
(1075,1078,o),
(1060,1074,o),
(1045,1067,cs),
(223,696,ls),
(159,667,o),
(149,616,o),
(149,584,cs),
(149,551,o),
(157,502,o),
(219,475,cs),
(1028,119,ls)
);
}
);
width = 1364;
},
{
layerId = m003;
shapes = (
{
closed = 1;
nodes = (
(1043,112,o),
(1057,108,o),
(1071,108,cs),
(1094,108,o),
(1114,120,o),
(1127,151,cs),
(1153,213,ls),
(1157,223,o),
(1160,234,o),
(1160,243,cs),
(1159,270,o),
(1143,293,o),
(1110,307,cs),
(429,588,l),
(1127,877,ls),
(1160,891,o),
(1174,913,o),
(1174,940,cs),
(1174,952,o),
(1171,966,o),
(1166,979,cs),
(1142,1040,ls),
(1131,1069,o),
(1111,1078,o),
(1089,1078,cs),
(1075,1078,o),
(1060,1074,o),
(1045,1067,cs),
(223,696,ls),
(159,667,o),
(149,616,o),
(149,584,cs),
(149,551,o),
(157,502,o),
(219,475,cs),
(1028,119,ls)
);
}
);
width = 1364;
}
);
unicode = 60;
}
{
color = 4;
glyphname = equal;
layers = (
{
layerId = m001;
shapes = (
{
closed = 1;
nodes = (
(1181,726,o),
(1206,748,o),
(1206,781,cs),
(1206,870,ls),
(1206,901,o),
(1181,923,o),
(1150,923,cs),
(212,923,ls),
(182,923,o),
(157,901,o),
(157,875,cs),
(157,775,ls),
(157,748,o),
(182,726,o),
(212,726,cs),
(1150,726,ls)
);
},
{
closed = 1;
nodes = (
(1181,276,o),
(1206,298,o),
(1206,331,cs),
(1206,420,ls),
(1206,451,o),
(1181,473,o),
(1150,473,cs),
(212,473,ls),
(182,473,o),
(157,451,o),
(157,425,cs),
(157,325,ls),
(157,298,o),
(182,276,o),
(212,276,cs),
(1150,276,ls)
);
}
);
width = 1363;
},
{
layerId = m002;
shapes = (
{
closed = 1;
nodes = (
(1181,726,o),
(1206,748,o),
(1206,781,cs),
(1206,870,ls),
(1206,901,o),
(1181,923,o),
(1150,923,cs),
(212,923,ls),
(182,923,o),
(157,901,o),
(157,875,cs),
(157,775,ls),
(157,748,o),
(182,726,o),
(212,726,cs),
(1150,726,ls)
);
},
{
closed = 1;
nodes = (
(1181,276,o),
(1206,298,o),
(1206,331,cs),
(1206,420,ls),
(1206,451,o),
(1181,473,o),
(1150,473,cs),
(212,473,ls),
(182,473,o),
(157,451,o),
(157,425,cs),
(157,325,ls),
(157,298,o),
(182,276,o),
(212,276,cs),
(1150,276,ls)
);
}
);
width = 1363;
},
{
layerId = m003;
shapes = (
{
closed = 1;
nodes = (
(1181,726,o),
(1206,748,o),
(1206,781,cs),
(1206,870,ls),
(1206,901,o),
(1181,923,o),
(1150,923,cs),
(212,923,ls),
(182,923,o),
(157,901,o),
(157,875,cs),
(157,775,ls),
(157,748,o),
(182,726,o),
(212,726,cs),
(1150,726,ls)
);
},
{
closed = 1;
nodes = (
(1181,276,o),
(1206,298,o),
(1206,331,cs),
(1206,420,ls),
(1206,451,o),
(1181,473,o),
(1150,473,cs),
(212,473,ls),
(182,473,o),
(157,451,o),
(157,425,cs),
(157,325,ls),
(157,298,o),
(182,276,o),
(212,276,cs),
(1150,276,ls)
);
}
);
width = 1363;
}
);
unicode = 61;
}
{
color = 4;
glyphname = question;
layers = (
{
layerId = m001;
shapes = (
{
closed = 1;
nodes = (
(725,54,o),
(648,-25,o),
(555,-25,cs),
(460,-25,o),
(383,54,o),
(383,151,cs),
(383,247,o),
(460,325,o),
(555,325,cs),
(648,325,o),
(725,247,o),
(725,151,cs)
);
},
{
closed = 1;
nodes = (
(474,513,o),
(501,503,o),
(519,503,cs),
(530,503,o),
(540,506,o),
(549,510,cs),
(806,618,o),
(1065,846,o),
(1065,1152,cs),
(1065,1416,o),
(915,1613,o),
(583,1613,cs),
(324,1613,o),
(134,1466,o),
(134,1224,cs),
(134,1166,o),
(155,1103,o),
(242,1103,cs),
(305,1103,ls),
(366,1103,o),
(367,1142,o),
(367,1190,cs),
(367,1337,o),
(449,1407,o),
(582,1407,cs),
(745,1407,o),
(812,1269,o),
(812,1148,cs),
(812,1067,o),
(786,960,o),
(685,854,cs),
(565,727,o),
(429,696,o),
(429,636,cs),
(429,623,o),
(431,613,o),
(436,602,cs)
);
}
);
width = 1199;
},
{
layerId = m002;
shapes = (
{
closed = 1;
nodes = (
(725,54,o),
(648,-25,o),
(555,-25,cs),
(460,-25,o),
(383,54,o),
(383,151,cs),
(383,247,o),
(460,325,o),
(555,325,cs),
(648,325,o),
(725,247,o),
(725,151,cs)
);
},
{
closed = 1;
nodes = (
(474,513,o),
(501,503,o),
(519,503,cs),
(530,503,o),
(540,506,o),
(549,510,cs),
(806,618,o),
(1065,846,o),
(1065,1152,cs),
(1065,1416,o),
(915,1613,o),
(583,1613,cs),
(324,1613,o),
(134,1466,o),
(134,1224,cs),
(134,1166,o),
(155,1103,o),
(242,1103,cs),
(305,1103,ls),
(366,1103,o),
(367,1142,o),
(367,1190,cs),
(367,1337,o),
(449,1407,o),
(582,1407,cs),
(745,1407,o),
(812,1269,o),
(812,1148,cs),
(812,1067,o),
(786,960,o),
(685,854,cs),
(565,727,o),
(429,696,o),
(429,636,cs),
(429,623,o),
(431,613,o),
(436,602,cs)
);
}
);
width = 1199;
},
{
layerId = m003;
shapes = (
{
closed = 1;
nodes = (
(725,54,o),
(648,-25,o),
(555,-25,cs),
(460,-25,o),
(383,54,o),
(383,151,cs),
(383,247,o),
(460,325,o),
(555,325,cs),
(648,325,o),
(725,247,o),
(725,151,cs)
);
},
{
closed = 1;
nodes = (
(474,513,o),
(501,503,o),
(519,503,cs),
(530,503,o),
(540,506,o),
(549,510,cs),
(806,618,o),
(1065,846,o),
(1065,1152,cs),
(1065,1416,o),
(915,1613,o),
(583,1613,cs),
(324,1613,o),
(134,1466,o),
(134,1224,cs),
(134,1166,o),
(155,1103,o),
(242,1103,cs),
(305,1103,ls),
(366,1103,o),
(367,1142,o),
(367,1190,cs),
(367,1337,o),
(449,1407,o),
(582,1407,cs),
(745,1407,o),
(812,1269,o),
(812,1148,cs),
(812,1067,o),
(786,960,o),
(685,854,cs),
(565,727,o),
(429,696,o),
(429,636,cs),
(429,623,o),
(431,613,o),
(436,602,cs)
);
}
);
width = 1199;
}
);
unicode = 63;
}
{
glyphname = at;
layers = (
{
layerId = "997F8AB0-1B91-48A1-A6B5-F95345F1D981";
shapes = (
{
closed = 1;
nodes = (
(1267,-416,o),
(1433,-337,o),
(1481,-308,cs),
(1520,-284,o),
(1543,-263,o),
(1543,-227,cs),
(1543,-213,o),
(1540,-202,o),
(1531,-182,cs),
(1497,-116,ls),
(1475,-72,o),
(1455,-59,o),
(1433,-59,cs),
(1378,-59,o),
(1272,-154,o),
(1008,-154,cs),
(875,-154,o),
(727,-107,o),
(617,-14,cs),
(495,88,o),
(420,248,o),
(420,449,cs),
(420,859,o),
(722,1027,o),
(972,1027,cs),
(1171,1027,o),
(1308,956,o),
(1342,824,cs),
(1347,807,o),
(1349,791,o),
(1351,772,c),
(1254,828,o),
(1147,841,o),
(1071,841,cs),
(865,841,o),
(621,742,o),
(621,455,cs),
(621,200,o),
(842,64,o),
(1055,64,cs),
(1211,64,o),
(1329,124,o),
(1402,206,c),
(1405,195,o),
(1406,173,o),
(1408,154,cs),
(1413,114,o),
(1436,88,o),
(1493,88,cs),
(1602,88,ls),
(1669,88,o),
(1694,130,o),
(1694,175,cs),
(1694,315,o),
(1634,463,o),
(1601,556,c),
(1626,635,o),
(1639,712,o),
(1639,780,cs),
(1639,1107,o),
(1362,1292,o),
(960,1292,cs),
(558,1292,o),
(130,995,o),
(130,449,cs),
(130,177,o),
(228,-47,o),
(402,-199,cs),
(565,-342,o),
(793,-416,o),
(1020,-416,cs)
);
},
{
closed = 1;
nodes = (
(1009,333,o),
(948,377,o),
(948,461,cs),
(948,540,o),
(1028,580,o),
(1098,580,cs),
(1200,580,o),
(1296,537,o),
(1304,462,c),
(1302,407,o),
(1218,333,o),
(1103,333,cs)
);
}
);
width = 1801;
},
{
background = {
shapes = (
{
closed = 1;
nodes = (
(1416,-239,o),
(1423,-233,o),
(1423,-222,cs),
(1423,-216,o),
(1421,-211,o),
(1417,-202,cs),
(1384,-135,ls),
(1374,-114,o),
(1368,-111,o),
(1367,-111,cs),
(1358,-111,o),
(1345,-117,o),
(1321,-130,cs),
(1267,-159,o),
(1174,-209,o),
(958,-209,cs),
(809,-209,o),
(642,-155,o),
(521,-51,cs),
(381,71,o),
(300,253,o),
(300,475,cs),
(300,939,o),
(641,1134,o),
(922,1134,cs),
(1187,1134,o),
(1373,1012,o),
(1373,792,cs),
(1373,773,o),
(1371,753,o),
(1369,734,c),
(1320,718,l),
(1224,799,o),
(1107,818,o),
(1021,818,cs),
(839,818,o),
(641,734,o),
(641,481,cs),
(641,258,o),
(824,140,o),
(1005,140,cs),
(1177,140,o),
(1292,223,o),
(1352,332,c),
(1407,325,l),
(1415,288,o),
(1422,243,o),
(1426,213,cs),
(1431,174,o),
(1425,165,o),
(1455,165,cs),
(1552,165,ls),
(1572,165,o),
(1574,173,o),
(1574,193,cs),
(1574,337,o),
(1509,491,o),
(1478,585,c),
(1506,670,o),
(1519,745,o),
(1519,817,cs),
(1519,1115,o),
(1279,1283,o),
(910,1283,cs),
(541,1283,o),
(150,1001,o),
(150,475,cs),
(150,208,o),
(244,-7,o),
(398,-146,cs),
(550,-284,o),
(760,-355,o),
(970,-355,cs),
(1197,-355,o),
(1348,-282,o),
(1394,-253,cs)
);
},
{
closed = 1;
nodes = (
(1176,673,o),
(1314,614,o),
(1324,491,c),
(1325,401,o),
(1208,294,o),
(1053,294,cs),
(926,294,o),
(828,362,o),
(828,487,cs),
(828,611,o),
(949,673,o),
(1048,673,cs)
);
}
);
};
layerId = m001;
shapes = (
{
closed = 1;
nodes = (
(1188,-380,o),
(1341,-303,o),
(1386,-274,cs),
(1409,-259,o),
(1415,-254,o),
(1415,-244,cs),
(1415,-239,o),
(1413,-234,o),
(1409,-225,cs),
(1376,-150,ls),
(1369,-134,o),
(1365,-132,o),
(1355,-132,cs),
(1322,-132,o),
(1245,-234,o),
(942,-234,cs),
(791,-234,o),
(618,-178,o),
(493,-66,cs),
(349,63,o),
(269,242,o),
(269,470,cs),
(269,955,o),
(618,1159,o),
(906,1159,cs),
(1177,1159,o),
(1368,1031,o),
(1368,800,cs),
(1368,783,o),
(1364,725,o),
(1357,684,c),
(1212,805,o),
(1127,824,o),
(1007,824,cs),
(822,824,o),
(621,737,o),
(621,476,cs),
(621,246,o),
(807,124,o),
(990,124,cs),
(1123,124,o),
(1291,170,o),
(1377,400,c),
(1410,276,o),
(1418,228,o),
(1422,194,cs),
(1426,160,o),
(1420,150,o),
(1449,150,cs),
(1548,150,ls),
(1567,150,o),
(1569,156,o),
(1569,176,cs),
(1569,326,o),
(1503,485,o),
(1471,584,c),
(1500,674,o),
(1513,751,o),
(1513,826,cs),
(1513,1134,o),
(1269,1308,o),
(893,1308,cs),
(518,1308,o),
(120,1015,o),
(120,470,cs),
(120,195,o),
(214,-14,o),
(367,-158,cs),
(523,-305,o),
(740,-380,o),
(955,-380,cs)
);
},
{
closed = 1;
nodes = (
(909,278,o),
(808,350,o),
(808,482,cs),
(808,613,o),
(932,679,o),
(1034,679,cs),
(1166,679,o),
(1308,616,o),
(1318,486,c),
(1319,391,o),
(1199,278,o),
(1039,278,cs)
);
}
);
width = 1666;
},
{
layerId = m002;
shapes = (
{
closed = 1;
nodes = (
(1206,-380,o),
(1364,-303,o),
(1410,-274,cs),
(1435,-258,o),
(1453,-245,o),
(1453,-222,cs),
(1453,-213,o),
(1450,-204,o),
(1444,-191,cs),
(1411,-124,ls),
(1397,-95,o),
(1383,-86,o),
(1367,-86,cs),
(1306,-86,o),
(1260,-184,o),
(958,-184,cs),
(815,-184,o),
(657,-132,o),
(541,-32,cs),
(410,82,o),
(330,257,o),
(330,475,cs),
(330,922,o),
(654,1109,o),
(922,1109,cs),
(1173,1109,o),
(1343,996,o),
(1343,792,cs),
(1343,774,o),
(1341,756,o),
(1339,737,c),
(1237,823,o),
(1110,843,o),
(1021,843,cs),
(829,843,o),
(611,752,o),
(611,481,cs),
(611,242,o),
(810,115,o),
(1005,115,cs),
(1190,115,o),
(1316,207,o),
(1378,320,c),
(1385,285,o),
(1379,228,o),
(1383,198,cs),
(1388,162,o),
(1410,140,o),
(1455,140,cs),
(1552,140,ls),
(1597,140,o),
(1604,168,o),
(1604,193,cs),
(1604,337,o),
(1541,490,o),
(1509,585,c),
(1536,669,o),
(1549,746,o),
(1549,817,cs),
(1549,1130,o),
(1294,1308,o),
(910,1308,cs),
(526,1308,o),
(120,1016,o),
(120,475,cs),
(120,203,o),
(215,-18,o),
(378,-165,cs),
(534,-306,o),
(753,-380,o),
(970,-380,cs)
);
},
{
closed = 1;
nodes = (
(941,319,o),
(858,377,o),
(858,487,cs),
(858,594,o),
(961,648,o),
(1048,648,cs),
(1165,648,o),
(1285,595,o),
(1294,490,c),
(1294,414,o),
(1191,319,o),
(1053,319,cs)
);
}
);
width = 1701;
}
);
unicode = 64;
userData = {
KernOnSpecialSpacing = {
L = symbols;
R = symbols;
};
};
}
{
color = 8;
glyphname = A;
layers = (
{
anchors = (
{
name = bottom;
pos = (774,0);
},
{
name = ogonek;
pos = (1384,10);
},
{
name = top;
pos = (760,1533);
}
);
background = {
shapes = (
{
closed = 1;
nodes = (
(295,0,ls),
(344,0,o),
(380,26,o),
(394,64,cs),
(499,351,l),
(1093,351,l),
(1207,64,ls),
(1223,24,o),
(1254,0,o),
(1308,0,cs),
(1447,0,ls),
(1505,0,o),
(1539,43,o),
(1539,86,cs),
(1539,99,o),
(1537,108,o),
(1533,118,cs),
(993,1419,ls),
(958,1503,o),
(906,1534,o),
(799,1534,cs),
(782,1534,ls),
(680,1534,o),
(615,1518,o),
(574,1412,cs),
(73,118,ls),
(70,110,o),
(68,103,o),
(68,91,cs),
(68,44,o),
(108,0,o),
(167,0,cs)
);
},
{
closed = 1;
nodes = (
(816,1201,l),
(816,1199,o),
(793,1185,o),
(788,1185,cs),
(783,1185,o),
(763,1200,o),
(764,1197,cs),
(982,630,l),
(603,630,l)
);
}
);
};
layerId = "997F8AB0-1B91-48A1-A6B5-F95345F1D981";
shapes = (
{
closed = 1;
nodes = (
(265,0,ls),
(309,0,o),
(347,22,o),
(362,63,cs),
(468,352,l),
(1066,352,l),
(1180,63,ls),
(1195,25,o),
(1224,0,o),
(1279,0,cs),
(1418,0,ls),
(1474,0,o),
(1507,42,o),
(1507,84,cs),
(1507,97,o),
(1506,105,o),
(1502,115,cs),
(961,1420,ls),
(927,1502,o),
(877,1534,o),
(770,1534,cs),
(753,1534,ls),
(652,1534,o),
(588,1519,o),
(547,1413,cs),
(46,115,ls),
(43,107,o),
(41,101,o),
(41,89,cs),
(41,43,o),
(80,0,o),
(137,0,cs)
);
},
{
closed = 1;
nodes = (
(749,1130,ls),
(752,1138,o),
(756,1140,o),
(760,1140,cs),
(763,1140,o),
(770,1138,o),
(773,1130,cs),
(957,627,l),
(569,627,l)
);
}
);
width = 1547;
},
{
anchors = (
{
name = bottom;
pos = (739,0);
},
{
name = ogonek;
pos = (1353,10);
},
{
name = top;
pos = (739,1533);
}
);
background = {
shapes = (
{
closed = 1;
nodes = (
(1222,20,o),
(1236,0,o),
(1277,0,cs),
(1417,0,ls),
(1454,0,o),
(1469,28,o),
(1469,52,cs),
(1469,59,o),
(1468,66,o),
(1466,71,cs),
(923,1433,ls),
(893,1509,o),
(855,1533,o),
(764,1533,cs),
(747,1533,ls),
(652,1533,o),
(610,1520,o),
(576,1430,cs),
(71,72,ls),
(69,67,o),
(68,62,o),
(68,57,cs),
(68,30,o),
(89,0,o),
(127,0,cs),
(256,0,ls),
(291,0,o),
(309,19,o),
(317,43,cs),
(432,368,l),
(1089,368,l),
(1213,43,ls)
);
},
{
closed = 1;
nodes = (
(744,1241,o),
(748,1244,o),
(753,1244,cs),
(758,1244,o),
(764,1240,o),
(766,1234,cs),
(1005,584,l),
(510,584,l),
(742,1234,ls)
);
}
);
};
guides = (
{
pos = (-30,70);
},
{
pos = (-30,362);
},
{
pos = (-30,404);
},
{
pos = (-30,1368);
},
{
pos = (-30,1510);
}
);
layerId = m001;
shapes = (
{
closed = 1;
nodes = (
(196,0,ls),
(230,0,o),
(247,19,o),
(255,43,cs),
(377,385,l),
(1091,385,l),
(1221,43,ls),
(1229,20,o),
(1243,0,o),
(1283,0,cs),
(1359,0,ls),
(1394,0,o),
(1409,28,o),
(1409,52,cs),
(1409,59,o),
(1408,66,o),
(1399,89,cs),
(865,1433,ls),
(835,1509,o),
(801,1533,o),
(745,1533,cs),
(717,1533,ls),
(656,1533,o),
(616,1520,o),
(584,1430,cs),
(77,89,ls),
(69,67,o),
(68,62,o),
(68,57,cs),
(68,30,o),
(88,0,o),
(125,0,cs)
);
},
{
closed = 1;
nodes = (
(712,1313,ls),
(715,1320,o),
(718,1323,o),
(723,1323,cs),
(727,1323,o),
(733,1319,o),
(735,1313,cs),
(1038,536,l),
(422,536,l)
);
}
);
width = 1477;
},
{
anchors = (
{
name = bottom;
pos = (768,0);
},
{
name = ogonek;
pos = (1382,10);
},
{
name = top;
pos = (768,1533);
}
);
guides = (
{
pos = (0,70);
},
{
pos = (0,362);
},
{
pos = (0,404);
},
{
pos = (0,1368);
},
{
pos = (0,1510);
}
);
layerId = m002;
shapes = (
{
closed = 1;
nodes = (
(256,0,ls),
(291,0,o),
(309,19,o),
(317,43,cs),
(432,368,l),
(1089,368,l),
(1213,43,ls),
(1222,20,o),
(1236,0,o),
(1277,0,cs),
(1417,0,ls),
(1454,0,o),
(1469,28,o),
(1469,52,cs),
(1469,59,o),
(1468,66,o),
(1466,71,cs),
(923,1433,ls),
(893,1509,o),
(855,1533,o),
(764,1533,cs),
(747,1533,ls),
(652,1533,o),
(610,1520,o),
(576,1430,cs),
(71,72,ls),
(69,67,o),
(68,62,o),
(68,57,cs),
(68,30,o),
(89,0,o),
(127,0,cs)
);
},
{
closed = 1;
nodes = (
(742,1234,ls),
(744,1241,o),
(748,1244,o),
(753,1244,cs),
(758,1244,o),
(764,1240,o),
(766,1234,cs),
(1005,584,l),
(510,584,l)
);
}
);
width = 1536;
}
);
unicode = 65;
userData = {
KernOnName = A;
KernOnSpecialSpacing = {
L = diagonal;
R = diagonal;
};
};
}
{
color = 4;
glyphname = B;
layers = (
{
anchors = (
{
name = bottom;
pos = (761,0);
},
{
name = center;
pos = (380,383);
},
{
name = top;
pos = (761,1533);
}
);
guides = (
{
angle = 90;
pos = (702,0);
}
);
layerId = m001;
shapes = (
{
closed = 1;
nodes = (
(238,40,o),
(260,0,o),
(315,0,cs),
(804,0,ls),
(1121,0,o),
(1387,126,o),
(1387,460,cs),
(1387,692,o),
(1202,799,o),
(1018,807,c),
(1018,811,l),
(1155,839,o),
(1282,949,o),
(1282,1147,cs),
(1282,1441,o),
(1003,1533,o),
(780,1533,cs),
(315,1533,ls),
(260,1533,o),
(238,1493,o),
(238,1447,cs),
(238,86,l)
);
},
{
closed = 1;
nodes = (
(722,1322,ls),
(923,1322,o),
(1027,1262,o),
(1027,1129,cs),
(1027,978,o),
(933,899,o),
(729,887,cs),
(648,882,o),
(566,881,o),
(486,881,c),
(486,1322,l)
);
},
{
closed = 1;
nodes = (
(559,683,ls),
(615,685,o),
(668,688,o),
(725,688,cs),
(905,688,o),
(1120,663,o),
(1121,456,cs),
(1121,265,o),
(963,213,o),
(802,213,cs),
(487,213,l),
(486,680,l)
);
}
);
width = 1521;
},
{
anchors = (
{
name = bottom;
pos = (761,0);
},
{
name = center;
pos = (380,383);
},
{
name = top;
pos = (761,1533);
}
);
guides = (
{
angle = 90;
pos = (702,0);
}
);
layerId = m002;
shapes = (
{
closed = 1;
nodes = (
(238,40,o),
(260,0,o),
(315,0,cs),
(804,0,ls),
(1121,0,o),
(1387,126,o),
(1387,460,cs),
(1387,692,o),
(1202,799,o),
(1018,807,c),
(1018,811,l),
(1155,839,o),
(1282,949,o),
(1282,1147,cs),
(1282,1441,o),
(1003,1533,o),
(780,1533,cs),
(315,1533,ls),
(260,1533,o),
(238,1493,o),
(238,1447,cs),
(238,86,l)
);
},
{
closed = 1;
nodes = (
(722,1322,ls),
(923,1322,o),
(1027,1262,o),
(1027,1129,cs),
(1027,978,o),
(933,899,o),
(729,887,cs),
(648,882,o),
(566,881,o),
(486,881,c),
(486,1322,l)
);
},
{
closed = 1;
nodes = (
(559,683,ls),
(615,685,o),
(668,688,o),
(725,688,cs),
(905,688,o),
(1120,663,o),
(1121,456,cs),
(1121,265,o),
(963,213,o),
(802,213,cs),
(487,213,l),
(486,680,l)
);
}
);
width = 1521;
},
{
anchors = (
{
name = bottom;
pos = (761,0);
},
{
name = center;
pos = (380,383);
},
{
name = top;
pos = (761,1533);
}
);
guides = (
{
angle = 90;
pos = (702,0);
}
);
layerId = m003;
shapes = (
{
closed = 1;
nodes = (
(238,40,o),
(260,0,o),
(315,0,cs),
(804,0,ls),
(1121,0,o),
(1387,126,o),
(1387,460,cs),
(1387,692,o),
(1202,799,o),
(1018,807,c),
(1018,811,l),
(1155,839,o),
(1282,949,o),
(1282,1147,cs),
(1282,1441,o),
(1003,1533,o),
(780,1533,cs),
(315,1533,ls),
(260,1533,o),
(238,1493,o),
(238,1447,cs),
(238,86,l)
);
},
{
closed = 1;
nodes = (
(722,1322,ls),
(923,1322,o),
(1027,1262,o),
(1027,1129,cs),
(1027,978,o),
(933,899,o),
(729,887,cs),
(648,882,o),
(566,881,o),
(486,881,c),
(486,1322,l)
);
},
{
closed = 1;
nodes = (
(559,683,ls),
(615,685,o),
(668,688,o),
(725,688,cs),
(905,688,o),
(1120,663,o),
(1121,456,cs),
(1121,265,o),
(963,213,o),
(802,213,cs),
(487,213,l),
(486,680,l)
);
}
);
width = 1521;
}
);
unicode = 66;
}
{
color = 9;
glyphname = C;
layers = (
{
anchors = (
{
name = bottom;
pos = (787,0);
},
{
name = top;
pos = (829,1533);
}
);
layerId = "997F8AB0-1B91-48A1-A6B5-F95345F1D981";
shapes = (
{
closed = 1;
nodes = (
(1018,-25,o),
(1129,15,o),
(1204,67,cs),
(1297,131,o),
(1347,197,o),
(1347,234,cs),
(1347,256,o),
(1344,272,o),
(1281,338,cs),
(1260,359,o),
(1240,385,o),
(1202,385,cs),
(1173,385,o),
(1152,368,o),
(1106,331,cs),
(1052,289,o),
(974,260,o),
(863,260,cs),
(742,260,o),
(635,309,o),
(556,392,cs),
(459,494,o),
(434,639,o),
(434,781,cs),
(434,1099,o),
(607,1279,o),
(818,1279,cs),
(927,1279,o),
(1021,1244,o),
(1030,1148,cs),
(1037,1066,o),
(1093,1032,o),
(1165,1032,cs),
(1208,1032,ls),
(1321,1032,o),
(1357,1106,o),
(1357,1187,cs),
(1357,1454,o),
(1060,1558,o),
(831,1558,cs),
(372,1558,o),
(84,1216,o),
(84,781,cs),
(84,283,o),
(419,-25,o),
(851,-25,cs)
);
}
);
width = 1378;
},
{
anchors = (
{
name = bottom;
pos = (755,0);
},
{
name = top;
pos = (812,1533);
}
);
background = {
shapes = (
{
closed = 1;
nodes = (
(925,-24,o),
(1017,-12,o),
(1099,14,cs),
(1175,38,o),
(1266,88,o),
(1266,137,cs),
(1266,156,o),
(1259,171,o),
(1241,209,cs),
(1232,226,o),
(1225,235,o),
(1208,235,cs),
(1189,235,o),
(1158,216,o),
(1121,198,cs),
(1037,157,o),
(950,138,o),
(850,138,cs),
(710,138,o),
(581,186,o),
(485,295,cs),
(366,430,o),
(328,623,o),
(328,786,cs),
(328,1100,o),
(469,1401,o),
(792,1401,cs),
(944,1401,o),
(1092,1345,o),
(1099,1181,cs),
(1100,1159,o),
(1110,1132,o),
(1134,1132,cs),
(1203,1132,ls),
(1266,1132,o),
(1279,1169,o),
(1279,1224,cs),
(1279,1463,o),
(1036,1559,o),
(798,1559,cs),
(391,1559,o),
(125,1247,o),
(125,775,cs),
(125,318,o),
(375,-24,o),
(828,-24,cs)
);
},
{
closed = 1;
nodes = (
(949,-24,o),
(1075,9,o),
(1165,76,cs),
(1235,129,o),
(1274,170,o),
(1274,202,cs),
(1274,220,o),
(1256,236,o),
(1222,273,cs),
(1212,284,o),
(1203,292,o),
(1187,292,cs),
(1171,292,o),
(1162,284,o),
(1147,267,cs),
(1079,194,o),
(975,138,o),
(832,138,cs),
(684,138,o),
(567,186,o),
(471,295,cs),
(352,430,o),
(314,623,o),
(314,786,cs),
(314,1100,o),
(459,1401,o),
(792,1401,cs),
(944,1401,o),
(1075,1345,o),
(1098,1205,cs),
(1107,1150,o),
(1139,1132,o),
(1176,1132,cs),
(1203,1132,ls),
(1266,1132,o),
(1279,1169,o),
(1279,1224,cs),
(1279,1463,o),
(1036,1559,o),
(798,1559,cs),
(381,1559,o),
(111,1247,o),
(111,775,cs),
(111,318,o),
(357,-24,o),
(810,-24,cs)
);
}
);
};
guides = (
{
pos = (-10,329);
},
{
angle = 90;
pos = (812,0);
}
);
layerId = m001;
shapes = (
{
closed = 1;
nodes = (
(934,-24,o),
(1034,3,o),
(1120,50,cs),
(1193,90,o),
(1281,161,o),
(1281,202,cs),
(1281,224,o),
(1257,255,o),
(1240,273,cs),
(1223,291,o),
(1215,297,o),
(1201,297,cs),
(1180,297,o),
(1162,283,o),
(1132,258,cs),
(1062,200,o),
(977,138,o),
(821,138,cs),
(647,138,o),
(516,211,o),
(429,326,cs),
(342,441,o),
(298,598,o),
(298,766,cs),
(298,1100,o),
(461,1401,o),
(796,1401,cs),
(945,1401,o),
(1083,1342,o),
(1099,1194,cs),
(1104,1150,o),
(1127,1132,o),
(1156,1132,cs),
(1203,1132,ls),
(1266,1132,o),
(1279,1169,o),
(1279,1224,cs),
(1279,1463,o),
(1034,1559,o),
(802,1559,cs),
(384,1559,o),
(98,1246,o),
(98,765,cs),
(98,318,o),
(368,-24,o),
(810,-24,cs)
);
}
);
width = 1331;
},
{
anchors = (
{
name = bottom;
pos = (778,0);
},
{
name = top;
pos = (810,1533);
}
);
background = {
shapes = (
{
closed = 1;
nodes = (
(935,-25,o),
(1024,-14,o),
(1108,12,cs),
(1183,34,o),
(1298,82,o),
(1298,173,cs),
(1298,188,o),
(1291,208,o),
(1276,237,cs),
(1254,280,o),
(1239,289,o),
(1214,289,cs),
(1184,289,o),
(1146,270,o),
(1108,251,cs),
(1024,211,o),
(945,196,o),
(856,196,cs),
(723,196,o),
(602,241,o),
(514,337,cs),
(406,457,o),
(382,630,o),
(382,782,cs),
(382,1075,o),
(494,1343,o),
(811,1343,cs),
(932,1343,o),
(1059,1298,o),
(1066,1163,cs),
(1068,1120,o),
(1093,1084,o),
(1135,1084,cs),
(1204,1084,ls),
(1296,1084,o),
(1314,1146,o),
(1314,1208,cs),
(1314,1459,o),
(1042,1560,o),
(824,1560,cs),
(372,1560,o),
(111,1244,o),
(111,782,cs),
(111,319,o),
(365,-25,o),
(823,-25,cs)
);
}
);
};
guides = (
{
pos = (0,329);
},
{
angle = 90;
pos = (822,0);
}
);
layerId = m002;
shapes = (
{
closed = 1;
nodes = (
(935,-25,o),
(1037,-4,o),
(1135,43,cs),
(1230,90,o),
(1299,168,o),
(1299,206,cs),
(1299,221,o),
(1286,243,o),
(1242,297,cs),
(1229,313,o),
(1217,326,o),
(1193,326,cs),
(1171,326,o),
(1158,313,o),
(1124,286,cs),
(1047,225,o),
(975,196,o),
(856,196,cs),
(723,196,o),
(602,241,o),
(514,337,cs),
(406,457,o),
(382,630,o),
(382,782,cs),
(382,1075,o),
(494,1343,o),
(811,1343,cs),
(932,1343,o),
(1059,1298,o),
(1065,1173,cs),
(1068,1114,o),
(1112,1084,o),
(1153,1084,cs),
(1204,1084,ls),
(1296,1084,o),
(1314,1146,o),
(1314,1208,cs),
(1314,1459,o),
(1042,1560,o),
(824,1560,cs),
(372,1560,o),
(111,1244,o),
(111,782,cs),
(111,319,o),
(365,-25,o),
(823,-25,cs)
);
}
);
width = 1362;
}
);
unicode = 67;
userData = {
KernOnName = C;
};
}
{
color = 4;
glyphname = D;
layers = (
{
anchors = (
{
name = bottom;
pos = (785,0);
},
{
name = center;
pos = (401,767);
},
{
name = top;
pos = (785,1533);
}
);
guides = (
{
pos = (18,238);
},
{
pos = (18,703);
},
{
pos = (18,1213);
},
{
pos = (18,771);
},
{
angle = 90;
pos = (782,0);
}
);
layerId = m001;
shapes = (
{
closed = 1;
nodes = (
(1147,0,o),
(1448,302,o),
(1448,800,cs),
(1448,1255,o),
(1202,1533,o),
(662,1533,cs),
(345,1533,ls),
(289,1533,o),
(256,1493,o),
(256,1446,cs),
(256,88,ls),
(256,41,o),
(289,0,o),
(345,0,cs),
(644,0,ls)
);
},
{
closed = 1;
nodes = (
(507,1310,l),
(599,1312,o),
(645,1313,o),
(692,1313,cs),
(1012,1313,o),
(1181,1128,o),
(1181,800,cs),
(1181,426,o),
(1030,218,o),
(676,218,cs),
(670,218,o),
(664,218,o),
(507,221,cs)
);
}
);
width = 1551;
},
{
anchors = (
{
name = bottom;
pos = (755,0);
},
{
name = center;
pos = (371,767);
},
{
name = top;
pos = (755,1533);
}
);
guides = (
{
pos = (-12,238);
},
{
pos = (-12,703);
},
{
pos = (-12,1213);
},
{
pos = (-12,771);
},
{
angle = 90;
pos = (752,0);
}
);
layerId = m002;
shapes = (
{
closed = 1;
nodes = (
(1117,0,o),
(1418,302,o),
(1418,800,cs),
(1418,1255,o),
(1172,1533,o),
(632,1533,cs),
(315,1533,ls),
(259,1533,o),
(226,1493,o),
(226,1446,cs),
(226,88,ls),
(226,41,o),
(259,0,o),
(315,0,cs),
(614,0,ls)
);
},
{
closed = 1;
nodes = (
(477,1310,l),
(569,1312,o),
(615,1313,o),
(662,1313,cs),
(982,1313,o),
(1151,1128,o),
(1151,800,cs),
(1151,426,o),
(1000,218,o),
(646,218,cs),
(640,218,o),
(634,218,o),
(477,221,cs)
);
}
);
width = 1521;
},
{
anchors = (
{
name = bottom;
pos = (719,0);
},
{
name = center;
pos = (335,767);
},
{
name = top;
pos = (719,1533);
}
);
guides = (
{
pos = (-48,238);
},
{
pos = (-48,703);
},
{
pos = (-48,1213);
},
{
pos = (-48,771);
},
{
angle = 90;
pos = (716,0);
}
);
layerId = m003;
shapes = (
{
closed = 1;
nodes = (
(1081,0,o),
(1382,302,o),
(1382,800,cs),
(1382,1255,o),
(1136,1533,o),
(596,1533,cs),
(279,1533,ls),
(223,1533,o),
(190,1493,o),
(190,1446,cs),
(190,88,ls),
(190,41,o),
(223,0,o),
(279,0,cs),
(578,0,ls)
);
},
{
closed = 1;
nodes = (
(441,1310,l),
(533,1312,o),
(579,1313,o),
(626,1313,cs),
(946,1313,o),
(1115,1128,o),
(1115,800,cs),
(1115,426,o),
(964,218,o),
(610,218,cs),
(604,218,o),
(598,218,o),
(441,221,cs)
);
}
);
width = 1485;
}
);
metricLeft = H;
unicode = 68;
}
{
color = 4;
glyphname = E;
layers = (
{
anchors = (
{
name = bottom;
pos = (745,0);
},
{
name = ogonek;
pos = (1218,10);
},
{
name = top;
pos = (730,1533);
},
{
name = topleft;
pos = (12,1533);
}
);
guides = (
{
angle = 90;
pos = (722,0);
}
);
layerId = m001;
shapes = (
{
closed = 1;
nodes = (
(1201,0,o),
(1219,25,o),
(1219,56,cs),
(1219,114,ls),
(1219,146,o),
(1201,171,o),
(1166,171,cs),
(427,171,l),
(427,673,l),
(1021,673,ls),
(1056,673,o),
(1074,698,o),
(1074,729,cs),
(1074,787,ls),
(1074,819,o),
(1056,844,o),
(1021,844,cs),
(427,844,l),
(427,1362,l),
(1161,1362,ls),
(1196,1362,o),
(1214,1387,o),
(1214,1418,cs),
(1214,1476,ls),
(1214,1508,o),
(1196,1533,o),
(1161,1533,cs),
(312,1533,ls),
(281,1533,o),
(256,1504,o),
(256,1469,cs),
(256,64,ls),
(256,29,o),
(281,0,o),
(311,0,cs),
(1166,0,l)
);
}
);
width = 1354;
},
{
anchors = (
{
name = bottom;
pos = (745,0);
},
{
name = ogonek;
pos = (1218,10);
},
{
name = top;
pos = (730,1533);
},
{
name = topleft;
pos = (12,1533);
}
);
guides = (
{
angle = 90;
pos = (722,0);
}
);
layerId = m002;
shapes = (
{
closed = 1;
nodes = (
(1201,0,o),
(1219,25,o),
(1219,56,cs),
(1219,164,ls),
(1219,196,o),
(1201,221,o),
(1166,221,cs),
(477,221,l),
(477,653,l),
(1021,653,ls),
(1056,653,o),
(1074,678,o),
(1074,709,cs),
(1074,817,ls),
(1074,849,o),
(1056,874,o),
(1021,874,cs),
(477,874,l),
(477,1312,l),
(1161,1312,ls),
(1196,1312,o),
(1214,1337,o),
(1214,1368,cs),
(1214,1476,ls),
(1214,1508,o),
(1196,1533,o),
(1161,1533,cs),
(282,1533,ls),
(251,1533,o),
(226,1504,o),
(226,1469,cs),
(226,64,ls),
(226,29,o),
(251,0,o),
(281,0,cs),
(1166,0,l)
);
}
);
width = 1354;
},
{
anchors = (
{
name = bottom;
pos = (729,0);
},
{
name = ogonek;
pos = (1202,10);
},
{
name = top;
pos = (714,1533);
},
{
name = topleft;
pos = (-4,1533);
}
);
background = {
shapes = (
{
closed = 1;
nodes = (
(1185,0,o),
(1203,25,o),
(1203,56,cs),
(1203,164,ls),
(1203,196,o),
(1185,221,o),
(1150,221,cs),
(461,221,l),
(461,653,l),
(1005,653,ls),
(1040,653,o),
(1058,678,o),
(1058,709,cs),
(1058,817,ls),
(1058,849,o),
(1040,874,o),
(1005,874,cs),
(461,874,l),
(461,1312,l),
(1145,1312,ls),
(1180,1312,o),
(1198,1337,o),
(1198,1368,cs),
(1198,1476,ls),
(1198,1508,o),
(1180,1533,o),
(1145,1533,cs),
(266,1533,ls),
(235,1533,o),
(210,1504,o),
(210,1469,cs),
(210,64,ls),
(210,29,o),
(235,0,o),
(265,0,cs),
(1150,0,l)
);
}
);
};
guides = (
{
angle = 90;
pos = (706,0);
}
);
layerId = m003;
shapes = (
{
closed = 1;
nodes = (
(1185,0,o),
(1203,25,o),
(1203,56,cs),
(1203,244,ls),
(1203,276,o),
(1185,301,o),
(1150,301,cs),
(561,301,l),
(561,623,l),
(1005,623,ls),
(1040,623,o),
(1058,648,o),
(1058,679,cs),
(1058,857,ls),
(1058,889,o),
(1040,914,o),
(1005,914,cs),
(561,914,l),
(561,1232,l),
(1145,1232,ls),
(1180,1232,o),
(1198,1257,o),
(1198,1288,cs),
(1198,1476,ls),
(1198,1508,o),
(1180,1533,o),
(1145,1533,cs),
(246,1533,ls),
(215,1533,o),
(190,1504,o),
(190,1469,cs),
(190,64,ls),
(190,29,o),
(215,0,o),
(245,0,cs),
(1150,0,l)
);
}
);
width = 1338;
}
);
metricLeft = H;
unicode = 69;
}
{
glyphname = F;
layers = (
{
anchors = (
{
name = bottom;
pos = (603,0);
},
{
name = top;
pos = (705,1533);
}
);
layerId = "997F8AB0-1B91-48A1-A6B5-F95345F1D981";
shapes = (
{
closed = 1;
nodes = (
(428,0,ls),
(493,0,o),
(537,48,o),
(537,111,cs),
(537,565,l),
(972,565,ls),
(1037,565,o),
(1081,613,o),
(1081,676,cs),
(1081,738,ls),
(1081,801,o),
(1037,849,o),
(972,849,cs),
(538,849,l),
(538,1249,l),
(1091,1249,ls),
(1156,1249,o),
(1200,1297,o),
(1200,1360,cs),
(1200,1422,ls),
(1200,1485,o),
(1156,1533,o),
(1091,1533,cs),
(318,1533,ls),
(253,1533,o),
(209,1485,o),
(209,1422,cs),
(209,111,ls),
(209,48,o),
(253,0,o),
(318,0,cs)
);
}
);
width = 1206;
},
{
anchors = (
{
name = bottom;
pos = (565,0);
},
{
name = top;
pos = (666,1533);
}
);
guides = (
{
angle = 90;
pos = (683,0);
}
);
layerId = m001;
shapes = (
{
closed = 1;
nodes = (
(379,0,ls),
(410,0,o),
(422,18,o),
(422,52,cs),
(422,622,l),
(930,622,ls),
(961,622,o),
(973,640,o),
(973,674,cs),
(973,732,ls),
(973,766,o),
(961,784,o),
(930,784,cs),
(423,784,l),
(423,1370,l),
(1050,1370,ls),
(1081,1370,o),
(1093,1388,o),
(1093,1422,cs),
(1093,1481,ls),
(1093,1515,o),
(1081,1533,o),
(1050,1533,cs),
(283,1533,ls),
(252,1533,o),
(240,1515,o),
(240,1481,cs),
(240,52,ls),
(240,18,o),
(252,0,o),
(283,0,cs)
);
}
);
width = 1130;
},
{
anchors = (
{
name = bottom;
pos = (595,0);
},
{
name = top;
pos = (696,1533);
}
);
guides = (
{
angle = 90;
pos = (713,0);
}
);
layerId = m002;
shapes = (
{
closed = 1;
nodes = (
(431,0,ls),
(461,0,o),
(486,29,o),
(486,64,cs),
(486,593,l),
(982,593,ls),
(1012,593,o),
(1037,622,o),
(1037,657,cs),
(1037,750,ls),
(1037,785,o),
(1012,814,o),
(982,814,cs),
(487,814,l),
(487,1311,l),
(1102,1311,ls),
(1132,1311,o),
(1157,1340,o),
(1157,1375,cs),
(1157,1469,ls),
(1157,1504,o),
(1132,1533,o),
(1102,1533,cs),
(291,1533,ls),
(261,1533,o),
(236,1504,o),
(236,1469,cs),
(236,64,ls),
(236,29,o),
(261,0,o),
(291,0,cs)
);
}
);
width = 1190;
}
);
unicode = 70;
userData = {
KernOnName = F;
};
}
{
color = 4;
glyphname = G;
layers = (
{
anchors = (
{
name = bottom;
pos = (767,0);
},
{
name = top;
pos = (857,1533);
}
);
guides = (
{
pos = (0,199);
},
{
pos = (0,-25);
},
{
angle = 90;
pos = (809,0);
}
);
layerId = m001;
shapes = (
{
closed = 1;
nodes = (
(431,1558,o),
(139,1264,o),
(139,783,cs),
(139,277,o),
(420,-25,o),
(828,-25,cs),
(1265,-25,o),
(1398,217,o),
(1398,352,cs),
(1398,500,o),
(1318,579,o),
(1235,617,c),
(1381,617,l),
(1412,617,o),
(1437,635,o),
(1437,661,cs),
(1437,770,ls),
(1437,803,o),
(1419,819,o),
(1381,819,cs),
(913,819,ls),
(883,819,o),
(858,797,o),
(858,770,cs),
(858,735,ls),
(858,680,o),
(898,652,o),
(941,641,cs),
(1104,600,o),
(1153,487,o),
(1153,405,cs),
(1153,298,o),
(1072,199,o),
(841,199,cs),
(526,199,o),
(408,484,o),
(408,783,cs),
(408,1100,o),
(550,1341,o),
(849,1341,cs),
(1083,1341,o),
(1149,1231,o),
(1157,1164,cs),
(1162,1121,o),
(1166,1085,o),
(1212,1085,cs),
(1298,1085,ls),
(1405,1085,o),
(1405,1167,o),
(1405,1203,cs),
(1405,1344,o),
(1243,1558,o),
(858,1558,cs)
);
}
);
width = 1533;
},
{
anchors = (
{
name = bottom;
pos = (767,0);
},
{
name = top;
pos = (857,1533);
}
);
guides = (
{
pos = (0,199);
},
{
pos = (0,-25);
},
{
angle = 90;
pos = (809,0);
}
);
layerId = m002;
shapes = (
{
closed = 1;
nodes = (
(431,1558,o),
(139,1264,o),
(139,783,cs),
(139,277,o),
(420,-25,o),
(828,-25,cs),
(1265,-25,o),
(1398,217,o),
(1398,352,cs),
(1398,500,o),
(1318,579,o),
(1235,617,c),
(1381,617,l),
(1412,617,o),
(1437,635,o),
(1437,661,cs),
(1437,770,ls),
(1437,803,o),
(1419,819,o),
(1381,819,cs),
(913,819,ls),
(883,819,o),
(858,797,o),
(858,770,cs),
(858,735,ls),
(858,680,o),
(898,652,o),
(941,641,cs),
(1104,600,o),
(1153,487,o),
(1153,405,cs),
(1153,298,o),
(1072,199,o),
(841,199,cs),
(526,199,o),
(408,484,o),
(408,783,cs),
(408,1100,o),
(550,1341,o),
(849,1341,cs),
(1083,1341,o),
(1149,1231,o),
(1157,1164,cs),
(1162,1121,o),
(1166,1085,o),
(1212,1085,cs),
(1298,1085,ls),
(1405,1085,o),
(1405,1167,o),
(1405,1203,cs),
(1405,1344,o),
(1243,1558,o),
(858,1558,cs)
);
}
);
width = 1533;
},
{
anchors = (
{
name = bottom;
pos = (767,0);
},
{
name = top;
pos = (857,1533);
}
);
guides = (
{
pos = (0,199);
},
{
pos = (0,-25);
},
{
angle = 90;
pos = (809,0);
}
);
layerId = m003;
shapes = (
{
closed = 1;
nodes = (
(431,1558,o),
(139,1264,o),
(139,783,cs),
(139,277,o),
(420,-25,o),
(828,-25,cs),
(1265,-25,o),
(1398,217,o),
(1398,352,cs),
(1398,500,o),
(1318,579,o),
(1235,617,c),
(1381,617,l),
(1412,617,o),
(1437,635,o),
(1437,661,cs),
(1437,770,ls),
(1437,803,o),
(1419,819,o),
(1381,819,cs),
(913,819,ls),
(883,819,o),
(858,797,o),
(858,770,cs),
(858,735,ls),
(858,680,o),
(898,652,o),
(941,641,cs),
(1104,600,o),
(1153,487,o),
(1153,405,cs),
(1153,298,o),
(1072,199,o),
(841,199,cs),
(526,199,o),
(408,484,o),
(408,783,cs),
(408,1100,o),
(550,1341,o),
(849,1341,cs),
(1083,1341,o),
(1149,1231,o),
(1157,1164,cs),
(1162,1121,o),
(1166,1085,o),
(1212,1085,cs),
(1298,1085,ls),
(1405,1085,o),
(1405,1167,o),
(1405,1203,cs),
(1405,1344,o),
(1243,1558,o),
(858,1558,cs)
);
}
);
width = 1533;
}
);
unicode = 71;
}
{
color = 4;
glyphname = H;
layers = (
{
anchors = (
{
name = bottom;
pos = (850,0);
},
{
name = center;
pos = (850,1150);
},
{
name = top;
pos = (850,1533);
},
{
name = topleft;
pos = (20,1533);
}
);
background = {
shapes = (
{
closed = 1;
nodes = (
(477,650,l),
(1222,650,l),
(1222,65,ls),
(1222,30,o),
(1247,1,o),
(1277,1,cs),
(1417,1,ls),
(1448,1,o),
(1473,30,o),
(1473,65,cs),
(1473,1469,ls),
(1473,1504,o),
(1448,1533,o),
(1418,1533,cs),
(1278,1533,ls),
(1247,1533,o),
(1222,1504,o),
(1222,1469,cs),
(1222,871,l),
(477,871,l),
(477,1469,ls),
(477,1504,o),
(452,1533,o),
(422,1533,cs),
(282,1533,ls),
(251,1533,o),
(226,1504,o),
(226,1469,cs),
(226,64,ls),
(226,29,o),
(251,0,o),
(281,0,cs),
(421,0,ls),
(452,0,o),
(477,29,o),
(477,64,c)
);
}
);
};
guides = (
{
pos = (0,-141);
},
{
pos = (0,2053);
},
{
pos = (0,1636);
},
{
angle = 90;
pos = (850,0);
}
);
layerId = m001;
shapes = (
{
closed = 1;
nodes = (
(447,690,l),
(1252,690,l),
(1252,65,ls),
(1252,30,o),
(1277,1,o),
(1307,1,cs),
(1387,1,ls),
(1418,1,o),
(1443,30,o),
(1443,65,cs),
(1443,1469,ls),
(1443,1504,o),
(1418,1533,o),
(1388,1533,cs),
(1308,1533,ls),
(1277,1533,o),
(1252,1504,o),
(1252,1469,cs),
(1252,851,l),
(447,851,l),
(447,1469,ls),
(447,1504,o),
(422,1533,o),
(392,1533,cs),
(312,1533,ls),
(281,1533,o),
(256,1504,o),
(256,1469,cs),
(256,64,ls),
(256,29,o),
(281,0,o),
(311,0,cs),
(391,0,ls),
(422,0,o),
(447,29,o),
(447,64,c)
);
}
);
width = 1699;
},
{
anchors = (
{
name = bottom;
pos = (850,0);
},
{
name = center;
pos = (850,1150);
},
{
name = top;
pos = (850,1533);
},
{
name = topleft;
pos = (20,1533);
}
);
guides = (
{
pos = (0,-141);
},
{
pos = (0,2053);
},
{
pos = (0,1636);
},
{
angle = 90;
pos = (850,0);
}
);
layerId = m002;
shapes = (
{
closed = 1;
nodes = (
(477,650,l),
(1222,650,l),
(1222,65,ls),
(1222,30,o),
(1247,1,o),
(1277,1,cs),
(1417,1,ls),
(1448,1,o),
(1473,30,o),
(1473,65,cs),
(1473,1469,ls),
(1473,1504,o),
(1448,1533,o),
(1418,1533,cs),
(1278,1533,ls),
(1247,1533,o),
(1222,1504,o),
(1222,1469,cs),
(1222,871,l),
(477,871,l),
(477,1469,ls),
(477,1504,o),
(452,1533,o),
(422,1533,cs),
(282,1533,ls),
(251,1533,o),
(226,1504,o),
(226,1469,cs),
(226,64,ls),
(226,29,o),
(251,0,o),
(281,0,cs),
(421,0,ls),
(452,0,o),
(477,29,o),
(477,64,c)
);
}
);
width = 1699;
},
{
anchors = (
{
name = bottom;
pos = (844,0);
},
{
name = center;
pos = (844,1150);
},
{
name = top;
pos = (844,1533);
},
{
name = topleft;
pos = (14,1533);
}
);
background = {
shapes = (
{
closed = 1;
nodes = (
(471,650,l),
(1216,650,l),
(1216,65,ls),
(1216,30,o),
(1241,1,o),
(1271,1,cs),
(1411,1,ls),
(1442,1,o),
(1467,30,o),
(1467,65,cs),
(1467,1469,ls),
(1467,1504,o),
(1442,1533,o),
(1412,1533,cs),
(1272,1533,ls),
(1241,1533,o),
(1216,1504,o),
(1216,1469,cs),
(1216,871,l),
(471,871,l),
(471,1469,ls),
(471,1504,o),
(446,1533,o),
(416,1533,cs),
(276,1533,ls),
(245,1533,o),
(220,1504,o),
(220,1469,cs),
(220,64,ls),
(220,29,o),
(245,0,o),
(275,0,cs),
(415,0,ls),
(446,0,o),
(471,29,o),
(471,64,c)
);
}
);
};
guides = (
{
pos = (-6,-141);
},
{
pos = (-6,2053);
},
{
pos = (-6,1636);
},
{
angle = 90;
pos = (844,0);
}
);
layerId = m003;
shapes = (
{
closed = 1;
nodes = (
(561,620,l),
(1126,620,l),
(1126,65,ls),
(1126,30,o),
(1151,1,o),
(1181,1,cs),
(1441,1,ls),
(1472,1,o),
(1497,30,o),
(1497,65,cs),
(1497,1469,ls),
(1497,1504,o),
(1472,1533,o),
(1442,1533,cs),
(1182,1533,ls),
(1151,1533,o),
(1126,1504,o),
(1126,1469,cs),
(1126,911,l),
(561,911,l),
(561,1469,ls),
(561,1504,o),
(536,1533,o),
(506,1533,cs),
(246,1533,ls),
(215,1533,o),
(190,1504,o),
(190,1469,cs),
(190,64,ls),
(190,29,o),
(215,0,o),
(245,0,cs),
(505,0,ls),
(536,0,o),
(561,29,o),
(561,64,c)
);
}
);
width = 1687;
}
);
unicode = 72;
}
{
color = 4;
glyphname = I;
layers = (
{
anchors = (
{
name = bottom;
pos = (342,0);
},
{
name = ogonek;
pos = (615,10);
},
{
name = top;
pos = (342,1533);
},
{
name = topleft;
pos = (20,1533);
}
);
background = {
shapes = (
{
ref = H;
}
);
};
layerId = m001;
shapes = (
{
closed = 1;
nodes = (
(412,0,o),
(437,29,o),
(437,64,cs),
(437,1469,ls),
(437,1504,o),
(412,1533,o),
(382,1533,cs),
(302,1533,ls),
(271,1533,o),
(246,1504,o),
(246,1469,cs),
(246,64,ls),
(246,29,o),
(271,0,o),
(301,0,cs),
(381,0,ls)
);
}
);
width = 683;
},
{
anchors = (
{
name = bottom;
pos = (342,0);
},
{
name = ogonek;
pos = (615,10);
},
{
name = top;
pos = (342,1533);
},
{
name = topleft;
pos = (20,1533);
}
);
layerId = m002;
shapes = (
{
closed = 1;
nodes = (
(442,0,o),
(467,29,o),
(467,64,cs),
(467,1469,ls),
(467,1504,o),
(442,1533,o),
(412,1533,cs),
(272,1533,ls),
(241,1533,o),
(216,1504,o),
(216,1469,cs),
(216,64,ls),
(216,29,o),
(241,0,o),
(271,0,cs),
(411,0,ls)
);
}
);
width = 683;
},
{
anchors = (
{
name = bottom;
pos = (342,0);
},
{
name = ogonek;
pos = (615,10);
},
{
name = top;
pos = (342,1533);
},
{
name = topleft;
pos = (20,1533);
}
);
layerId = m003;
shapes = (
{
closed = 1;
nodes = (
(512,0,o),
(537,29,o),
(537,64,cs),
(537,1469,ls),
(537,1504,o),
(512,1533,o),
(482,1533,cs),
(222,1533,ls),
(191,1533,o),
(166,1504,o),
(166,1469,cs),
(166,64,ls),
(166,29,o),
(191,0,o),
(221,0,cs),
(481,0,ls)
);
}
);
width = 703;
}
);
metricRight = "=|";
unicode = 73;
}
{
glyphname = J;
layers = (
{
anchors = (
{
name = bottom;
pos = (433,0);
},
{
name = top;
pos = (547,1533);
}
);
layerId = "997F8AB0-1B91-48A1-A6B5-F95345F1D981";
shapes = (
{
closed = 1;
nodes = (
(529,-26,o),
(710,111,o),
(710,429,cs),
(710,1422,ls),
(710,1485,o),
(666,1533,o),
(601,1533,cs),
(493,1533,ls),
(428,1533,o),
(384,1485,o),
(384,1422,cs),
(384,482,ls),
(384,343,o),
(352,246,o),
(261,246,cs),
(193,246,o),
(150,285,o),
(110,285,cs),
(65,285,o),
(39,251,o),
(20,188,cs),
(14,168,o),
(4,142,o),
(4,118,cs),
(4,28,o),
(135,-26,o),
(298,-26,cs)
);
}
);
width = 866;
},
{
anchors = (
{
name = bottom;
pos = (395,0);
},
{
name = top;
pos = (517,1533);
}
);
layerId = m001;
shapes = (
{
closed = 1;
nodes = (
(457,-27,o),
(613,93,o),
(613,395,cs),
(613,1481,ls),
(613,1515,o),
(601,1533,o),
(570,1533,cs),
(465,1533,ls),
(434,1533,o),
(422,1515,o),
(422,1481,cs),
(422,403,ls),
(422,228,o),
(366,138,o),
(253,138,cs),
(176,138,o),
(107,170,o),
(89,170,cs),
(75,170,o),
(62,161,o),
(52,123,cs),
(48,108,o),
(37,60,o),
(37,48,cs),
(37,11,o),
(129,-27,o),
(259,-27,cs)
);
}
);
width = 790;
},
{
anchors = (
{
name = bottom;
pos = (425,0);
},
{
name = top;
pos = (542,1533);
}
);
layerId = m002;
shapes = (
{
closed = 1;
nodes = (
(504,-26,o),
(667,102,o),
(667,413,cs),
(667,1469,ls),
(667,1504,o),
(642,1533,o),
(612,1533,cs),
(473,1533,ls),
(443,1533,o),
(418,1504,o),
(418,1469,cs),
(418,468,ls),
(418,310,o),
(379,181,o),
(242,181,cs),
(166,181,o),
(120,214,o),
(97,214,cs),
(79,214,o),
(59,196,o),
(45,149,cs),
(40,131,o),
(31,109,o),
(31,86,cs),
(31,17,o),
(149,-26,o),
(289,-26,cs)
);
}
);
width = 850;
}
);
unicode = 74;
userData = {
KernOnName = J;
};
}
{
color = 4;
glyphname = K;
layers = (
{
anchors = (
{
name = bottom;
pos = (722,0);
},
{
name = top;
pos = (722,1533);
}
);
guides = (
{
angle = 90;
pos = (3299,0);
}
);
layerId = m001;
shapes = (
{
closed = 1;
nodes = (
(482,0,o),
(507,29,o),
(507,64,cs),
(507,1469,ls),
(507,1504,o),
(482,1533,o),
(452,1533,cs),
(312,1533,ls),
(281,1533,o),
(256,1504,o),
(256,1469,cs),
(256,64,ls),
(256,29,o),
(281,0,o),
(311,0,cs),
(451,0,ls)
);
},
{
closed = 1;
nodes = (
(642,580,o),
(735,421,o),
(843,279,cs),
(943,148,o),
(1081,-17,o),
(1257,-17,cs),
(1332,-17,o),
(1422,24,o),
(1422,81,cs),
(1422,121,o),
(1412,144,o),
(1404,175,cs),
(1395,208,o),
(1374,214,o),
(1349,214,cs),
(1336,214,o),
(1322,212,o),
(1309,212,cs),
(1282,212,o),
(1257,217,o),
(1231,231,cs),
(1167,265,o),
(1090,347,o),
(1020,434,cs),
(920,558,o),
(828,699,o),
(789,758,c),
(878,903,o),
(1108,1173,o),
(1240,1301,cs),
(1282,1343,o),
(1336,1374,o),
(1339,1413,cs),
(1341,1433,o),
(1328,1456,o),
(1292,1483,cs),
(1259,1508,ls),
(1232,1529,o),
(1204,1539,o),
(1182,1539,cs),
(1156,1539,o),
(1131,1525,o),
(1101,1499,cs),
(1017,1427,o),
(929,1321,o),
(840,1202,cs),
(726,1049,o),
(619,875,o),
(551,743,c)
);
}
);
width = 1404;
},
{
anchors = (
{
name = bottom;
pos = (692,0);
},
{
name = top;
pos = (692,1533);
}
);
guides = (
{
angle = 90;
pos = (3269,0);
}
);
layerId = m002;
shapes = (
{
closed = 1;
nodes = (
(452,0,o),
(477,29,o),
(477,64,cs),
(477,1469,ls),
(477,1504,o),
(452,1533,o),
(422,1533,cs),
(282,1533,ls),
(251,1533,o),
(226,1504,o),
(226,1469,cs),
(226,64,ls),
(226,29,o),
(251,0,o),
(281,0,cs),
(421,0,ls)
);
},
{
closed = 1;
nodes = (
(612,580,o),
(705,421,o),
(813,279,cs),
(913,148,o),
(1051,-17,o),
(1227,-17,cs),
(1302,-17,o),
(1392,24,o),
(1392,81,cs),
(1392,121,o),
(1382,144,o),
(1374,175,cs),
(1365,208,o),
(1344,214,o),
(1319,214,cs),
(1306,214,o),
(1292,212,o),
(1279,212,cs),
(1252,212,o),
(1227,217,o),
(1201,231,cs),
(1137,265,o),
(1060,347,o),
(990,434,cs),
(890,558,o),
(798,699,o),
(759,758,c),
(848,903,o),
(1078,1173,o),
(1210,1301,cs),
(1252,1343,o),
(1306,1374,o),
(1309,1413,cs),
(1311,1433,o),
(1298,1456,o),
(1262,1483,cs),
(1229,1508,ls),
(1202,1529,o),
(1174,1539,o),
(1152,1539,cs),
(1126,1539,o),
(1101,1525,o),
(1071,1499,cs),
(987,1427,o),
(899,1321,o),
(810,1202,cs),
(696,1049,o),
(589,875,o),
(521,743,c)
);
}
);
width = 1374;
},
{
anchors = (
{
name = bottom;
pos = (656,0);
},
{
name = top;
pos = (656,1533);
}
);
guides = (
{
angle = 90;
pos = (3233,0);
}
);
layerId = m003;
shapes = (
{
closed = 1;
nodes = (
(416,0,o),
(441,29,o),
(441,64,cs),
(441,1469,ls),
(441,1504,o),
(416,1533,o),
(386,1533,cs),
(246,1533,ls),
(215,1533,o),
(190,1504,o),
(190,1469,cs),
(190,64,ls),
(190,29,o),
(215,0,o),
(245,0,cs),
(385,0,ls)
);
},
{
closed = 1;
nodes = (
(576,580,o),
(669,421,o),
(777,279,cs),
(877,148,o),
(1015,-17,o),
(1191,-17,cs),
(1266,-17,o),
(1356,24,o),
(1356,81,cs),
(1356,121,o),
(1346,144,o),
(1338,175,cs),
(1329,208,o),
(1308,214,o),
(1283,214,cs),
(1270,214,o),
(1256,212,o),
(1243,212,cs),
(1216,212,o),
(1191,217,o),
(1165,231,cs),
(1101,265,o),
(1024,347,o),
(954,434,cs),
(854,558,o),
(762,699,o),
(723,758,c),
(812,903,o),
(1042,1173,o),
(1174,1301,cs),
(1216,1343,o),
(1270,1374,o),
(1273,1413,cs),
(1275,1433,o),
(1262,1456,o),
(1226,1483,cs),
(1193,1508,ls),
(1166,1529,o),
(1138,1539,o),
(1116,1539,cs),
(1090,1539,o),
(1065,1525,o),
(1035,1499,cs),
(951,1427,o),
(863,1321,o),
(774,1202,cs),
(660,1049,o),
(553,875,o),
(485,743,c)
);
}
);
width = 1338;
}
);
metricLeft = H;
unicode = 75;
}
{
color = 4;
glyphname = L;
layers = (
{
anchors = (
{
name = bottom;
pos = (615,0);
},
{
name = center;
pos = (615,767);
},
{
name = top;
pos = (615,1533);
},
{
name = topright;
pos = (845,1533);
}
);
guides = (
{
angle = 90;
pos = (717,0);
}
);
layerId = m001;
shapes = (
{
closed = 1;
nodes = (
(507,1504,o),
(482,1533,o),
(452,1533,cs),
(312,1533,ls),
(281,1533,o),
(256,1504,o),
(256,1469,cs),
(256,64,ls),
(256,29,o),
(281,0,o),
(311,0,cs),
(1049,0,ls),
(1084,0,o),
(1102,25,o),
(1102,56,cs),
(1102,166,ls),
(1102,198,o),
(1084,223,o),
(1049,223,cs),
(507,223,l),
(507,1469,ls)
);
}
);
width = 1212;
},
{
anchors = (
{
name = bottom;
pos = (585,0);
},
{
name = center;
pos = (585,767);
},
{
name = top;
pos = (585,1533);
},
{
name = topright;
pos = (815,1533);
}
);
guides = (
{
angle = 90;
pos = (687,0);
}
);
layerId = m002;
shapes = (
{
closed = 1;
nodes = (
(477,1504,o),
(452,1533,o),
(422,1533,cs),
(282,1533,ls),
(251,1533,o),
(226,1504,o),
(226,1469,cs),
(226,64,ls),
(226,29,o),
(251,0,o),
(281,0,cs),
(1019,0,ls),
(1054,0,o),
(1072,25,o),
(1072,56,cs),
(1072,166,ls),
(1072,198,o),
(1054,223,o),
(1019,223,cs),
(477,223,l),
(477,1469,ls)
);
}
);
width = 1182;
},
{
anchors = (
{
name = bottom;
pos = (549,0);
},
{
name = center;
pos = (549,767);
},
{
name = top;
pos = (549,1533);
},
{
name = topright;
pos = (779,1533);
}
);
guides = (
{
angle = 90;
pos = (651,0);
}
);
layerId = m003;
shapes = (
{
closed = 1;
nodes = (
(441,1504,o),
(416,1533,o),
(386,1533,cs),
(246,1533,ls),
(215,1533,o),
(190,1504,o),
(190,1469,cs),
(190,64,ls),
(190,29,o),
(215,0,o),
(245,0,cs),
(983,0,ls),
(1018,0,o),
(1036,25,o),
(1036,56,cs),
(1036,166,ls),
(1036,198,o),
(1018,223,o),
(983,223,cs),
(441,223,l),
(441,1469,ls)
);
}
);
width = 1146;
}
);
metricLeft = H;
unicode = 76;
}
{
color = 4;
glyphname = M;
layers = (
{
anchors = (
{
name = bottom;
pos = (1020,0);
},
{
name = top;
pos = (1020,1533);
}
);
guides = (
{
pos = (0,1458);
},
{
pos = (0,1392);
},
{
pos = (0,1095);
},
{
pos = (0,900);
},
{
pos = (0,1237);
},
{
pos = (0,642);
},
{
pos = (0,1331);
},
{
angle = 90;
pos = (157,0);
},
{
angle = 90;
pos = (461,0);
},
{
angle = 90;
pos = (1021,0);
}
);
layerId = m001;
shapes = (
{
closed = 1;
nodes = (
(1900,0,o),
(1909,23,o),
(1909,50,cs),
(1909,57,o),
(1908,64,o),
(1907,71,cs),
(1734,1396,ls),
(1723,1477,o),
(1717,1533,o),
(1623,1533,cs),
(1510,1533,ls),
(1437,1533,o),
(1415,1481,o),
(1398,1434,cs),
(1021,383,l),
(590,1433,ls),
(552,1526,o),
(520,1533,o),
(461,1533,cs),
(353,1533,ls),
(266,1533,o),
(258,1488,o),
(249,1388,cs),
(129,72,ls),
(125,32,o),
(149,0,o),
(181,0,cs),
(319,0,ls),
(343,0,o),
(370,21,o),
(372,42,cs),
(417,641,ls),
(430,815,o),
(434,923,o),
(434,1074,cs),
(434,1236,ls),
(435,1239,o),
(436,1240,o),
(438,1240,cs),
(439,1240,o),
(440,1240,o),
(441,1237,cs),
(486,1099,ls),
(508,1032,o),
(534,969,o),
(561,905,cs),
(895,122,ls),
(904,102,o),
(919,82,o),
(945,82,cs),
(1102,82,ls),
(1122,82,o),
(1145,103,o),
(1152,123,cs),
(1342,641,ls),
(1404,809,o),
(1458,938,o),
(1495,1072,cs),
(1540,1236,ls),
(1541,1239,o),
(1542,1239,o),
(1543,1239,cs),
(1545,1239,o),
(1546,1238,o),
(1546,1235,cs),
(1556,1093,ls),
(1567,934,o),
(1573,790,o),
(1590,640,cs),
(1659,42,ls),
(1662,18,o),
(1683,0,o),
(1708,0,cs),
(1874,0,ls)
);
}
);
width = 2039;
},
{
anchors = (
{
name = bottom;
pos = (1020,0);
},
{
name = top;
pos = (1020,1533);
}
);
guides = (
{
pos = (0,1458);
},
{
pos = (0,1392);
},
{
pos = (0,1095);
},
{
pos = (0,900);
},
{
pos = (0,1237);
},
{
pos = (0,642);
},
{
pos = (0,1331);
},
{
angle = 90;
pos = (157,0);
},
{
angle = 90;
pos = (461,0);
},
{
angle = 90;
pos = (1021,0);
}
);
layerId = m002;
shapes = (
{
closed = 1;
nodes = (
(1900,0,o),
(1909,23,o),
(1909,50,cs),
(1909,57,o),
(1908,64,o),
(1907,71,cs),
(1734,1396,ls),
(1723,1477,o),
(1717,1533,o),
(1623,1533,cs),
(1510,1533,ls),
(1437,1533,o),
(1415,1481,o),
(1398,1434,cs),
(1021,383,l),
(590,1433,ls),
(552,1526,o),
(520,1533,o),
(461,1533,cs),
(353,1533,ls),
(266,1533,o),
(258,1488,o),
(249,1388,cs),
(129,72,ls),
(125,32,o),
(149,0,o),
(181,0,cs),
(319,0,ls),
(343,0,o),
(370,21,o),
(372,42,cs),
(417,641,ls),
(430,815,o),
(434,923,o),
(434,1074,cs),
(434,1236,ls),
(435,1239,o),
(436,1240,o),
(438,1240,cs),
(439,1240,o),
(440,1240,o),
(441,1237,cs),
(486,1099,ls),
(508,1032,o),
(534,969,o),
(561,905,cs),
(895,122,ls),
(904,102,o),
(919,82,o),
(945,82,cs),
(1102,82,ls),
(1122,82,o),
(1145,103,o),
(1152,123,cs),
(1342,641,ls),
(1404,809,o),
(1458,938,o),
(1495,1072,cs),
(1540,1236,ls),
(1541,1239,o),
(1542,1239,o),
(1543,1239,cs),
(1545,1239,o),
(1546,1238,o),
(1546,1235,cs),
(1556,1093,ls),
(1567,934,o),
(1573,790,o),
(1590,640,cs),
(1659,42,ls),
(1662,18,o),
(1683,0,o),
(1708,0,cs),
(1874,0,ls)
);
}
);
width = 2039;
},
{
anchors = (
{
name = bottom;
pos = (1020,0);
},
{
name = top;
pos = (1020,1533);
}
);
guides = (
{
pos = (0,1458);
},
{
pos = (0,1392);
},
{
pos = (0,1095);
},
{
pos = (0,900);
},
{
pos = (0,1237);
},
{
pos = (0,642);
},
{
pos = (0,1331);
},
{
angle = 90;
pos = (157,0);
},
{
angle = 90;
pos = (461,0);
},
{
angle = 90;
pos = (1021,0);
}
);
layerId = m003;
shapes = (
{
closed = 1;
nodes = (
(1900,0,o),
(1909,23,o),
(1909,50,cs),
(1909,57,o),
(1908,64,o),
(1907,71,cs),
(1734,1396,ls),
(1723,1477,o),
(1717,1533,o),
(1623,1533,cs),
(1510,1533,ls),
(1437,1533,o),
(1415,1481,o),
(1398,1434,cs),
(1021,383,l),
(590,1433,ls),
(552,1526,o),
(520,1533,o),
(461,1533,cs),
(353,1533,ls),
(266,1533,o),
(258,1488,o),
(249,1388,cs),
(129,72,ls),
(125,32,o),
(149,0,o),
(181,0,cs),
(319,0,ls),
(343,0,o),
(370,21,o),
(372,42,cs),
(417,641,ls),
(430,815,o),
(434,923,o),
(434,1074,cs),
(434,1236,ls),
(435,1239,o),
(436,1240,o),
(438,1240,cs),
(439,1240,o),
(440,1240,o),
(441,1237,cs),
(486,1099,ls),
(508,1032,o),
(534,969,o),
(561,905,cs),
(895,122,ls),
(904,102,o),
(919,82,o),
(945,82,cs),
(1102,82,ls),
(1122,82,o),
(1145,103,o),
(1152,123,cs),
(1342,641,ls),
(1404,809,o),
(1458,938,o),
(1495,1072,cs),
(1540,1236,ls),
(1541,1239,o),
(1542,1239,o),
(1543,1239,cs),
(1545,1239,o),
(1546,1238,o),
(1546,1235,cs),
(1556,1093,ls),
(1567,934,o),
(1573,790,o),
(1590,640,cs),
(1659,42,ls),
(1662,18,o),
(1683,0,o),
(1708,0,cs),
(1874,0,ls)
);
}
);
width = 2039;
}
);
unicode = 77;
}
{
color = 4;
glyphname = N;
layers = (
{
anchors = (
{
name = bottom;
pos = (836,0);
},
{
name = top;
pos = (836,1533);
}
);
background = {
shapes = (
{
closed = 1;
nodes = (
(1237,333,o),
(1236,331,o),
(1234,331,cs),
(1233,331,o),
(1232,331,o),
(1231,333,cs),
(1204,387,o),
(1181,446,o),
(1132,518,cs),
(488,1466,ls),
(450,1521,o),
(427,1533,o),
(375,1533,cs),
(334,1533,ls),
(273,1533,o),
(226,1506,o),
(226,1409,cs),
(226,61,ls),
(226,28,o),
(250,0,o),
(278,0,cs),
(410,0,ls),
(439,0,o),
(463,28,o),
(463,61,cs),
(463,828,ls),
(463,957,o),
(444,1087,o),
(433,1153,cs),
(432,1156,o),
(434,1158,o),
(436,1158,cs),
(438,1158,o),
(439,1157,o),
(440,1155,cs),
(494,1059,o),
(549,972,o),
(608,885,cs),
(1135,114,ls),
(1202,17,o),
(1227,0,o),
(1292,0,cs),
(1353,0,ls),
(1395,0,o),
(1454,43,o),
(1454,100,cs),
(1454,1472,ls),
(1454,1506,o),
(1430,1533,o),
(1402,1533,cs),
(1270,1533,ls),
(1241,1533,o),
(1217,1506,o),
(1217,1472,cs),
(1217,531,ls),
(1217,466,o),
(1232,399,o),
(1237,335,cs)
);
}
);
};
guides = (
{
angle = 90;
pos = (853,0);
}
);
layerId = m001;
shapes = (
{
closed = 1;
nodes = (
(1247,263,o),
(1246,261,o),
(1244,261,cs),
(1243,261,o),
(1242,261,o),
(1241,263,cs),
(1214,317,o),
(1138,450,o),
(1097,514,cs),
(488,1466,ls),
(453,1521,o),
(427,1533,o),
(375,1533,cs),
(334,1533,ls),
(303,1533,o),
(256,1506,o),
(256,1409,cs),
(256,61,ls),
(256,28,o),
(280,0,o),
(308,0,cs),
(374,0,ls),
(403,0,o),
(427,28,o),
(427,61,cs),
(427,868,ls),
(427,997,o),
(424,1177,o),
(413,1243,cs),
(412,1246,o),
(414,1248,o),
(416,1248,cs),
(418,1248,o),
(419,1247,o),
(420,1245,cs),
(474,1149,o),
(524,1076,o),
(578,992,cs),
(1145,114,ls),
(1209,14,o),
(1237,0,o),
(1272,0,cs),
(1353,0,ls),
(1385,0,o),
(1408,43,o),
(1408,100,cs),
(1408,1472,ls),
(1408,1506,o),
(1384,1533,o),
(1356,1533,cs),
(1290,1533,ls),
(1261,1533,o),
(1237,1506,o),
(1237,1472,cs),
(1237,481,ls),
(1237,416,o),
(1242,329,o),
(1247,265,cs)
);
}
);
width = 1664;
},
{
anchors = (
{
name = bottom;
pos = (836,0);
},
{
name = top;
pos = (836,1533);
}
);
guides = (
{
angle = 90;
pos = (853,0);
}
);
layerId = m002;
shapes = (
{
closed = 1;
nodes = (
(1237,333,o),
(1236,331,o),
(1234,331,cs),
(1233,331,o),
(1232,331,o),
(1231,333,cs),
(1204,387,o),
(1181,446,o),
(1132,518,cs),
(488,1466,ls),
(450,1521,o),
(427,1533,o),
(375,1533,cs),
(334,1533,ls),
(273,1533,o),
(226,1506,o),
(226,1409,cs),
(226,61,ls),
(226,28,o),
(250,0,o),
(278,0,cs),
(410,0,ls),
(439,0,o),
(463,28,o),
(463,61,cs),
(463,828,ls),
(463,957,o),
(444,1087,o),
(433,1153,cs),
(432,1156,o),
(434,1158,o),
(436,1158,cs),
(438,1158,o),
(439,1157,o),
(440,1155,cs),
(494,1059,o),
(549,972,o),
(608,885,cs),
(1135,114,ls),
(1202,17,o),
(1227,0,o),
(1292,0,cs),
(1353,0,ls),
(1395,0,o),
(1454,43,o),
(1454,100,cs),
(1454,1472,ls),
(1454,1506,o),
(1430,1533,o),
(1402,1533,cs),
(1270,1533,ls),
(1241,1533,o),
(1217,1506,o),
(1217,1472,cs),
(1217,531,ls),
(1217,466,o),
(1232,399,o),
(1237,335,cs)
);
}
);
width = 1680;
},
{
anchors = (
{
name = bottom;
pos = (840,0);
},
{
name = top;
pos = (840,1533);
}
);
background = {
shapes = (
{
closed = 1;
nodes = (
(1241,333,o),
(1240,331,o),
(1238,331,cs),
(1237,331,o),
(1236,331,o),
(1235,333,cs),
(1208,387,o),
(1185,446,o),
(1136,518,cs),
(492,1466,ls),
(454,1521,o),
(431,1533,o),
(379,1533,cs),
(338,1533,ls),
(277,1533,o),
(230,1506,o),
(230,1409,cs),
(230,61,ls),
(230,28,o),
(254,0,o),
(282,0,cs),
(414,0,ls),
(443,0,o),
(467,28,o),
(467,61,cs),
(467,828,ls),
(467,957,o),
(448,1087,o),
(437,1153,cs),
(436,1156,o),
(438,1158,o),
(440,1158,cs),
(442,1158,o),
(443,1157,o),
(444,1155,cs),
(498,1059,o),
(553,972,o),
(612,885,cs),
(1139,114,ls),
(1206,17,o),
(1231,0,o),
(1296,0,cs),
(1357,0,ls),
(1399,0,o),
(1458,43,o),
(1458,100,cs),
(1458,1472,ls),
(1458,1506,o),
(1434,1533,o),
(1406,1533,cs),
(1274,1533,ls),
(1245,1533,o),
(1221,1506,o),
(1221,1472,cs),
(1221,531,ls),
(1221,466,o),
(1236,399,o),
(1241,335,cs)
);
}
);
};
guides = (
{
angle = 90;
pos = (857,0);
}
);
layerId = m003;
shapes = (
{
closed = 1;
nodes = (
(1167,523,o),
(1166,521,o),
(1164,521,cs),
(1163,521,o),
(1162,521,o),
(1161,523,cs),
(1134,577,o),
(1112,636,o),
(1062,708,cs),
(532,1466,ls),
(492,1523,o),
(471,1533,o),
(419,1533,cs),
(278,1533,ls),
(217,1533,o),
(170,1506,o),
(170,1409,cs),
(170,61,ls),
(170,28,o),
(194,0,o),
(222,0,cs),
(488,0,ls),
(517,0,o),
(541,28,o),
(541,61,cs),
(541,628,ls),
(541,757,o),
(522,887,o),
(511,953,cs),
(510,956,o),
(512,958,o),
(514,958,cs),
(516,958,o),
(517,957,o),
(518,955,cs),
(572,859,o),
(622,772,o),
(686,685,cs),
(1109,114,ls),
(1183,15,o),
(1201,0,o),
(1266,0,cs),
(1417,0,ls),
(1459,0,o),
(1518,43,o),
(1518,100,cs),
(1518,1472,ls),
(1518,1506,o),
(1494,1533,o),
(1466,1533,cs),
(1200,1533,ls),
(1171,1533,o),
(1147,1506,o),
(1147,1472,cs),
(1147,721,ls),
(1147,656,o),
(1162,589,o),
(1167,525,cs)
);
}
);
width = 1688;
}
);
metricLeft = H;
metricRight = H;
unicode = 78;
}
{
glyphname = O;
layers = (
{
anchors = (
{
name = bottom;
pos = (868,0);
},
{
name = center;
pos = (868,767);
},
{
name = ogonek;
pos = (1551,10);
},
{
name = top;
pos = (868,1533);
},
{
name = topleft;
pos = (33,1533);
},
{
name = topright;
pos = (1702,1533);
}
);
background = {
shapes = (
{
closed = 1;
nodes = (
(1310,-25,o),
(1614,330,o),
(1614,777,cs),
(1614,1219,o),
(1356,1558,o),
(866,1558,cs),
(413,1558,o),
(115,1230,o),
(115,779,cs),
(115,347,o),
(387,-25,o),
(858,-25,cs)
);
},
{
closed = 1;
nodes = (
(1104,1231,o),
(1233,1019,o),
(1233,776,cs),
(1233,518,o),
(1109,303,o),
(863,303,cs),
(615,303,o),
(496,535,o),
(496,776,cs),
(496,1044,o),
(644,1231,o),
(864,1231,cs)
);
}
);
};
layerId = "997F8AB0-1B91-48A1-A6B5-F95345F1D981";
shapes = (
{
closed = 1;
nodes = (
(1327,-25,o),
(1647,332,o),
(1647,776,cs),
(1647,1215,o),
(1373,1558,o),
(869,1558,cs),
(403,1558,o),
(88,1227,o),
(88,778,cs),
(88,347,o),
(376,-25,o),
(861,-25,cs)
);
},
{
closed = 1;
nodes = (
(565,268,o),
(436,517,o),
(436,777,cs),
(436,1068,o),
(599,1265,o),
(867,1265,cs),
(1157,1265,o),
(1299,1040,o),
(1299,777,cs),
(1299,497,o),
(1163,268,o),
(866,268,cs)
);
}
);
width = 1735;
},
{
anchors = (
{
name = bottom;
pos = (808,0);
},
{
name = center;
pos = (808,767);
},
{
name = ogonek;
pos = (1491,10);
},
{
name = top;
pos = (808,1533);
},
{
name = topleft;
pos = (-27,1533);
},
{
name = topright;
pos = (1642,1533);
}
);
guides = (
{
angle = 90;
pos = (-681,0);
}
);
layerId = m001;
shapes = (
{
closed = 1;
nodes = (
(1230,-25,o),
(1525,330,o),
(1525,777,cs),
(1525,1242,o),
(1275,1558,o),
(809,1558,cs),
(379,1558,o),
(90,1230,o),
(90,779,cs),
(90,347,o),
(354,-25,o),
(801,-25,cs)
);
},
{
closed = 1;
nodes = (
(459,141,o),
(290,433,o),
(290,779,cs),
(290,1160,o),
(497,1392,o),
(807,1392,cs),
(1143,1392,o),
(1325,1127,o),
(1325,779,cs),
(1325,410,o),
(1149,141,o),
(806,141,cs)
);
}
);
width = 1615;
},
{
anchors = (
{
name = bottom;
pos = (855,0);
},
{
name = center;
pos = (855,767);
},
{
name = ogonek;
pos = (1538,10);
},
{
name = top;
pos = (855,1533);
},
{
name = topleft;
pos = (20,1533);
},
{
name = topright;
pos = (1689,1533);
}
);
guides = (
{
angle = 90;
pos = (-634,0);
}
);
layerId = m002;
shapes = (
{
closed = 1;
nodes = (
(1290,-25,o),
(1594,330,o),
(1594,777,cs),
(1594,1219,o),
(1336,1558,o),
(856,1558,cs),
(413,1558,o),
(115,1230,o),
(115,779,cs),
(115,347,o),
(387,-25,o),
(848,-25,cs)
);
},
{
closed = 1;
nodes = (
(526,205,o),
(383,487,o),
(383,778,cs),
(383,1102,o),
(561,1329,o),
(854,1329,cs),
(1170,1329,o),
(1326,1072,o),
(1326,778,cs),
(1326,466,o),
(1176,205,o),
(853,205,cs)
);
}
);
width = 1709;
}
);
unicode = 79;
userData = {
KernOnName = O;
};
}
{
color = 4;
glyphname = P;
layers = (
{
anchors = (
{
name = bottom;
pos = (707,0);
},
{
name = top;
pos = (707,1533);
}
);
guides = (
{
angle = 90;
pos = (730,0);
}
);
layerId = m001;
shapes = (
{
closed = 1;
nodes = (
(507,452,l),
(570,444,o),
(627,437,o),
(710,437,cs),
(1048,437,o),
(1326,645,o),
(1326,1002,cs),
(1326,1353,o),
(1097,1533,o),
(731,1533,cs),
(335,1533,ls),
(279,1533,o),
(256,1492,o),
(256,1445,cs),
(256,62,ls),
(256,30,o),
(275,0,o),
(321,0,cs),
(439,0,ls),
(492,0,o),
(507,33,o),
(507,62,c)
);
},
{
closed = 1;
nodes = (
(720,1316,ls),
(928,1316,o),
(1064,1206,o),
(1064,1001,cs),
(1064,746,o),
(880,649,o),
(667,649,cs),
(609,649,o),
(564,655,o),
(507,662,c),
(507,1316,l)
);
}
);
width = 1387;
},
{
anchors = (
{
name = bottom;
pos = (677,0);
},
{
name = top;
pos = (677,1533);
}
);
guides = (
{
angle = 90;
pos = (700,0);
}
);
layerId = m002;
shapes = (
{
closed = 1;
nodes = (
(477,452,l),
(540,444,o),
(597,437,o),
(680,437,cs),
(1018,437,o),
(1296,645,o),
(1296,1002,cs),
(1296,1353,o),
(1067,1533,o),
(701,1533,cs),
(305,1533,ls),
(249,1533,o),
(226,1492,o),
(226,1445,cs),
(226,62,ls),
(226,30,o),
(245,0,o),
(291,0,cs),
(409,0,ls),
(462,0,o),
(477,33,o),
(477,62,c)
);
},
{
closed = 1;
nodes = (
(690,1316,ls),
(898,1316,o),
(1034,1206,o),
(1034,1001,cs),
(1034,746,o),
(850,649,o),
(637,649,cs),
(579,649,o),
(534,655,o),
(477,662,c),
(477,1316,l)
);
}
);
width = 1357;
},
{
anchors = (
{
name = bottom;
pos = (641,0);
},
{
name = top;
pos = (641,1533);
}
);
guides = (
{
angle = 90;
pos = (664,0);
}
);
layerId = m003;
shapes = (
{
closed = 1;
nodes = (
(441,452,l),
(504,444,o),
(561,437,o),
(644,437,cs),
(982,437,o),
(1260,645,o),
(1260,1002,cs),
(1260,1353,o),
(1031,1533,o),
(665,1533,cs),
(269,1533,ls),
(213,1533,o),
(190,1492,o),
(190,1445,cs),
(190,62,ls),
(190,30,o),
(209,0,o),
(255,0,cs),
(373,0,ls),
(426,0,o),
(441,33,o),
(441,62,c)
);
},
{
closed = 1;
nodes = (
(654,1316,ls),
(862,1316,o),
(998,1206,o),
(998,1001,cs),
(998,746,o),
(814,649,o),
(601,649,cs),
(543,649,o),
(498,655,o),
(441,662,c),
(441,1316,l)
);
}
);
width = 1321;
}
);
metricLeft = H;
unicode = 80;
}
{
color = 4;
glyphname = Q;
layers = (
{
anchors = (
{
name = bottom;
pos = (852,0);
},
{
name = top;
pos = (852,1533);
}
);
layerId = m001;
shapes = (
{
closed = 1;
nodes = (
(915,-248,o),
(1307,-313,o),
(1513,-313,cs),
(1604,-313,o),
(1643,-293,o),
(1660,-211,cs),
(1671,-160,o),
(1672,-147,o),
(1672,-136,cs),
(1672,-98,o),
(1656,-69,o),
(1611,-69,cs),
(1523,-69,o),
(1449,-93,o),
(1352,-85,cs),
(1205,-73,o),
(1058,-22,o),
(936,63,c),
(710,44,l)
);
},
{
closed = 1;
nodes = (
(882,-25,o),
(915,-23,o),
(948,-19,cs),
(963,-17,o),
(966,4,o),
(981,6,cs),
(1374,48,o),
(1594,381,o),
(1594,777,cs),
(1594,1219,o),
(1336,1558,o),
(856,1558,cs),
(413,1558,o),
(115,1230,o),
(115,779,cs),
(115,347,o),
(387,-25,o),
(848,-25,cs)
);
},
{
closed = 1;
nodes = (
(1167,1329,o),
(1323,1072,o),
(1323,778,cs),
(1323,456,o),
(1176,195,o),
(853,195,cs),
(529,195,o),
(386,477,o),
(386,778,cs),
(386,1102,o),
(564,1329,o),
(854,1329,cs)
);
}
);
width = 1703;
},
{
anchors = (
{
name = bottom;
pos = (852,0);
},
{
name = top;
pos = (852,1533);
}
);
layerId = m002;
shapes = (
{
closed = 1;
nodes = (
(915,-248,o),
(1307,-313,o),
(1513,-313,cs),
(1604,-313,o),
(1643,-293,o),
(1660,-211,cs),
(1671,-160,o),
(1672,-147,o),
(1672,-136,cs),
(1672,-98,o),
(1656,-69,o),
(1611,-69,cs),
(1523,-69,o),
(1449,-93,o),
(1352,-85,cs),
(1205,-73,o),
(1058,-22,o),
(936,63,c),
(710,44,l)
);
},
{
closed = 1;
nodes = (
(882,-25,o),
(915,-23,o),
(948,-19,cs),
(963,-17,o),
(966,4,o),
(981,6,cs),
(1374,48,o),
(1594,381,o),
(1594,777,cs),
(1594,1219,o),
(1336,1558,o),
(856,1558,cs),
(413,1558,o),
(115,1230,o),
(115,779,cs),
(115,347,o),
(387,-25,o),
(848,-25,cs)
);
},
{
closed = 1;
nodes = (
(1167,1329,o),
(1323,1072,o),
(1323,778,cs),
(1323,456,o),
(1176,195,o),
(853,195,cs),
(529,195,o),
(386,477,o),
(386,778,cs),
(386,1102,o),
(564,1329,o),
(854,1329,cs)
);
}
);
width = 1703;
},
{
anchors = (
{
name = bottom;
pos = (852,0);
},
{
name = top;
pos = (852,1533);
}
);
layerId = m003;
shapes = (
{
closed = 1;
nodes = (
(915,-248,o),
(1307,-313,o),
(1513,-313,cs),
(1604,-313,o),
(1643,-293,o),
(1660,-211,cs),
(1671,-160,o),
(1672,-147,o),
(1672,-136,cs),
(1672,-98,o),
(1656,-69,o),
(1611,-69,cs),
(1523,-69,o),
(1449,-93,o),
(1352,-85,cs),
(1205,-73,o),
(1058,-22,o),
(936,63,c),
(710,44,l)
);
},
{
closed = 1;
nodes = (
(882,-25,o),
(915,-23,o),
(948,-19,cs),
(963,-17,o),
(966,4,o),
(981,6,cs),
(1374,48,o),
(1594,381,o),
(1594,777,cs),
(1594,1219,o),
(1336,1558,o),
(856,1558,cs),
(413,1558,o),
(115,1230,o),
(115,779,cs),
(115,347,o),
(387,-25,o),
(848,-25,cs)
);
},
{
closed = 1;
nodes = (
(1167,1329,o),
(1323,1072,o),
(1323,778,cs),
(1323,456,o),
(1176,195,o),
(853,195,cs),
(529,195,o),
(386,477,o),
(386,778,cs),
(386,1102,o),
(564,1329,o),
(854,1329,cs)
);
}
);
width = 1703;
}
);
unicode = 81;
}
{
color = 4;
glyphname = R;
layers = (
{
anchors = (
{
name = bottom;
pos = (789,0);
},
{
name = top;
pos = (789,1533);
}
);
guides = (
{
angle = 90;
pos = (507,0);
},
{
angle = 90;
pos = (785,0);
}
);
layerId = m001;
shapes = (
{
closed = 1;
nodes = (
(256,40,o),
(272,0,o),
(312,0,cs),
(455,0,ls),
(489,0,o),
(505,36,o),
(505,63,cs),
(505,576,l),
(581,508,o),
(689,336,o),
(836,193,cs),
(959,73,o),
(1072,-17,o),
(1252,-17,cs),
(1341,-17,o),
(1456,35,o),
(1456,98,cs),
(1456,119,o),
(1448,142,o),
(1441,168,cs),
(1433,199,o),
(1421,229,o),
(1384,229,cs),
(1363,229,o),
(1311,215,o),
(1281,215,cs),
(1143,215,o),
(1040,305,o),
(914,436,cs),
(873,479,o),
(830,523,o),
(791,566,c),
(817,562,o),
(834,561,o),
(860,561,cs),
(1120,561,o),
(1376,763,o),
(1376,1063,cs),
(1376,1402,o),
(1139,1533,o),
(781,1533,cs),
(335,1533,ls),
(279,1533,o),
(256,1492,o),
(256,1445,cs),
(256,63,ls)
);
},
{
closed = 1;
nodes = (
(774,1315,ls),
(957,1315,o),
(1125,1251,o),
(1125,1049,cs),
(1125,826,o),
(928,741,o),
(725,741,cs),
(652,741,o),
(568,752,o),
(505,767,c),
(505,1315,l)
);
}
);
width = 1555;
},
{
anchors = (
{
name = bottom;
pos = (759,0);
},
{
name = top;
pos = (759,1533);
}
);
guides = (
{
angle = 90;
pos = (477,0);
},
{
angle = 90;
pos = (755,0);
}
);
layerId = m002;
shapes = (
{
closed = 1;
nodes = (
(226,40,o),
(242,0,o),
(282,0,cs),
(425,0,ls),
(459,0,o),
(475,36,o),
(475,63,cs),
(475,576,l),
(551,508,o),
(659,336,o),
(806,193,cs),
(929,73,o),
(1042,-17,o),
(1222,-17,cs),
(1311,-17,o),
(1426,35,o),
(1426,98,cs),
(1426,119,o),
(1418,142,o),
(1411,168,cs),
(1403,199,o),
(1391,229,o),
(1354,229,cs),
(1333,229,o),
(1281,215,o),
(1251,215,cs),
(1113,215,o),
(1010,305,o),
(884,436,cs),
(843,479,o),
(800,523,o),
(761,566,c),
(787,562,o),
(804,561,o),
(830,561,cs),
(1090,561,o),
(1346,763,o),
(1346,1063,cs),
(1346,1402,o),
(1109,1533,o),
(751,1533,cs),
(305,1533,ls),
(249,1533,o),
(226,1492,o),
(226,1445,cs),
(226,63,ls)
);
},
{
closed = 1;
nodes = (
(744,1315,ls),
(927,1315,o),
(1095,1251,o),
(1095,1049,cs),
(1095,826,o),
(898,741,o),
(695,741,cs),
(622,741,o),
(538,752,o),
(475,767,c),
(475,1315,l)
);
}
);
width = 1525;
},
{
anchors = (
{
name = bottom;
pos = (723,0);
},
{
name = top;
pos = (723,1533);
}
);
guides = (
{
angle = 90;
pos = (441,0);
},
{
angle = 90;
pos = (719,0);
}
);
layerId = m003;
shapes = (
{
closed = 1;
nodes = (
(190,40,o),
(206,0,o),
(246,0,cs),
(389,0,ls),
(423,0,o),
(439,36,o),
(439,63,cs),
(439,576,l),
(515,508,o),
(623,336,o),
(770,193,cs),
(893,73,o),
(1006,-17,o),
(1186,-17,cs),
(1275,-17,o),
(1390,35,o),
(1390,98,cs),
(1390,119,o),
(1382,142,o),
(1375,168,cs),
(1367,199,o),
(1355,229,o),
(1318,229,cs),
(1297,229,o),
(1245,215,o),
(1215,215,cs),
(1077,215,o),
(974,305,o),
(848,436,cs),
(807,479,o),
(764,523,o),
(725,566,c),
(751,562,o),
(768,561,o),
(794,561,cs),
(1054,561,o),
(1310,763,o),
(1310,1063,cs),
(1310,1402,o),
(1073,1533,o),
(715,1533,cs),
(269,1533,ls),
(213,1533,o),
(190,1492,o),
(190,1445,cs),
(190,63,ls)
);
},
{
closed = 1;
nodes = (
(708,1315,ls),
(891,1315,o),
(1059,1251,o),
(1059,1049,cs),
(1059,826,o),
(862,741,o),
(659,741,cs),
(586,741,o),
(502,752,o),
(439,767,c),
(439,1315,l)
);
}
);
width = 1489;
}
);
metricLeft = H;
unicode = 82;
}
{
color = 6;
glyphname = S;
layers = (
{
anchors = (
{
name = bottom;
pos = (610,0);
},
{
name = top;
pos = (619,1533);
}
);
layerId = "997F8AB0-1B91-48A1-A6B5-F95345F1D981";
shapes = (
{
closed = 1;
nodes = (
(874,-25,o),
(1137,147,o),
(1137,441,cs),
(1137,741,o),
(866,858,o),
(675,931,cs),
(557,976,o),
(435,1018,o),
(435,1134,cs),
(435,1221,o),
(504,1265,o),
(611,1265,cs),
(714,1265,o),
(803,1224,o),
(886,1172,c),
(904,1159,o),
(925,1153,o),
(946,1153,cs),
(989,1153,o),
(1016,1178,o),
(1057,1250,cs),
(1078,1287,o),
(1092,1317,o),
(1092,1344,cs),
(1092,1428,o),
(952,1491,o),
(878,1517,cs),
(806,1542,o),
(722,1558,o),
(632,1558,cs),
(359,1558,o),
(100,1410,o),
(100,1120,cs),
(100,825,o),
(367,711,o),
(531,646,cs),
(678,588,o),
(809,542,o),
(809,421,cs),
(809,329,o),
(734,270,o),
(606,270,cs),
(459,270,o),
(392,308,o),
(267,370,cs),
(245,381,o),
(234,384,o),
(219,384,cs),
(159,384,o),
(131,337,o),
(109,292,cs),
(87,246,o),
(83,225,o),
(83,208,cs),
(83,109,o),
(213,47,o),
(322,15,cs),
(414,-12,o),
(512,-25,o),
(592,-25,cs)
);
}
);
width = 1210;
},
{
anchors = (
{
name = bottom;
pos = (567,0);
},
{
name = top;
pos = (588,1533);
}
);
background = {
shapes = (
{
closed = 1;
nodes = (
(806,-23,o),
(1030,138,o),
(1030,409,cs),
(1030,684,o),
(798,794,o),
(614,871,cs),
(481,927,o),
(320,989,o),
(320,1170,cs),
(320,1322,o),
(434,1397,o),
(575,1397,cs),
(721,1397,o),
(839,1316,o),
(893,1279,cs),
(898,1276,o),
(902,1273,o),
(908,1273,cs),
(922,1273,o),
(932,1286,o),
(958,1337,cs),
(977,1374,o),
(984,1392,o),
(984,1401,cs),
(984,1438,o),
(868,1500,o),
(817,1520,cs),
(756,1544,o),
(667,1556,o),
(595,1556,cs),
(349,1556,o),
(131,1415,o),
(131,1165,cs),
(131,897,o),
(381,768,o),
(524,708,cs),
(677,644,o),
(848,572,o),
(848,386,cs),
(848,230,o),
(728,138,o),
(565,138,cs),
(412,138,o),
(276,219,o),
(210,258,cs),
(206,260,o),
(202,263,o),
(195,263,cs),
(177,263,o),
(161,240,o),
(145,207,cs),
(122,159,o),
(114,141,o),
(114,134,cs),
(114,106,o),
(228,44,o),
(303,18,cs),
(384,-10,o),
(496,-23,o),
(565,-23,cs)
);
}
);
};
guides = (
{
angle = 90;
pos = (574,0);
}
);
layerId = m001;
shapes = (
{
closed = 1;
nodes = (
(834,-25,o),
(1030,147,o),
(1030,409,cs),
(1030,654,o),
(878,760,o),
(614,871,cs),
(481,927,o),
(320,989,o),
(320,1170,cs),
(320,1278,o),
(376,1397,o),
(575,1397,cs),
(692,1397,o),
(777,1357,o),
(872,1292,cs),
(891,1279,o),
(899,1274,o),
(909,1274,cs),
(920,1274,o),
(931,1281,o),
(943,1300,cs),
(971,1346,o),
(987,1381,o),
(987,1395,cs),
(987,1437,o),
(868,1500,o),
(817,1520,cs),
(756,1544,o),
(667,1558,o),
(595,1558,cs),
(291,1558,o),
(131,1371,o),
(131,1165,cs),
(131,897,o),
(381,768,o),
(524,708,cs),
(737,618,o),
(848,552,o),
(848,386,cs),
(848,249,o),
(739,138,o),
(556,138,cs),
(443,138,o),
(326,185,o),
(232,247,cs),
(218,256,o),
(207,263,o),
(194,263,cs),
(179,263,o),
(168,255,o),
(156,233,cs),
(116,160,o),
(116,149,o),
(116,136,cs),
(116,106,o),
(227,44,o),
(302,18,cs),
(383,-10,o),
(456,-25,o),
(565,-25,cs)
);
}
);
width = 1134;
},
{
anchors = (
{
name = bottom;
pos = (597,0);
},
{
name = top;
pos = (605,1533);
}
);
guides = (
{
angle = 90;
pos = (604,0);
}
);
layerId = m002;
shapes = (
{
closed = 1;
nodes = (
(845,-25,o),
(1094,141,o),
(1094,426,cs),
(1094,698,o),
(868,820,o),
(659,901,cs),
(531,951,o),
(384,1008,o),
(384,1147,cs),
(384,1271,o),
(478,1328,o),
(604,1328,cs),
(720,1328,o),
(820,1278,o),
(905,1222,cs),
(918,1213,o),
(930,1210,o),
(941,1210,cs),
(967,1210,o),
(986,1231,o),
(1018,1292,cs),
(1036,1326,o),
(1048,1349,o),
(1048,1371,cs),
(1048,1438,o),
(910,1503,o),
(861,1521,cs),
(792,1546,o),
(711,1558,o),
(617,1558,cs),
(373,1558,o),
(127,1412,o),
(127,1152,cs),
(127,898,o),
(337,751,o),
(544,673,cs),
(697,615,o),
(844,543,o),
(844,413,cs),
(844,277,o),
(744,207,o),
(596,207,cs),
(459,207,o),
(338,270,o),
(254,318,cs),
(243,324,o),
(233,326,o),
(224,326,cs),
(187,326,o),
(163,287,o),
(145,251,cs),
(123,208,o),
(110,183,o),
(110,162,cs),
(110,102,o),
(251,39,o),
(323,16,cs),
(409,-11,o),
(510,-25,o),
(607,-25,cs)
);
}
);
width = 1194;
}
);
unicode = 83;
userData = {
KernOnName = S;
};
}
{
color = 6;
glyphname = T;
layers = (
{
anchors = (
{
name = bottom;
pos = (607,0);
},
{
name = center;
pos = (609,767);
},
{
name = top;
pos = (609,1533);
}
);
background = {
shapes = (
{
closed = 1;
nodes = (
(676,0,ls),
(728,0,o),
(772,43,o),
(772,98,cs),
(772,1251,l),
(1102,1251,ls),
(1158,1251,o),
(1196,1291,o),
(1196,1342,cs),
(1196,1441,ls),
(1196,1493,o),
(1159,1533,o),
(1103,1533,cs),
(125,1533,ls),
(69,1533,o),
(22,1493,o),
(22,1442,cs),
(22,1343,ls),
(22,1291,o),
(69,1251,o),
(125,1251,cs),
(442,1251,l),
(442,98,ls),
(442,43,o),
(486,0,o),
(537,0,cs)
);
}
);
};
layerId = "997F8AB0-1B91-48A1-A6B5-F95345F1D981";
shapes = (
{
closed = 1;
nodes = (
(663,0,ls),
(728,0,o),
(772,48,o),
(772,111,cs),
(772,1251,l),
(1087,1251,ls),
(1152,1251,o),
(1196,1299,o),
(1196,1362,cs),
(1196,1422,ls),
(1196,1485,o),
(1152,1533,o),
(1087,1533,cs),
(131,1533,ls),
(66,1533,o),
(22,1485,o),
(22,1422,cs),
(22,1362,ls),
(22,1299,o),
(66,1251,o),
(131,1251,cs),
(442,1251,l),
(442,111,ls),
(442,48,o),
(486,0,o),
(551,0,cs)
);
}
);
width = 1218;
},
{
anchors = (
{
name = bottom;
pos = (565,0);
},
{
name = center;
pos = (576,767);
},
{
name = top;
pos = (576,1533);
}
);
background = {
shapes = (
{
closed = 1;
nodes = (
(604,0,ls),
(635,0,o),
(660,29,o),
(660,64,cs),
(660,1362,l),
(1074,1362,ls),
(1109,1362,o),
(1128,1387,o),
(1128,1418,cs),
(1128,1476,ls),
(1128,1508,o),
(1110,1533,o),
(1075,1533,cs),
(68,1533,ls),
(33,1533,o),
(5,1508,o),
(5,1477,cs),
(5,1419,ls),
(5,1387,o),
(33,1362,o),
(68,1362,cs),
(469,1362,l),
(469,64,ls),
(469,29,o),
(494,0,o),
(524,0,cs)
);
}
);
};
layerId = m001;
shapes = (
{
closed = 1;
nodes = (
(617,0,ls),
(648,0,o),
(660,18,o),
(660,52,cs),
(660,1362,l),
(1085,1362,ls),
(1116,1362,o),
(1128,1380,o),
(1128,1414,cs),
(1128,1481,ls),
(1128,1515,o),
(1116,1533,o),
(1085,1533,cs),
(48,1533,ls),
(17,1533,o),
(5,1515,o),
(5,1481,cs),
(5,1414,ls),
(5,1380,o),
(17,1362,o),
(48,1362,cs),
(469,1362,l),
(469,52,ls),
(469,18,o),
(481,0,o),
(512,0,cs)
);
}
);
width = 1132;
},
{
anchors = (
{
name = bottom;
pos = (596,0);
},
{
name = center;
pos = (596,767);
},
{
name = top;
pos = (596,1533);
}
);
background = {
hints = (
{
name = _corner.round;
origin = (0,0);
scale = (-1,1);
type = Corner;
},
{
name = _corner.round;
origin = (0,2);
scale = (-1,1);
type = Corner;
},
{
name = _corner.round;
origin = (0,3);
type = Corner;
},
{
name = _corner.round;
origin = (0,4);
scale = (-1,1);
type = Corner;
},
{
name = _corner.round;
origin = (0,5);
type = Corner;
},
{
name = _corner.round;
origin = (0,7);
type = Corner;
}
);
shapes = (
{
closed = 1;
nodes = (
(720,0,l),
(720,1315,l),
(1148,1315,l),
(1148,1533,l),
(44,1533,l),
(44,1315,l),
(468,1315,l),
(468,0,l)
);
}
);
};
layerId = m002;
shapes = (
{
closed = 1;
nodes = (
(665,0,ls),
(695,0,o),
(720,29,o),
(720,64,cs),
(720,1315,l),
(1093,1315,ls),
(1123,1315,o),
(1148,1344,o),
(1148,1379,cs),
(1148,1469,ls),
(1148,1504,o),
(1123,1533,o),
(1093,1533,cs),
(99,1533,ls),
(69,1533,o),
(44,1504,o),
(44,1469,cs),
(44,1379,ls),
(44,1344,o),
(69,1315,o),
(99,1315,cs),
(468,1315,l),
(468,64,ls),
(468,29,o),
(493,0,o),
(523,0,cs)
);
}
);
width = 1192;
}
);
unicode = 84;
userData = {
KernOnName = T;
};
}
{
color = 4;
glyphname = U;
layers = (
{
anchors = (
{
name = bottom;
pos = (765,0);
},
{
name = ogonek;
pos = (926,10);
},
{
name = top;
pos = (765,1533);
},
{
name = topright;
pos = (1212,1533);
}
);
guides = (
{
pos = (0,610);
}
);
layerId = m001;
shapes = (
{
closed = 1;
nodes = (
(155,197,o),
(419,-26,o),
(763,-26,cs),
(1097,-26,o),
(1373,183,o),
(1373,613,cs),
(1373,1469,ls),
(1373,1504,o),
(1349,1533,o),
(1318,1533,cs),
(1181,1533,ls),
(1151,1533,o),
(1125,1504,o),
(1125,1469,cs),
(1125,611,ls),
(1125,349,o),
(1017,198,o),
(762,198,cs),
(552,198,o),
(403,325,o),
(403,611,cs),
(403,1469,ls),
(403,1504,o),
(378,1533,o),
(348,1533,cs),
(211,1533,ls),
(180,1533,o),
(155,1504,o),
(155,1469,cs),
(155,613,ls)
);
}
);
width = 1529;
},
{
anchors = (
{
name = bottom;
pos = (765,0);
},
{
name = ogonek;
pos = (926,10);
},
{
name = top;
pos = (765,1533);
},
{
name = topright;
pos = (1212,1533);
}
);
guides = (
{
pos = (0,610);
}
);
layerId = m002;
shapes = (
{
closed = 1;
nodes = (
(155,197,o),
(419,-26,o),
(763,-26,cs),
(1097,-26,o),
(1373,183,o),
(1373,613,cs),
(1373,1469,ls),
(1373,1504,o),
(1349,1533,o),
(1318,1533,cs),
(1181,1533,ls),
(1151,1533,o),
(1125,1504,o),
(1125,1469,cs),
(1125,611,ls),
(1125,349,o),
(1017,198,o),
(762,198,cs),
(552,198,o),
(403,325,o),
(403,611,cs),
(403,1469,ls),
(403,1504,o),
(378,1533,o),
(348,1533,cs),
(211,1533,ls),
(180,1533,o),
(155,1504,o),
(155,1469,cs),
(155,613,ls)
);
}
);
width = 1529;
},
{
anchors = (
{
name = bottom;
pos = (765,0);
},
{
name = ogonek;
pos = (926,10);
},
{
name = top;
pos = (765,1533);
},
{
name = topright;
pos = (1212,1533);
}
);
guides = (
{
pos = (0,610);
}
);
layerId = m003;
shapes = (
{
closed = 1;
nodes = (
(155,197,o),
(419,-26,o),
(763,-26,cs),
(1097,-26,o),
(1373,183,o),
(1373,613,cs),
(1373,1469,ls),
(1373,1504,o),
(1349,1533,o),
(1318,1533,cs),
(1181,1533,ls),
(1151,1533,o),
(1125,1504,o),
(1125,1469,cs),
(1125,611,ls),
(1125,349,o),
(1017,198,o),
(762,198,cs),
(552,198,o),
(403,325,o),
(403,611,cs),
(403,1469,ls),
(403,1504,o),
(378,1533,o),
(348,1533,cs),
(211,1533,ls),
(180,1533,o),
(155,1504,o),
(155,1469,cs),
(155,613,ls)
);
}
);
width = 1529;
}
);
unicode = 85;
}
{
color = 4;
glyphname = V;
layers = (
{
anchors = (
{
name = bottom;
pos = (677,0);
},
{
name = top;
pos = (677,1533);
}
);
layerId = m001;
shapes = (
{
closed = 1;
nodes = (
(284,1512,o),
(264,1533,o),
(237,1533,cs),
(66,1533,ls),
(35,1533,o),
(20,1506,o),
(20,1479,cs),
(20,1471,o),
(22,1463,o),
(24,1456,cs),
(481,111,ls),
(512,21,o),
(558,0,o),
(653,0,cs),
(706,0,ls),
(820,0,o),
(840,40,o),
(869,99,cs),
(994,352,o),
(1287,1104,o),
(1324,1451,cs),
(1325,1457,o),
(1325,1464,o),
(1325,1470,cs),
(1325,1507,o),
(1300,1533,o),
(1251,1533,cs),
(1140,1533,ls),
(1114,1533,o),
(1074,1519,o),
(1065,1467,cs),
(990,1038,o),
(845,615,o),
(698,237,cs),
(696,233,o),
(690,231,o),
(684,231,cs),
(678,231,o),
(673,233,o),
(672,236,cs),
(291,1488,ls)
);
}
);
width = 1345;
},
{
anchors = (
{
name = bottom;
pos = (677,0);
},
{
name = top;
pos = (677,1533);
}
);
layerId = m002;
shapes = (
{
closed = 1;
nodes = (
(284,1512,o),
(264,1533,o),
(237,1533,cs),
(66,1533,ls),
(35,1533,o),
(20,1506,o),
(20,1479,cs),
(20,1471,o),
(22,1463,o),
(24,1456,cs),
(481,111,ls),
(512,21,o),
(558,0,o),
(653,0,cs),
(706,0,ls),
(820,0,o),
(840,40,o),
(869,99,cs),
(994,352,o),
(1287,1104,o),
(1324,1451,cs),
(1325,1457,o),
(1325,1464,o),
(1325,1470,cs),
(1325,1507,o),
(1300,1533,o),
(1251,1533,cs),
(1140,1533,ls),
(1114,1533,o),
(1074,1519,o),
(1065,1467,cs),
(990,1038,o),
(845,615,o),
(698,237,cs),
(696,233,o),
(690,231,o),
(684,231,cs),
(678,231,o),
(673,233,o),
(672,236,cs),
(291,1488,ls)
);
}
);
width = 1345;
},
{
anchors = (
{
name = bottom;
pos = (682,0);
},
{
name = top;
pos = (682,1533);
}
);
layerId = m003;
shapes = (
{
closed = 1;
nodes = (
(289,1512,o),
(269,1533,o),
(242,1533,cs),
(71,1533,ls),
(40,1533,o),
(25,1506,o),
(25,1479,cs),
(25,1471,o),
(27,1463,o),
(29,1456,cs),
(486,111,ls),
(517,21,o),
(563,0,o),
(658,0,cs),
(711,0,ls),
(825,0,o),
(845,40,o),
(874,99,cs),
(999,352,o),
(1292,1104,o),
(1329,1451,cs),
(1330,1457,o),
(1330,1464,o),
(1330,1470,cs),
(1330,1507,o),
(1305,1533,o),
(1256,1533,cs),
(1145,1533,ls),
(1119,1533,o),
(1079,1519,o),
(1070,1467,cs),
(995,1038,o),
(850,615,o),
(703,237,cs),
(701,233,o),
(695,231,o),
(689,231,cs),
(683,231,o),
(678,233,o),
(677,236,cs),
(296,1488,ls)
);
}
);
width = 1364;
}
);
unicode = 86;
}
{
color = 4;
glyphname = W;
layers = (
{
anchors = (
{
name = bottom;
pos = (1029,0);
},
{
name = top;
pos = (1029,1533);
}
);
guides = (
{
pos = (-78,1488);
},
{
pos = (-78,405);
},
{
pos = (-78,1328);
}
);
layerId = m001;
shapes = (
{
closed = 1;
nodes = (
(1673,0,o),
(1715,54,o),
(1770,198,cs),
(1833,361,o),
(1933,697,o),
(1983,961,cs),
(2023,1174,o),
(2032,1349,o),
(2032,1421,cs),
(2032,1489,o),
(2016,1533,o),
(1945,1533,cs),
(1854,1533,ls),
(1772,1533,o),
(1768,1471,o),
(1768,1411,cs),
(1768,1301,o),
(1763,1219,o),
(1736,1011,cs),
(1701,736,o),
(1606,368,o),
(1552,225,cs),
(1547,211,o),
(1540,208,o),
(1534,208,cs),
(1528,208,o),
(1521,211,o),
(1518,224,cs),
(1364,848,ls),
(1341,941,o),
(1280,1184,o),
(1215,1391,cs),
(1193,1462,o),
(1151,1488,o),
(1091,1488,cs),
(991,1488,ls),
(915,1488,o),
(881,1450,o),
(868,1391,cs),
(823,1195,o),
(789,1003,o),
(744,812,cs),
(698,620,o),
(653,418,o),
(584,242,cs),
(576,222,o),
(568,219,o),
(562,219,cs),
(548,219,o),
(548,235,o),
(546,245,cs),
(534,321,o),
(461,679,o),
(447,742,cs),
(283,1472,ls),
(274,1514,o),
(251,1533,o),
(222,1533,cs),
(79,1533,ls),
(42,1533,o),
(20,1505,o),
(20,1463,cs),
(20,1452,o),
(21,1441,o),
(24,1429,cs),
(348,166,ls),
(378,48,o),
(427,0,o),
(527,0,cs),
(607,0,ls),
(723,0,o),
(747,41,o),
(793,170,cs),
(860,355,o),
(908,546,o),
(950,739,cs),
(966,815,o),
(987,935,o),
(1035,1196,cs),
(1035,1199,o),
(1038,1201,o),
(1040,1201,cs),
(1042,1201,o),
(1045,1201,o),
(1046,1196,cs),
(1302,175,ls),
(1333,54,o),
(1398,0,o),
(1493,0,cs),
(1572,0,ls)
);
}
);
width = 2052;
},
{
anchors = (
{
name = bottom;
pos = (1029,0);
},
{
name = top;
pos = (1029,1533);
}
);
guides = (
{
pos = (-78,1488);
},
{
pos = (-78,405);
},
{
pos = (-78,1328);
}
);
layerId = m002;
shapes = (
{
closed = 1;
nodes = (
(1673,0,o),
(1715,54,o),
(1770,198,cs),
(1833,361,o),
(1933,697,o),
(1983,961,cs),
(2023,1174,o),
(2032,1349,o),
(2032,1421,cs),
(2032,1489,o),
(2016,1533,o),
(1945,1533,cs),
(1854,1533,ls),
(1772,1533,o),
(1768,1471,o),
(1768,1411,cs),
(1768,1301,o),
(1763,1219,o),
(1736,1011,cs),
(1701,736,o),
(1606,368,o),
(1552,225,cs),
(1547,211,o),
(1540,208,o),
(1534,208,cs),
(1528,208,o),
(1521,211,o),
(1518,224,cs),
(1364,848,ls),
(1341,941,o),
(1280,1184,o),
(1215,1391,cs),
(1193,1462,o),
(1151,1488,o),
(1091,1488,cs),
(991,1488,ls),
(915,1488,o),
(881,1450,o),
(868,1391,cs),
(823,1195,o),
(789,1003,o),
(744,812,cs),
(698,620,o),
(653,418,o),
(584,242,cs),
(576,222,o),
(568,219,o),
(562,219,cs),
(548,219,o),
(548,235,o),
(546,245,cs),
(534,321,o),
(461,679,o),
(447,742,cs),
(283,1472,ls),
(274,1514,o),
(251,1533,o),
(222,1533,cs),
(79,1533,ls),
(42,1533,o),
(20,1505,o),
(20,1463,cs),
(20,1452,o),
(21,1441,o),
(24,1429,cs),
(348,166,ls),
(378,48,o),
(427,0,o),
(527,0,cs),
(607,0,ls),
(723,0,o),
(747,41,o),
(793,170,cs),
(860,355,o),
(908,546,o),
(950,739,cs),
(966,815,o),
(987,935,o),
(1035,1196,cs),
(1035,1199,o),
(1038,1201,o),
(1040,1201,cs),
(1042,1201,o),
(1045,1201,o),
(1046,1196,cs),
(1302,175,ls),
(1333,54,o),
(1398,0,o),
(1493,0,cs),
(1572,0,ls)
);
}
);
width = 2052;
},
{
anchors = (
{
name = bottom;
pos = (1029,0);
},
{
name = top;
pos = (1029,1533);
}
);
guides = (
{
pos = (-78,1488);
},
{
pos = (-78,405);
},
{
pos = (-78,1328);
}
);
layerId = m003;
shapes = (
{
closed = 1;
nodes = (
(1673,0,o),
(1715,54,o),
(1770,198,cs),
(1833,361,o),
(1933,697,o),
(1983,961,cs),
(2023,1174,o),
(2032,1349,o),
(2032,1421,cs),
(2032,1489,o),
(2016,1533,o),
(1945,1533,cs),
(1854,1533,ls),
(1772,1533,o),
(1768,1471,o),
(1768,1411,cs),
(1768,1301,o),
(1763,1219,o),
(1736,1011,cs),
(1701,736,o),
(1606,368,o),
(1552,225,cs),
(1547,211,o),
(1540,208,o),
(1534,208,cs),
(1528,208,o),
(1521,211,o),
(1518,224,cs),
(1364,848,ls),
(1341,941,o),
(1280,1184,o),
(1215,1391,cs),
(1193,1462,o),
(1151,1488,o),
(1091,1488,cs),
(991,1488,ls),
(915,1488,o),
(881,1450,o),
(868,1391,cs),
(823,1195,o),
(789,1003,o),
(744,812,cs),
(698,620,o),
(653,418,o),
(584,242,cs),
(576,222,o),
(568,219,o),
(562,219,cs),
(548,219,o),
(548,235,o),
(546,245,cs),
(534,321,o),
(461,679,o),
(447,742,cs),
(283,1472,ls),
(274,1514,o),
(251,1533,o),
(222,1533,cs),
(79,1533,ls),
(42,1533,o),
(20,1505,o),
(20,1463,cs),
(20,1452,o),
(21,1441,o),
(24,1429,cs),
(348,166,ls),
(378,48,o),
(427,0,o),
(527,0,cs),
(607,0,ls),
(723,0,o),
(747,41,o),
(793,170,cs),
(860,355,o),
(908,546,o),
(950,739,cs),
(966,815,o),
(987,935,o),
(1035,1196,cs),
(1035,1199,o),
(1038,1201,o),
(1040,1201,cs),
(1042,1201,o),
(1045,1201,o),
(1046,1196,cs),
(1302,175,ls),
(1333,54,o),
(1398,0,o),
(1493,0,cs),
(1572,0,ls)
);
}
);
width = 2052;
}
);
unicode = 87;
}
{
color = 4;
glyphname = X;
layers = (
{
anchors = (
{
name = bottom;
pos = (658,0);
},
{
name = top;
pos = (658,1533);
}
);
layerId = m001;
shapes = (
{
closed = 1;
nodes = (
(1004,48,ls),
(1017,27,o),
(1034,0,o),
(1079,0,cs),
(1234,0,ls),
(1263,0,o),
(1280,22,o),
(1280,49,cs),
(1280,62,o),
(1276,76,o),
(1267,90,cs),
(1108,327,o),
(949,552,o),
(791,787,c),
(1212,1445,ls),
(1220,1458,o),
(1224,1472,o),
(1224,1485,cs),
(1224,1512,o),
(1206,1533,o),
(1177,1533,cs),
(1028,1533,ls),
(980,1533,o),
(965,1506,o),
(953,1485,cs),
(644,963,l),
(317,1485,ls),
(304,1506,o),
(288,1533,o),
(240,1533,cs),
(87,1533,ls),
(58,1533,o),
(40,1511,o),
(40,1484,cs),
(40,1471,o),
(45,1456,o),
(54,1443,cs),
(503,781,l),
(72,90,ls),
(63,76,o),
(59,62,o),
(59,48,cs),
(59,21,o),
(76,0,o),
(105,0,cs),
(243,0,ls),
(291,0,o),
(307,27,o),
(320,48,cs),
(650,594,l)
);
}
);
width = 1320;
},
{
anchors = (
{
name = bottom;
pos = (678,0);
},
{
name = top;
pos = (678,1533);
}
);
layerId = m002;
shapes = (
{
closed = 1;
nodes = (
(1024,48,ls),
(1037,27,o),
(1054,0,o),
(1099,0,cs),
(1254,0,ls),
(1283,0,o),
(1300,22,o),
(1300,49,cs),
(1300,62,o),
(1296,76,o),
(1287,90,cs),
(1128,327,o),
(969,552,o),
(811,787,c),
(1232,1445,ls),
(1240,1458,o),
(1244,1472,o),
(1244,1485,cs),
(1244,1512,o),
(1226,1533,o),
(1197,1533,cs),
(1048,1533,ls),
(1000,1533,o),
(985,1506,o),
(973,1485,cs),
(664,963,l),
(337,1485,ls),
(324,1506,o),
(308,1533,o),
(260,1533,cs),
(107,1533,ls),
(78,1533,o),
(60,1511,o),
(60,1484,cs),
(60,1471,o),
(65,1456,o),
(74,1443,cs),
(523,781,l),
(92,90,ls),
(83,76,o),
(79,62,o),
(79,48,cs),
(79,21,o),
(96,0,o),
(125,0,cs),
(263,0,ls),
(311,0,o),
(327,27,o),
(340,48,cs),
(670,594,l)
);
}
);
width = 1360;
},
{
anchors = (
{
name = bottom;
pos = (678,0);
},
{
name = top;
pos = (678,1533);
}
);
layerId = m003;
shapes = (
{
closed = 1;
nodes = (
(1024,48,ls),
(1037,27,o),
(1054,0,o),
(1099,0,cs),
(1254,0,ls),
(1283,0,o),
(1300,22,o),
(1300,49,cs),
(1300,62,o),
(1296,76,o),
(1287,90,cs),
(1128,327,o),
(969,552,o),
(811,787,c),
(1232,1445,ls),
(1240,1458,o),
(1244,1472,o),
(1244,1485,cs),
(1244,1512,o),
(1226,1533,o),
(1197,1533,cs),
(1048,1533,ls),
(1000,1533,o),
(985,1506,o),
(973,1485,cs),
(664,963,l),
(337,1485,ls),
(324,1506,o),
(308,1533,o),
(260,1533,cs),
(107,1533,ls),
(78,1533,o),
(60,1511,o),
(60,1484,cs),
(60,1471,o),
(65,1456,o),
(74,1443,cs),
(523,781,l),
(92,90,ls),
(83,76,o),
(79,62,o),
(79,48,cs),
(79,21,o),
(96,0,o),
(125,0,cs),
(263,0,ls),
(311,0,o),
(327,27,o),
(340,48,cs),
(670,594,l)
);
}
);
width = 1360;
}
);
unicode = 88;
}
{
color = 4;
glyphname = Y;
layers = (
{
anchors = (
{
name = bottom;
pos = (678,0);
},
{
name = top;
pos = (678,1533);
},
{
name = topleft;
pos = (20,1533);
}
);
layerId = m001;
shapes = (
{
closed = 1;
nodes = (
(793,0,o),
(818,28,o),
(818,64,cs),
(818,530,l),
(1025,826,o),
(1189,1130,o),
(1340,1441,cs),
(1345,1452,o),
(1348,1466,o),
(1348,1479,cs),
(1348,1507,o),
(1332,1533,o),
(1300,1533,cs),
(1145,1533,ls),
(1102,1533,o),
(1085,1513,o),
(1069,1473,cs),
(968,1224,o),
(846,987,o),
(704,759,cs),
(701,753,o),
(698,750,o),
(696,750,cs),
(693,750,o),
(691,753,o),
(688,759,cs),
(289,1490,ls),
(277,1512,o),
(265,1533,o),
(223,1533,cs),
(62,1533,ls),
(35,1533,o),
(16,1510,o),
(16,1483,cs),
(16,1473,o),
(19,1462,o),
(25,1452,cs),
(569,515,l),
(569,64,ls),
(569,29,o),
(594,0,o),
(624,0,cs),
(762,0,ls)
);
}
);
width = 1355;
},
{
anchors = (
{
name = bottom;
pos = (682,0);
},
{
name = top;
pos = (682,1533);
},
{
name = topleft;
pos = (24,1533);
}
);
layerId = m002;
shapes = (
{
closed = 1;
nodes = (
(797,0,o),
(822,28,o),
(822,64,cs),
(822,530,l),
(1029,826,o),
(1193,1130,o),
(1344,1441,cs),
(1349,1452,o),
(1352,1466,o),
(1352,1479,cs),
(1352,1507,o),
(1336,1533,o),
(1304,1533,cs),
(1149,1533,ls),
(1106,1533,o),
(1089,1513,o),
(1073,1473,cs),
(972,1224,o),
(850,987,o),
(708,759,cs),
(705,753,o),
(702,750,o),
(700,750,cs),
(697,750,o),
(695,753,o),
(692,759,cs),
(293,1490,ls),
(281,1512,o),
(269,1533,o),
(227,1533,cs),
(66,1533,ls),
(39,1533,o),
(20,1510,o),
(20,1483,cs),
(20,1473,o),
(23,1462,o),
(29,1452,cs),
(573,515,l),
(573,64,ls),
(573,29,o),
(598,0,o),
(628,0,cs),
(766,0,ls)
);
}
);
width = 1372;
},
{
anchors = (
{
name = bottom;
pos = (682,0);
},
{
name = top;
pos = (682,1533);
},
{
name = topleft;
pos = (24,1533);
}
);
layerId = m003;
shapes = (
{
closed = 1;
nodes = (
(797,0,o),
(822,28,o),
(822,64,cs),
(822,530,l),
(1029,826,o),
(1193,1130,o),
(1344,1441,cs),
(1349,1452,o),
(1352,1466,o),
(1352,1479,cs),
(1352,1507,o),
(1336,1533,o),
(1304,1533,cs),
(1149,1533,ls),
(1106,1533,o),
(1089,1513,o),
(1073,1473,cs),
(972,1224,o),
(850,987,o),
(708,759,cs),
(705,753,o),
(702,750,o),
(700,750,cs),
(697,750,o),
(695,753,o),
(692,759,cs),
(293,1490,ls),
(281,1512,o),
(269,1533,o),
(227,1533,cs),
(66,1533,ls),
(39,1533,o),
(20,1510,o),
(20,1483,cs),
(20,1473,o),
(23,1462,o),
(29,1452,cs),
(573,515,l),
(573,64,ls),
(573,29,o),
(598,0,o),
(628,0,cs),
(766,0,ls)
);
}
);
width = 1372;
}
);
unicode = 89;
}
{
color = 6;
glyphname = Z;
layers = (
{
anchors = (
{
name = bottom;
pos = (607,0);
},
{
name = center;
pos = (605,767);
},
{
name = top;
pos = (607,1533);
}
);
background = {
shapes = (
{
closed = 1;
nodes = (
(1066,0,ls),
(1117,0,o),
(1167,33,o),
(1167,87,cs),
(1167,186,ls),
(1167,257,o),
(1124,286,o),
(1047,286,cs),
(647,286,ls),
(529,286,o),
(463,276,o),
(449,276,cs),
(444,276,o),
(443,278,o),
(443,282,cs),
(443,285,o),
(453,298,o),
(456,302,cs),
(555,436,l),
(1081,1216,ls),
(1108,1256,o),
(1137,1301,o),
(1137,1368,cs),
(1137,1413,ls),
(1137,1509,o),
(1053,1533,o),
(996,1533,cs),
(174,1533,ls),
(98,1533,o),
(68,1501,o),
(68,1448,cs),
(68,1359,ls),
(68,1282,o),
(108,1249,o),
(188,1249,cs),
(527,1249,ls),
(644,1249,o),
(707,1257,o),
(725,1257,cs),
(730,1257,o),
(732,1255,o),
(732,1251,cs),
(732,1248,o),
(724,1237,o),
(721,1233,cs),
(619,1097,l),
(86,303,ls),
(70,279,o),
(47,243,o),
(47,183,cs),
(47,159,o),
(50,136,o),
(53,117,cs),
(66,35,o),
(137,0,o),
(194,0,cs)
);
}
);
};
layerId = "997F8AB0-1B91-48A1-A6B5-F95345F1D981";
shapes = (
{
closed = 1;
nodes = (
(1058,0,ls),
(1123,0,o),
(1167,48,o),
(1167,111,cs),
(1167,175,ls),
(1167,238,o),
(1123,286,o),
(1058,286,cs),
(638,286,ls),
(520,286,o),
(454,276,o),
(440,276,cs),
(435,276,o),
(434,278,o),
(434,282,cs),
(434,285,o),
(444,298,o),
(447,302,cs),
(546,436,l),
(1081,1216,ls),
(1108,1256,o),
(1137,1301,o),
(1137,1368,cs),
(1137,1422,ls),
(1137,1485,o),
(1093,1533,o),
(1028,1533,cs),
(177,1533,ls),
(112,1533,o),
(68,1485,o),
(68,1422,cs),
(68,1360,ls),
(68,1297,o),
(112,1249,o),
(177,1249,cs),
(536,1249,ls),
(653,1249,o),
(716,1257,o),
(734,1257,cs),
(739,1257,o),
(741,1255,o),
(741,1251,cs),
(741,1248,o),
(733,1237,o),
(730,1233,cs),
(628,1097,l),
(86,303,ls),
(70,279,o),
(47,243,o),
(47,183,cs),
(47,111,ls),
(47,48,o),
(91,0,o),
(156,0,cs)
);
}
);
width = 1209;
},
{
anchors = (
{
name = bottom;
pos = (585,0);
},
{
name = center;
pos = (585,767);
},
{
name = top;
pos = (585,1533);
}
);
background = {
hints = (
{
name = _corner.round;
scale = (-1,1);
type = Corner;
},
{
name = _corner.round;
type = Corner;
},
{
name = _corner.round;
type = Corner;
},
{
name = _corner.round;
scale = (-1,1);
type = Corner;
},
{
name = _corner.round;
type = Corner;
},
{
name = _corner.round;
origin = (0,0);
scale = (-1,1);
type = Corner;
},
{
name = _corner.round;
origin = (0,1);
type = Corner;
},
{
name = _corner.round;
origin = (0,17);
type = Corner;
},
{
name = _corner.round;
origin = (0,18);
scale = (-1,1);
type = Corner;
},
{
name = _corner.round;
origin = (0,19);
type = Corner;
},
{
name = _corner.round;
origin = (0,35);
type = Corner;
}
);
shapes = (
{
closed = 1;
nodes = (
(1088,0,l),
(1088,171,l),
(471,171,ls),
(354,171,o),
(291,163,o),
(273,163,cs),
(268,163,o),
(266,165,o),
(266,169,cs),
(266,172,o),
(274,183,o),
(277,187,cs),
(379,323,l),
(1012,1307,ls),
(1036,1344,o),
(1057,1379,o),
(1057,1431,cs),
(1057,1533,l),
(92,1533,l),
(92,1362,l),
(656,1362,ls),
(773,1362,o),
(836,1370,o),
(854,1370,cs),
(859,1370,o),
(861,1368,o),
(861,1364,cs),
(861,1361,o),
(853,1350,o),
(850,1346,cs),
(748,1210,l),
(115,226,ls),
(91,189,o),
(70,154,o),
(70,102,cs),
(70,0,l)
);
}
);
};
guides = (
{
angle = 90;
pos = (537,0);
}
);
layerId = m001;
shapes = (
{
closed = 1;
nodes = (
(1045,0,ls),
(1076,0,o),
(1088,18,o),
(1088,52,cs),
(1088,119,ls),
(1088,153,o),
(1076,171,o),
(1045,171,cs),
(478,171,ls),
(367,171,o),
(304,162,o),
(286,162,cs),
(281,162,o),
(279,164,o),
(279,168,cs),
(279,171,o),
(287,182,o),
(290,186,cs),
(386,323,l),
(1012,1307,ls),
(1036,1344,o),
(1057,1379,o),
(1057,1431,cs),
(1057,1481,ls),
(1057,1515,o),
(1045,1533,o),
(1014,1533,cs),
(135,1533,ls),
(104,1533,o),
(92,1515,o),
(92,1481,cs),
(92,1414,ls),
(92,1380,o),
(104,1362,o),
(135,1362,cs),
(650,1362,ls),
(764,1362,o),
(827,1370,o),
(845,1370,cs),
(850,1370,o),
(852,1368,o),
(852,1364,cs),
(852,1361,o),
(844,1350,o),
(841,1346,cs),
(742,1210,l),
(115,226,ls),
(91,189,o),
(70,154,o),
(70,102,cs),
(70,52,ls),
(70,18,o),
(82,0,o),
(113,0,cs)
);
}
);
width = 1133;
},
{
anchors = (
{
name = bottom;
pos = (597,0);
},
{
name = center;
pos = (597,767);
},
{
name = top;
pos = (597,1533);
}
);
background = {
shapes = (
{
closed = 1;
nodes = (
(1063,0,ls),
(1088,0,o),
(1124,15,o),
(1124,53,cs),
(1124,157,ls),
(1124,212,o),
(1095,223,o),
(1044,223,cs),
(562,223,ls),
(445,223,o),
(382,215,o),
(364,215,cs),
(359,215,o),
(357,217,o),
(357,221,cs),
(357,224,o),
(365,235,o),
(368,239,cs),
(470,375,l),
(1044,1260,ls),
(1071,1301,o),
(1094,1340,o),
(1094,1399,cs),
(1094,1446,ls),
(1094,1523,o),
(1029,1533,o),
(992,1533,cs),
(161,1533,ls),
(114,1533,o),
(95,1522,o),
(95,1483,cs),
(95,1388,ls),
(95,1326,o),
(121,1312,o),
(176,1312,cs),
(598,1312,ls),
(715,1312,o),
(778,1320,o),
(796,1320,cs),
(801,1320,o),
(803,1318,o),
(803,1314,cs),
(803,1311,o),
(795,1300,o),
(792,1296,cs),
(690,1160,l),
(108,259,ls),
(93,235,o),
(74,205,o),
(74,154,cs),
(74,130,o),
(76,109,o),
(80,87,cs),
(89,27,o),
(139,0,o),
(182,0,cs)
);
}
);
};
guides = (
{
angle = 90;
pos = (567,0);
}
);
layerId = m002;
shapes = (
{
closed = 1;
nodes = (
(1069,0,ls),
(1099,0,o),
(1124,29,o),
(1124,64,cs),
(1124,159,ls),
(1124,194,o),
(1099,223,o),
(1069,223,cs),
(562,223,ls),
(445,223,o),
(382,215,o),
(364,215,cs),
(359,215,o),
(357,217,o),
(357,221,cs),
(357,224,o),
(365,235,o),
(368,239,cs),
(470,375,l),
(1044,1260,ls),
(1071,1301,o),
(1094,1340,o),
(1094,1399,cs),
(1094,1469,ls),
(1094,1504,o),
(1069,1533,o),
(1039,1533,cs),
(150,1533,ls),
(120,1533,o),
(95,1504,o),
(95,1469,cs),
(95,1376,ls),
(95,1341,o),
(120,1312,o),
(150,1312,cs),
(598,1312,ls),
(715,1312,o),
(778,1320,o),
(796,1320,cs),
(801,1320,o),
(803,1318,o),
(803,1314,cs),
(803,1311,o),
(795,1300,o),
(792,1296,cs),
(690,1160,l),
(108,259,ls),
(93,235,o),
(74,205,o),
(74,154,cs),
(74,64,ls),
(74,29,o),
(99,0,o),
(129,0,cs)
);
}
);
width = 1193;
}
);
unicode = 90;
userData = {
KernOnName = Z;
KernOnSpecialSpacing = {
L = diagonal;
R = diagonal;
};
};
}
{
color = 5;
glyphname = bracketleft;
layers = (
{
background = {
shapes = (
{
closed = 1;
nodes = (
(693,-357,ls),
(749,-357,o),
(797,-318,o),
(797,-268,cs),
(797,-204,ls),
(797,-153,o),
(749,-114,o),
(693,-114,cs),
(497,-114,l),
(497,1621,l),
(693,1621,ls),
(749,1621,o),
(797,1660,o),
(797,1709,cs),
(797,1775,ls),
(797,1826,o),
(749,1865,o),
(693,1865,cs),
(303,1865,ls),
(251,1865,o),
(207,1822,o),
(207,1767,cs),
(207,-259,ls),
(207,-314,o),
(251,-357,o),
(302,-357,cs)
);
}
);
};
hints = (
{
name = _corner.round;
origin = (0,7);
type = Corner;
},
{
name = _corner.round;
origin = (0,0);
scale = (-1,1);
type = Corner;
},
{
name = _corner.round;
origin = (0,1);
type = Corner;
},
{
name = _corner.round;
origin = (0,6);
scale = (-1,1);
type = Corner;
},
{
name = _corner.round;
origin = (0,5);
type = Corner;
},
{
name = _corner.round;
origin = (0,4);
scale = (-1,1);
type = Corner;
}
);
layerId = "997F8AB0-1B91-48A1-A6B5-F95345F1D981";
shapes = (
{
closed = 1;
nodes = (
(797,-357,l),
(797,-114,l),
(497,-114,l),
(497,1621,l),
(797,1621,l),
(797,1865,l),
(207,1865,l),
(207,-357,l)
);
}
);
width = 934;
},
{
background = {
shapes = (
{
closed = 1;
nodes = (
(623,-298,ls),
(645,-298,o),
(662,-283,o),
(662,-266,cs),
(662,-200,ls),
(662,-182,o),
(645,-167,o),
(623,-167,cs),
(362,-167,l),
(362,1742,l),
(623,1742,ls),
(645,1742,o),
(662,1757,o),
(662,1774,cs),
(662,1841,ls),
(662,1859,o),
(645,1874,o),
(623,1874,cs),
(233,1874,ls),
(218,1874,o),
(202,1856,o),
(202,1833,cs),
(202,-257,ls),
(202,-280,o),
(218,-298,o),
(232,-298,cs)
);
}
);
};
hints = (
{
name = _corner.round;
origin = (0,6);
scale = (-1,1);
type = Corner;
},
{
name = _corner.round;
origin = (0,5);
type = Corner;
},
{
name = _corner.round;
origin = (0,0);
scale = (-1,1);
type = Corner;
},
{
name = _corner.round;
origin = (0,7);
type = Corner;
},
{
name = _corner.round;
origin = (0,1);
type = Corner;
},
{
name = _corner.round;
origin = (0,4);
scale = (-1,1);
type = Corner;
}
);
layerId = m001;
shapes = (
{
closed = 1;
nodes = (
(662,-298,l),
(662,-167,l),
(362,-167,l),
(362,1742,l),
(662,1742,l),
(662,1874,l),
(202,1874,l),
(202,-298,l)
);
}
);
width = 794;
},
{
background = {
shapes = (
{
closed = 1;
nodes = (
(653,-321,ls),
(688,-321,o),
(717,-296,o),
(717,-266,cs),
(717,-200,ls),
(717,-169,o),
(688,-144,o),
(653,-144,cs),
(417,-144,l),
(417,1719,l),
(653,1719,ls),
(688,1719,o),
(717,1744,o),
(717,1774,cs),
(717,1841,ls),
(717,1872,o),
(688,1897,o),
(653,1897,cs),
(263,1897,l),
(232,1897,o),
(207,1868,o),
(207,1833,cs),
(207,-257,ls),
(207,-292,o),
(232,-321,o),
(262,-321,cs)
);
}
);
};
hints = (
{
name = _corner.round;
origin = (0,7);
type = Corner;
},
{
name = _corner.round;
origin = (0,0);
scale = (-1,1);
type = Corner;
},
{
name = _corner.round;
origin = (0,1);
type = Corner;
},
{
name = _corner.round;
origin = (0,6);
scale = (-1,1);
type = Corner;
},
{
name = _corner.round;
origin = (0,5);
type = Corner;
},
{
name = _corner.round;
origin = (0,4);
scale = (-1,1);
type = Corner;
}
);
layerId = m002;
shapes = (
{
closed = 1;
nodes = (
(717,-321,l),
(717,-144,l),
(417,-144,l),
(417,1719,l),
(717,1719,l),
(717,1897,l),
(207,1897,l),
(207,-321,l)
);
}
);
width = 854;
}
);
unicode = 91;
userData = {
KernOnName = bracketleft;
KernOnSpecialSpacing = {
L = NoKerning;
R = parenthesis;
};
};
}
{
color = 5;
glyphname = bracketright;
layers = (
{
background = {
shapes = (
{
closed = 1;
nodes = (
(632,-357,ls),
(683,-357,o),
(727,-314,o),
(727,-259,cs),
(727,1767,ls),
(727,1822,o),
(683,1865,o),
(631,1865,cs),
(241,1865,ls),
(185,1865,o),
(137,1826,o),
(137,1775,cs),
(137,1709,ls),
(137,1660,o),
(185,1621,o),
(241,1621,cs),
(437,1621,l),
(437,-114,l),
(241,-114,ls),
(185,-114,o),
(137,-153,o),
(137,-204,cs),
(137,-268,ls),
(137,-318,o),
(185,-357,o),
(241,-357,cs)
);
}
);
};
layerId = "997F8AB0-1B91-48A1-A6B5-F95345F1D981";
shapes = (
{
alignment = 1;
pos = (934,0);
ref = bracketleft;
scale = (-1,1);
}
);
width = 934;
},
{
background = {
shapes = (
{
closed = 1;
nodes = (
(562,-298,ls),
(576,-298,o),
(592,-280,o),
(592,-257,cs),
(592,1833,ls),
(592,1856,o),
(576,1874,o),
(561,1874,cs),
(171,1874,ls),
(149,1874,o),
(132,1859,o),
(132,1841,cs),
(132,1774,ls),
(132,1757,o),
(149,1742,o),
(171,1742,cs),
(432,1742,l),
(432,-167,l),
(171,-167,ls),
(149,-167,o),
(132,-182,o),
(132,-200,cs),
(132,-266,ls),
(132,-283,o),
(149,-298,o),
(171,-298,cs)
);
}
);
};
layerId = m001;
shapes = (
{
alignment = 1;
pos = (794,0);
ref = bracketleft;
scale = (-1,1);
}
);
width = 794;
},
{
background = {
shapes = (
{
closed = 1;
nodes = (
(592,-321,ls),
(622,-321,o),
(647,-292,o),
(647,-257,cs),
(647,1833,ls),
(647,1868,o),
(622,1897,o),
(591,1897,c),
(201,1897,ls),
(166,1897,o),
(137,1872,o),
(137,1841,cs),
(137,1774,ls),
(137,1744,o),
(166,1719,o),
(201,1719,cs),
(437,1719,l),
(437,-144,l),
(201,-144,ls),
(166,-144,o),
(137,-169,o),
(137,-200,cs),
(137,-266,ls),
(137,-296,o),
(166,-321,o),
(201,-321,cs)
);
}
);
};
layerId = m002;
shapes = (
{
alignment = 1;
pos = (854,0);
ref = bracketleft;
scale = (-1,1);
}
);
width = 854;
}
);
unicode = 93;
userData = {
KernOnSpecialSpacing = {
L = parenthesis;
R = NoKerning;
};
};
}
{
color = 4;
glyphname = asciicircum;
layers = (
{
guides = (
{
pos = (0,850);
},
{
pos = (0,723);
}
);
layerId = m001;
shapes = (
{
closed = 1;
nodes = (
(44,612,o),
(41,598,o),
(41,585,cs),
(41,563,o),
(51,545,o),
(79,535,cs),
(156,507,ls),
(165,503,o),
(174,502,o),
(183,502,cs),
(208,502,o),
(228,517,o),
(239,548,cs),
(509,1277,l),
(779,546,ls),
(790,516,o),
(809,502,o),
(834,502,cs),
(844,502,o),
(856,504,o),
(868,509,cs),
(946,538,ls),
(972,547,o),
(981,564,o),
(981,584,cs),
(981,597,o),
(977,612,o),
(971,627,cs),
(629,1476,ls),
(606,1534,o),
(558,1534,o),
(528,1534,cs),
(476,1534,ls),
(447,1534,o),
(406,1533,o),
(385,1479,cs),
(50,627,ls)
);
}
);
width = 1022;
},
{
guides = (
{
pos = (0,850);
},
{
pos = (0,723);
}
);
layerId = m002;
shapes = (
{
closed = 1;
nodes = (
(44,612,o),
(41,598,o),
(41,585,cs),
(41,563,o),
(51,545,o),
(79,535,cs),
(156,507,ls),
(165,503,o),
(174,502,o),
(183,502,cs),
(208,502,o),
(228,517,o),
(239,548,cs),
(509,1277,l),
(779,546,ls),
(790,516,o),
(809,502,o),
(834,502,cs),
(844,502,o),
(856,504,o),
(868,509,cs),
(946,538,ls),
(972,547,o),
(981,564,o),
(981,584,cs),
(981,597,o),
(977,612,o),
(971,627,cs),
(629,1476,ls),
(606,1534,o),
(558,1534,o),
(528,1534,cs),
(476,1534,ls),
(447,1534,o),
(406,1533,o),
(385,1479,cs),
(50,627,ls)
);
}
);
width = 1022;
},
{
guides = (
{
pos = (0,850);
},
{
pos = (0,723);
}
);
layerId = m003;
shapes = (
{
closed = 1;
nodes = (
(44,612,o),
(41,598,o),
(41,585,cs),
(41,563,o),
(51,545,o),
(79,535,cs),
(156,507,ls),
(165,503,o),
(174,502,o),
(183,502,cs),
(208,502,o),
(228,517,o),
(239,548,cs),
(509,1277,l),
(779,546,ls),
(790,516,o),
(809,502,o),
(834,502,cs),
(844,502,o),
(856,504,o),
(868,509,cs),
(946,538,ls),
(972,547,o),
(981,564,o),
(981,584,cs),
(981,597,o),
(977,612,o),
(971,627,cs),
(629,1476,ls),
(606,1534,o),
(558,1534,o),
(528,1534,cs),
(476,1534,ls),
(447,1534,o),
(406,1533,o),
(385,1479,cs),
(50,627,ls)
);
}
);
width = 1022;
}
);
unicode = 94;
}
{
glyphname = underscore;
layers = (
{
layerId = "997F8AB0-1B91-48A1-A6B5-F95345F1D981";
shapes = (
{
closed = 1;
nodes = (
(1576,-398,ls),
(1628,-398,o),
(1672,-362,o),
(1672,-316,cs),
(1672,-223,ls),
(1672,-177,o),
(1628,-140,o),
(1576,-140,cs),
(37,-140,ls),
(-15,-140,o),
(-58,-177,o),
(-58,-223,cs),
(-58,-315,ls),
(-58,-362,o),
(-15,-398,o),
(37,-398,cs)
);
}
);
width = 1613;
},
{
background = {
shapes = (
{
closed = 1;
nodes = (
(1551,-337,o),
(1562,-327,o),
(1562,-314,cs),
(1562,-219,ls),
(1562,-205,o),
(1551,-195,o),
(1536,-195,cs),
(-3,-195,ls),
(-17,-195,o),
(-28,-205,o),
(-28,-218,cs),
(-28,-313,ls),
(-28,-327,o),
(-17,-337,o),
(-3,-337,cs),
(1536,-337,ls)
);
}
);
};
layerId = m001;
shapes = (
{
closed = 1;
nodes = (
(1506,-337,ls),
(1521,-337,o),
(1532,-327,o),
(1532,-314,cs),
(1532,-219,ls),
(1532,-205,o),
(1521,-195,o),
(1506,-195,cs),
(-33,-195,ls),
(-47,-195,o),
(-58,-205,o),
(-58,-218,cs),
(-58,-313,ls),
(-58,-327,o),
(-47,-337,o),
(-33,-337,cs)
);
}
);
width = 1473;
},
{
layerId = m002;
shapes = (
{
closed = 1;
nodes = (
(1536,-362,ls),
(1567,-362,o),
(1592,-340,o),
(1592,-314,cs),
(1592,-219,ls),
(1592,-192,o),
(1567,-170,o),
(1536,-170,cs),
(-3,-170,ls),
(-33,-170,o),
(-58,-192,o),
(-58,-218,cs),
(-58,-313,ls),
(-58,-340,o),
(-33,-362,o),
(-3,-362,cs)
);
}
);
width = 1533;
}
);
unicode = 95;
userData = {
KernOnName = underscore;
KernOnSpecialSpacing = {
L = underscore;
R = underscore;
};
};
}
{
color = 4;
glyphname = grave;
layers = (
{
anchors = (
{
name = _top;
pos = (349,0);
}
);
guides = (
{
angle = 90;
pos = (349,0);
}
);
layerId = m001;
shapes = (
{
closed = 1;
nodes = (
(456,1281,o),
(466,1286,o),
(472,1295,cs),
(521,1363,ls),
(525,1369,o),
(528,1376,o),
(528,1383,cs),
(528,1396,o),
(520,1407,o),
(508,1418,cs),
(199,1699,ls),
(180,1716,o),
(161,1722,o),
(146,1722,cs),
(125,1722,o),
(109,1712,o),
(100,1700,cs),
(25,1605,ls),
(17,1595,o),
(13,1584,o),
(13,1572,cs),
(14,1553,o),
(23,1528,o),
(53,1510,cs),
(416,1289,ls),
(424,1284,o),
(434,1281,o),
(444,1281,cs)
);
}
);
width = 687;
},
{
anchors = (
{
name = _top;
pos = (349,0);
}
);
guides = (
{
angle = 90;
pos = (349,0);
}
);
layerId = m002;
shapes = (
{
closed = 1;
nodes = (
(456,1281,o),
(466,1286,o),
(472,1295,cs),
(521,1363,ls),
(525,1369,o),
(528,1376,o),
(528,1383,cs),
(528,1396,o),
(520,1407,o),
(508,1418,cs),
(199,1699,ls),
(180,1716,o),
(161,1722,o),
(146,1722,cs),
(125,1722,o),
(109,1712,o),
(100,1700,cs),
(25,1605,ls),
(17,1595,o),
(13,1584,o),
(13,1572,cs),
(14,1553,o),
(23,1528,o),
(53,1510,cs),
(416,1289,ls),
(424,1284,o),
(434,1281,o),
(444,1281,cs)
);
}
);
width = 687;
},
{
anchors = (
{
name = _top;
pos = (349,0);
}
);
guides = (
{
angle = 90;
pos = (349,0);
}
);
layerId = m003;
shapes = (
{
closed = 1;
nodes = (
(456,1281,o),
(466,1286,o),
(472,1295,cs),
(521,1363,ls),
(525,1369,o),
(528,1376,o),
(528,1383,cs),
(528,1396,o),
(520,1407,o),
(508,1418,cs),
(199,1699,ls),
(180,1716,o),
(161,1722,o),
(146,1722,cs),
(125,1722,o),
(109,1712,o),
(100,1700,cs),
(25,1605,ls),
(17,1595,o),
(13,1584,o),
(13,1572,cs),
(14,1553,o),
(23,1528,o),
(53,1510,cs),
(416,1289,ls),
(424,1284,o),
(434,1281,o),
(444,1281,cs)
);
}
);
width = 687;
}
);
unicode = 96;
}
{
color = 4;
glyphname = a;
layers = (
{
anchors = (
{
name = bottom;
pos = (598,0);
},
{
name = ogonek;
pos = (941,10);
},
{
name = top;
pos = (598,1128);
}
);
guides = (
{
pos = (0,179);
},
{
pos = (0,-25);
},
{
angle = 90;
pos = (568,0);
}
);
layerId = m001;
shapes = (
{
closed = 1;
nodes = (
(713,939,o),
(823,850,o),
(823,668,cs),
(823,646,o),
(822,623,o),
(820,600,c),
(718,686,o),
(597,703,o),
(508,703,cs),
(410,703,o),
(311,678,o),
(234,624,cs),
(156,569,o),
(98,482,o),
(98,341,cs),
(98,102,o),
(297,-25,o),
(492,-25,cs),
(677,-25,o),
(803,67,o),
(865,180,c),
(872,145,o),
(879,100,o),
(883,70,cs),
(888,34,o),
(883,0,o),
(942,0,cs),
(1039,0,ls),
(1084,0,o),
(1091,28,o),
(1091,53,cs),
(1089,157,o),
(1050,299,o),
(1002,435,c),
(1023,535,o),
(1035,609,o),
(1035,692,cs),
(1035,899,o),
(937,1045,o),
(781,1112,cs),
(713,1141,o),
(640,1153,o),
(568,1153,cs),
(458,1153,o),
(323,1131,o),
(231,1075,cs),
(192,1051,o),
(165,1023,o),
(165,992,cs),
(165,986,o),
(174,949,o),
(192,912,cs),
(204,887,o),
(219,859,o),
(249,859,cs),
(285,859,o),
(369,939,o),
(534,939,cs)
);
},
{
closed = 1;
nodes = (
(652,508,o),
(772,455,o),
(781,350,c),
(781,274,o),
(678,179,o),
(540,179,cs),
(428,179,o),
(345,237,o),
(345,347,cs),
(345,454,o),
(448,508,o),
(535,508,cs)
);
}
);
width = 1195;
},
{
anchors = (
{
name = bottom;
pos = (598,0);
},
{
name = ogonek;
pos = (941,10);
},
{
name = top;
pos = (598,1128);
}
);
guides = (
{
pos = (0,179);
},
{
pos = (0,-25);
},
{
angle = 90;
pos = (568,0);
}
);
layerId = m002;
shapes = (
{
closed = 1;
nodes = (
(713,939,o),
(823,850,o),
(823,668,cs),
(823,646,o),
(822,623,o),
(820,600,c),
(718,686,o),
(597,703,o),
(508,703,cs),
(410,703,o),
(311,678,o),
(234,624,cs),
(156,569,o),
(98,482,o),
(98,341,cs),
(98,102,o),
(297,-25,o),
(492,-25,cs),
(677,-25,o),
(803,67,o),
(865,180,c),
(872,145,o),
(879,100,o),
(883,70,cs),
(888,34,o),
(883,0,o),
(942,0,cs),
(1039,0,ls),
(1084,0,o),
(1091,28,o),
(1091,53,cs),
(1089,157,o),
(1050,299,o),
(1002,435,c),
(1023,535,o),
(1035,609,o),
(1035,692,cs),
(1035,899,o),
(937,1045,o),
(781,1112,cs),
(713,1141,o),
(640,1153,o),
(568,1153,cs),
(458,1153,o),
(323,1131,o),
(231,1075,cs),
(192,1051,o),
(165,1023,o),
(165,992,cs),
(165,986,o),
(174,949,o),
(192,912,cs),
(204,887,o),
(219,859,o),
(249,859,cs),
(285,859,o),
(369,939,o),
(534,939,cs)
);
},
{
closed = 1;
nodes = (
(652,508,o),
(772,455,o),
(781,350,c),
(781,274,o),
(678,179,o),
(540,179,cs),
(428,179,o),
(345,237,o),
(345,347,cs),
(345,454,o),
(448,508,o),
(535,508,cs)
);
}
);
width = 1195;
},
{
anchors = (
{
name = bottom;
pos = (598,0);
},
{
name = ogonek;
pos = (941,10);
},
{
name = top;
pos = (598,1128);
}
);
guides = (
{
pos = (0,179);
},
{
pos = (0,-25);
},
{
angle = 90;
pos = (568,0);
}
);
layerId = m003;
shapes = (
{
closed = 1;
nodes = (
(713,939,o),
(823,850,o),
(823,668,cs),
(823,646,o),
(822,623,o),
(820,600,c),
(718,686,o),
(597,703,o),
(508,703,cs),
(410,703,o),
(311,678,o),
(234,624,cs),
(156,569,o),
(98,482,o),
(98,341,cs),
(98,102,o),
(297,-25,o),
(492,-25,cs),
(677,-25,o),
(803,67,o),
(865,180,c),
(872,145,o),
(879,100,o),
(883,70,cs),
(888,34,o),
(883,0,o),
(942,0,cs),
(1039,0,ls),
(1084,0,o),
(1091,28,o),
(1091,53,cs),
(1089,157,o),
(1050,299,o),
(1002,435,c),
(1023,535,o),
(1035,609,o),
(1035,692,cs),
(1035,899,o),
(937,1045,o),
(781,1112,cs),
(713,1141,o),
(640,1153,o),
(568,1153,cs),
(458,1153,o),
(323,1131,o),
(231,1075,cs),
(192,1051,o),
(165,1023,o),
(165,992,cs),
(165,986,o),
(174,949,o),
(192,912,cs),
(204,887,o),
(219,859,o),
(249,859,cs),
(285,859,o),
(369,939,o),
(534,939,cs)
);
},
{
closed = 1;
nodes = (
(652,508,o),
(772,455,o),
(781,350,c),
(781,274,o),
(678,179,o),
(540,179,cs),
(428,179,o),
(345,237,o),
(345,347,cs),
(345,454,o),
(448,508,o),
(535,508,cs)
);
}
);
width = 1195;
}
);
unicode = 97;
}
{
color = 4;
glyphname = b;
layers = (
{
anchors = (
{
name = bottom;
pos = (755,0);
},
{
name = center;
pos = (352,1594);
},
{
name = top;
pos = (823,1128);
}
);
guides = (
{
angle = 90;
pos = (216,0);
}
);
layerId = m001;
shapes = (
{
closed = 1;
nodes = (
(214,41,o),
(225,0,o),
(274,0,cs),
(330,0,ls),
(383,0,o),
(408,20,o),
(411,73,cs),
(412,96,o),
(418,140,o),
(421,181,c),
(499,43,o),
(635,-24,o),
(783,-24,cs),
(1054,-24,o),
(1262,219,o),
(1262,603,cs),
(1262,907,o),
(1128,1153,o),
(823,1153,cs),
(704,1153,o),
(565,1123,o),
(457,977,c),
(457,1708,ls),
(457,1744,o),
(433,1773,o),
(403,1773,cs),
(267,1773,ls),
(237,1773,o),
(214,1744,o),
(214,1708,cs),
(214,77,l)
);
},
{
closed = 1;
nodes = (
(565,182,o),
(442,374,o),
(442,569,cs),
(442,773,o),
(565,945,o),
(757,945,cs),
(932,945,o),
(1009,799,o),
(1009,572,cs),
(1009,381,o),
(943,182,o),
(738,182,cs)
);
}
);
width = 1376;
},
{
anchors = (
{
name = bottom;
pos = (755,0);
},
{
name = center;
pos = (352,1594);
},
{
name = top;
pos = (823,1128);
}
);
guides = (
{
angle = 90;
pos = (216,0);
}
);
layerId = m002;
shapes = (
{
closed = 1;
nodes = (
(214,41,o),
(225,0,o),
(274,0,cs),
(330,0,ls),
(383,0,o),
(408,20,o),
(411,73,cs),
(412,96,o),
(418,140,o),
(421,181,c),
(499,43,o),
(635,-24,o),
(783,-24,cs),
(1054,-24,o),
(1262,219,o),
(1262,603,cs),
(1262,907,o),
(1128,1153,o),
(823,1153,cs),
(704,1153,o),
(565,1123,o),
(457,977,c),
(457,1708,ls),
(457,1744,o),
(433,1773,o),
(403,1773,cs),
(267,1773,ls),
(237,1773,o),
(214,1744,o),
(214,1708,cs),
(214,77,l)
);
},
{
closed = 1;
nodes = (
(565,182,o),
(442,374,o),
(442,569,cs),
(442,773,o),
(565,945,o),
(757,945,cs),
(932,945,o),
(1009,799,o),
(1009,572,cs),
(1009,381,o),
(943,182,o),
(738,182,cs)
);
}
);
width = 1376;
},
{
anchors = (
{
name = bottom;
pos = (755,0);
},
{
name = center;
pos = (352,1594);
},
{
name = top;
pos = (823,1128);
}
);
guides = (
{
angle = 90;
pos = (216,0);
}
);
layerId = m003;
shapes = (
{
closed = 1;
nodes = (
(214,41,o),
(225,0,o),
(274,0,cs),
(330,0,ls),
(383,0,o),
(408,20,o),
(411,73,cs),
(412,96,o),
(418,140,o),
(421,181,c),
(499,43,o),
(635,-24,o),
(783,-24,cs),
(1054,-24,o),
(1262,219,o),
(1262,603,cs),
(1262,907,o),
(1128,1153,o),
(823,1153,cs),
(704,1153,o),
(565,1123,o),
(457,977,c),
(457,1708,ls),
(457,1744,o),
(433,1773,o),
(403,1773,cs),
(267,1773,ls),
(237,1773,o),
(214,1744,o),
(214,1708,cs),
(214,77,l)
);
},
{
closed = 1;
nodes = (
(565,182,o),
(442,374,o),
(442,569,cs),
(442,773,o),
(565,945,o),
(757,945,cs),
(932,945,o),
(1009,799,o),
(1009,572,cs),
(1009,381,o),
(943,182,o),
(738,182,cs)
);
}
);
width = 1376;
}
);
metricLeft = h;
unicode = 98;
}
{
color = 4;
glyphname = c;
layers = (
{
anchors = (
{
name = bottom;
pos = (597,0);
},
{
name = top;
pos = (597,1128);
}
);
guides = (
{
angle = 90;
pos = (645,0);
}
);
layerId = m001;
shapes = (
{
closed = 1;
nodes = (
(1029,683,o),
(1083,712,o),
(1083,804,cs),
(1083,973,o),
(970,1153,o),
(663,1153,cs),
(350,1153,o),
(121,937,o),
(121,570,cs),
(121,214,o),
(329,-25,o),
(668,-25,cs),
(818,-25,o),
(1081,57,o),
(1081,176,cs),
(1081,188,o),
(1077,202,o),
(1066,221,cs),
(1044,258,ls),
(1030,281,o),
(1010,291,o),
(989,291,cs),
(935,291,o),
(845,189,o),
(686,189,cs),
(456,189,o),
(374,363,o),
(374,578,cs),
(374,749,o),
(455,949,o),
(659,949,cs),
(766,949,o),
(853,897,o),
(853,764,cs),
(853,717,o),
(872,683,o),
(935,683,cs),
(959,683,ls)
);
}
);
width = 1193;
},
{
anchors = (
{
name = bottom;
pos = (597,0);
},
{
name = top;
pos = (597,1128);
}
);
guides = (
{
angle = 90;
pos = (645,0);
}
);
layerId = m002;
shapes = (
{
closed = 1;
nodes = (
(1029,683,o),
(1083,712,o),
(1083,804,cs),
(1083,973,o),
(970,1153,o),
(663,1153,cs),
(350,1153,o),
(121,937,o),
(121,570,cs),
(121,214,o),
(329,-25,o),
(668,-25,cs),
(818,-25,o),
(1081,57,o),
(1081,176,cs),
(1081,188,o),
(1077,202,o),
(1066,221,cs),
(1044,258,ls),
(1030,281,o),
(1010,291,o),
(989,291,cs),
(935,291,o),
(845,189,o),
(686,189,cs),
(456,189,o),
(374,363,o),
(374,578,cs),
(374,749,o),
(455,949,o),
(659,949,cs),
(766,949,o),
(853,897,o),
(853,764,cs),
(853,717,o),
(872,683,o),
(935,683,cs),
(959,683,ls)
);
}
);
width = 1193;
},
{
anchors = (
{
name = bottom;
pos = (597,0);
},
{
name = top;
pos = (597,1128);
}
);
guides = (
{
angle = 90;
pos = (645,0);
}
);
layerId = m003;
shapes = (
{
closed = 1;
nodes = (
(1029,683,o),
(1083,712,o),
(1083,804,cs),
(1083,973,o),
(970,1153,o),
(663,1153,cs),
(350,1153,o),
(121,937,o),
(121,570,cs),
(121,214,o),
(329,-25,o),
(668,-25,cs),
(818,-25,o),
(1081,57,o),
(1081,176,cs),
(1081,188,o),
(1077,202,o),
(1066,221,cs),
(1044,258,ls),
(1030,281,o),
(1010,291,o),
(989,291,cs),
(935,291,o),
(845,189,o),
(686,189,cs),
(456,189,o),
(374,363,o),
(374,578,cs),
(374,749,o),
(455,949,o),
(659,949,cs),
(766,949,o),
(853,897,o),
(853,764,cs),
(853,717,o),
(872,683,o),
(935,683,cs),
(959,683,ls)
);
}
);
width = 1193;
}
);
unicode = 99;
}
{
color = 4;
glyphname = d;
layers = (
{
anchors = (
{
name = bottom;
pos = (802,0);
},
{
name = center;
pos = (1143,1594);
},
{
name = top;
pos = (764,1128);
},
{
name = topright;
pos = (1408,1780);
}
);
layerId = m001;
shapes = (
{
closed = 1;
nodes = (
(573,182,o),
(487,368,o),
(487,546,cs),
(487,729,o),
(556,945,o),
(757,945,cs),
(929,945,o),
(1076,797,o),
(1076,548,cs),
(1076,342,o),
(920,182,o),
(764,182,cs)
);
},
{
closed = 1;
nodes = (
(1297,1744,o),
(1274,1773,o),
(1244,1773,cs),
(1105,1773,ls),
(1075,1773,o),
(1051,1744,o),
(1051,1710,cs),
(1051,987,l),
(952,1124,o),
(824,1153,o),
(714,1153,cs),
(399,1153,o),
(231,872,o),
(231,554,cs),
(231,238,o),
(413,-25,o),
(707,-25,cs),
(890,-25,o),
(1032,73,o),
(1095,209,c),
(1103,162,o),
(1111,110,o),
(1138,47,cs),
(1151,15,o),
(1174,0,o),
(1217,0,cs),
(1266,0,ls),
(1305,0,o),
(1332,26,o),
(1332,68,cs),
(1332,76,o),
(1331,84,o),
(1329,93,cs),
(1311,170,o),
(1297,283,o),
(1297,428,cs),
(1297,1710,ls)
);
},
{
closed = 0;
nodes = (
(120,0,l)
);
},
{
closed = 0;
nodes = (
(120,0,l)
);
},
{
closed = 0;
nodes = (
(120,0,l)
);
},
{
closed = 0;
nodes = (
(120,0,l)
);
},
{
closed = 0;
nodes = (
(120,0,l)
);
},
{
closed = 0;
nodes = (
(120,0,l)
);
},
{
closed = 0;
nodes = (
(120,0,l)
);
},
{
closed = 0;
nodes = (
(120,0,l)
);
},
{
closed = 0;
nodes = (
(120,0,l)
);
},
{
closed = 0;
nodes = (
(120,0,l)
);
},
{
closed = 0;
nodes = (
(120,0,l)
);
},
{
closed = 0;
nodes = (
(120,0,l)
);
},
{
closed = 0;
nodes = (
(120,0,l)
);
},
{
closed = 0;
nodes = (
(120,0,l)
);
},
{
closed = 0;
nodes = (
(120,0,l)
);
},
{
closed = 0;
nodes = (
(120,0,l)
);
},
{
closed = 0;
nodes = (
(120,0,l)
);
},
{
closed = 0;
nodes = (
(120,0,l)
);
},
{
closed = 0;
nodes = (
(120,0,l)
);
},
{
closed = 0;
nodes = (
(120,0,l)
);
},
{
closed = 0;
nodes = (
(120,0,l)
);
},
{
closed = 0;
nodes = (
(120,0,l)
);
},
{
closed = 0;
nodes = (
(120,0,l)
);
},
{
closed = 0;
nodes = (
(120,0,l)
);
},
{
closed = 0;
nodes = (
(120,0,l)
);
},
{
closed = 0;
nodes = (
(120,0,l)
);
},
{
closed = 0;
nodes = (
(120,0,l)
);
},
{
closed = 0;
nodes = (
(120,0,l)
);
},
{
closed = 0;
nodes = (
(120,0,l)
);
},
{
closed = 0;
nodes = (
(120,0,l)
);
},
{
closed = 0;
nodes = (
(120,0,l)
);
}
);
width = 1484;
},
{
anchors = (
{
name = bottom;
pos = (802,0);
},
{
name = center;
pos = (1143,1594);
},
{
name = top;
pos = (764,1128);
},
{
name = topright;
pos = (1408,1780);
}
);
layerId = m002;
shapes = (
{
closed = 1;
nodes = (
(573,182,o),
(487,368,o),
(487,546,cs),
(487,729,o),
(556,945,o),
(757,945,cs),
(929,945,o),
(1076,797,o),
(1076,548,cs),
(1076,342,o),
(920,182,o),
(764,182,cs)
);
},
{
closed = 1;
nodes = (
(1297,1744,o),
(1274,1773,o),
(1244,1773,cs),
(1105,1773,ls),
(1075,1773,o),
(1051,1744,o),
(1051,1710,cs),
(1051,987,l),
(952,1124,o),
(824,1153,o),
(714,1153,cs),
(399,1153,o),
(231,872,o),
(231,554,cs),
(231,238,o),
(413,-25,o),
(707,-25,cs),
(890,-25,o),
(1032,73,o),
(1095,209,c),
(1103,162,o),
(1111,110,o),
(1138,47,cs),
(1151,15,o),
(1174,0,o),
(1217,0,cs),
(1266,0,ls),
(1305,0,o),
(1332,26,o),
(1332,68,cs),
(1332,76,o),
(1331,84,o),
(1329,93,cs),
(1311,170,o),
(1297,283,o),
(1297,428,cs),
(1297,1710,ls)
);
},
{
closed = 0;
nodes = (
(120,0,l)
);
},
{
closed = 0;
nodes = (
(120,0,l)
);
},
{
closed = 0;
nodes = (
(120,0,l)
);
},
{
closed = 0;
nodes = (
(120,0,l)
);
},
{
closed = 0;
nodes = (
(120,0,l)
);
},
{
closed = 0;
nodes = (
(120,0,l)
);
},
{
closed = 0;
nodes = (
(120,0,l)
);
},
{
closed = 0;
nodes = (
(120,0,l)
);
},
{
closed = 0;
nodes = (
(120,0,l)
);
},
{
closed = 0;
nodes = (
(120,0,l)
);
},
{
closed = 0;
nodes = (
(120,0,l)
);
},
{
closed = 0;
nodes = (
(120,0,l)
);
},
{
closed = 0;
nodes = (
(120,0,l)
);
},
{
closed = 0;
nodes = (
(120,0,l)
);
},
{
closed = 0;
nodes = (
(120,0,l)
);
},
{
closed = 0;
nodes = (
(120,0,l)
);
},
{
closed = 0;
nodes = (
(120,0,l)
);
},
{
closed = 0;
nodes = (
(120,0,l)
);
},
{
closed = 0;
nodes = (
(120,0,l)
);
},
{
closed = 0;
nodes = (
(120,0,l)
);
},
{
closed = 0;
nodes = (
(120,0,l)
);
},
{
closed = 0;
nodes = (
(120,0,l)
);
},
{
closed = 0;
nodes = (
(120,0,l)
);
},
{
closed = 0;
nodes = (
(120,0,l)
);
},
{
closed = 0;
nodes = (
(120,0,l)
);
},
{
closed = 0;
nodes = (
(120,0,l)
);
},
{
closed = 0;
nodes = (
(120,0,l)
);
},
{
closed = 0;
nodes = (
(120,0,l)
);
},
{
closed = 0;
nodes = (
(120,0,l)
);
},
{
closed = 0;
nodes = (
(120,0,l)
);
},
{
closed = 0;
nodes = (
(120,0,l)
);
}
);
width = 1484;
},
{
anchors = (
{
name = bottom;
pos = (802,0);
},
{
name = center;
pos = (1143,1594);
},
{
name = top;
pos = (764,1128);
},
{
name = topright;
pos = (1408,1780);
}
);
layerId = m003;
shapes = (
{
closed = 1;
nodes = (
(573,182,o),
(487,368,o),
(487,546,cs),
(487,729,o),
(556,945,o),
(757,945,cs),
(929,945,o),
(1076,797,o),
(1076,548,cs),
(1076,342,o),
(920,182,o),
(764,182,cs)
);
},
{
closed = 1;
nodes = (
(1297,1744,o),
(1274,1773,o),
(1244,1773,cs),
(1105,1773,ls),
(1075,1773,o),
(1051,1744,o),
(1051,1710,cs),
(1051,987,l),
(952,1124,o),
(824,1153,o),
(714,1153,cs),
(399,1153,o),
(231,872,o),
(231,554,cs),
(231,238,o),
(413,-25,o),
(707,-25,cs),
(890,-25,o),
(1032,73,o),
(1095,209,c),
(1103,162,o),
(1111,110,o),
(1138,47,cs),
(1151,15,o),
(1174,0,o),
(1217,0,cs),
(1266,0,ls),
(1305,0,o),
(1332,26,o),
(1332,68,cs),
(1332,76,o),
(1331,84,o),
(1329,93,cs),
(1311,170,o),
(1297,283,o),
(1297,428,cs),
(1297,1710,ls)
);
},
{
closed = 0;
nodes = (
(120,0,l)
);
},
{
closed = 0;
nodes = (
(120,0,l)
);
},
{
closed = 0;
nodes = (
(120,0,l)
);
},
{
closed = 0;
nodes = (
(120,0,l)
);
},
{
closed = 0;
nodes = (
(120,0,l)
);
},
{
closed = 0;
nodes = (
(120,0,l)
);
},
{
closed = 0;
nodes = (
(120,0,l)
);
},
{
closed = 0;
nodes = (
(120,0,l)
);
},
{
closed = 0;
nodes = (
(120,0,l)
);
},
{
closed = 0;
nodes = (
(120,0,l)
);
},
{
closed = 0;
nodes = (
(120,0,l)
);
},
{
closed = 0;
nodes = (
(120,0,l)
);
},
{
closed = 0;
nodes = (
(120,0,l)
);
},
{
closed = 0;
nodes = (
(120,0,l)
);
},
{
closed = 0;
nodes = (
(120,0,l)
);
},
{
closed = 0;
nodes = (
(120,0,l)
);
},
{
closed = 0;
nodes = (
(120,0,l)
);
},
{
closed = 0;
nodes = (
(120,0,l)
);
},
{
closed = 0;
nodes = (
(120,0,l)
);
},
{
closed = 0;
nodes = (
(120,0,l)
);
},
{
closed = 0;
nodes = (
(120,0,l)
);
},
{
closed = 0;
nodes = (
(120,0,l)
);
},
{
closed = 0;
nodes = (
(120,0,l)
);
},
{
closed = 0;
nodes = (
(120,0,l)
);
},
{
closed = 0;
nodes = (
(120,0,l)
);
},
{
closed = 0;
nodes = (
(120,0,l)
);
},
{
closed = 0;
nodes = (
(120,0,l)
);
},
{
closed = 0;
nodes = (
(120,0,l)
);
},
{
closed = 0;
nodes = (
(120,0,l)
);
},
{
closed = 0;
nodes = (
(120,0,l)
);
},
{
closed = 0;
nodes = (
(120,0,l)
);
}
);
width = 1484;
}
);
metricLeft = o;
unicode = 100;
}
{
color = 4;
glyphname = e;
layers = (
{
anchors = (
{
name = bottom;
pos = (653,0);
},
{
name = ogonek;
pos = (1076,10);
},
{
name = top;
pos = (638,1128);
}
);
guides = (
{
angle = 90;
pos = (611,0);
},
{
angle = 90;
pos = (358,0);
}
);
layerId = m001;
shapes = (
{
closed = 1;
nodes = (
(818,-25,o),
(1082,35,o),
(1082,154,cs),
(1082,166,o),
(1079,177,o),
(1073,190,cs),
(1046,246,ls),
(1030,277,o),
(1012,283,o),
(992,283,cs),
(939,283,o),
(879,182,o),
(685,182,cs),
(472,182,o),
(351,313,o),
(351,490,cs),
(351,496,o),
(352,502,o),
(352,509,c),
(419,490,o),
(523,466,o),
(629,466,cs),
(867,466,o),
(1079,560,o),
(1079,798,cs),
(1079,1029,o),
(907,1154,o),
(667,1154,cs),
(335,1154,o),
(114,974,o),
(114,543,cs),
(114,182,o),
(353,-25,o),
(668,-25,cs)
);
},
{
closed = 1;
nodes = (
(773,944,o),
(844,901,o),
(844,801,cs),
(844,691,o),
(736,651,o),
(581,651,cs),
(482,651,o),
(388,682,o),
(362,694,c),
(383,877,o),
(509,944,o),
(652,944,cs)
);
}
);
width = 1195;
},
{
anchors = (
{
name = bottom;
pos = (653,0);
},
{
name = ogonek;
pos = (1076,10);
},
{
name = top;
pos = (638,1128);
}
);
guides = (
{
angle = 90;
pos = (611,0);
},
{
angle = 90;
pos = (358,0);
}
);
layerId = m002;
shapes = (
{
closed = 1;
nodes = (
(818,-25,o),
(1082,35,o),
(1082,154,cs),
(1082,166,o),
(1079,177,o),
(1073,190,cs),
(1046,246,ls),
(1030,277,o),
(1012,283,o),
(992,283,cs),
(939,283,o),
(879,182,o),
(685,182,cs),
(472,182,o),
(351,313,o),
(351,490,cs),
(351,496,o),
(352,502,o),
(352,509,c),
(419,490,o),
(523,466,o),
(629,466,cs),
(867,466,o),
(1079,560,o),
(1079,798,cs),
(1079,1029,o),
(907,1154,o),
(667,1154,cs),
(335,1154,o),
(114,974,o),
(114,543,cs),
(114,182,o),
(353,-25,o),
(668,-25,cs)
);
},
{
closed = 1;
nodes = (
(773,944,o),
(844,901,o),
(844,801,cs),
(844,691,o),
(736,651,o),
(581,651,cs),
(482,651,o),
(388,682,o),
(362,694,c),
(383,877,o),
(509,944,o),
(652,944,cs)
);
}
);
width = 1195;
},
{
anchors = (
{
name = bottom;
pos = (653,0);
},
{
name = ogonek;
pos = (1076,10);
},
{
name = top;
pos = (638,1128);
}
);
guides = (
{
angle = 90;
pos = (611,0);
},
{
angle = 90;
pos = (358,0);
}
);
layerId = m003;
shapes = (
{
closed = 1;
nodes = (
(818,-25,o),
(1082,35,o),
(1082,154,cs),
(1082,166,o),
(1079,177,o),
(1073,190,cs),
(1046,246,ls),
(1030,277,o),
(1012,283,o),
(992,283,cs),
(939,283,o),
(879,182,o),
(685,182,cs),
(472,182,o),
(351,313,o),
(351,490,cs),
(351,496,o),
(352,502,o),
(352,509,c),
(419,490,o),
(523,466,o),
(629,466,cs),
(867,466,o),
(1079,560,o),
(1079,798,cs),
(1079,1029,o),
(907,1154,o),
(667,1154,cs),
(335,1154,o),
(114,974,o),
(114,543,cs),
(114,182,o),
(353,-25,o),
(668,-25,cs)
);
},
{
closed = 1;
nodes = (
(773,944,o),
(844,901,o),
(844,801,cs),
(844,691,o),
(736,651,o),
(581,651,cs),
(482,651,o),
(388,682,o),
(362,694,c),
(383,877,o),
(509,944,o),
(652,944,cs)
);
}
);
width = 1195;
}
);
unicode = 101;
}
{
color = 4;
glyphname = f;
layers = (
{
anchors = (
{
name = bottom;
pos = (426,0);
},
{
name = top;
pos = (426,1992);
}
);
layerId = m001;
shapes = (
{
closed = 1;
nodes = (
(90,1076,o),
(76,1064,o),
(76,1033,cs),
(76,977,ls),
(76,945,o),
(92,920,o),
(139,920,cs),
(280,920,l),
(280,71,ls),
(280,29,o),
(306,0,o),
(353,0,cs),
(451,0,ls),
(494,0,o),
(519,29,o),
(519,71,cs),
(519,920,l),
(763,920,ls),
(811,920,o),
(826,943,o),
(826,976,cs),
(826,1073,ls),
(826,1102,o),
(812,1128,o),
(763,1128,cs),
(494,1128,l),
(456,1232,o),
(448,1316,o),
(448,1355,cs),
(448,1458,o),
(479,1568,o),
(617,1568,cs),
(748,1568,o),
(780,1504,o),
(823,1504,cs),
(836,1504,o),
(848,1512,o),
(862,1531,cs),
(910,1599,ls),
(923,1617,o),
(928,1633,o),
(928,1647,cs),
(928,1676,o),
(900,1698,o),
(869,1717,cs),
(793,1762,o),
(704,1780,o),
(616,1780,cs),
(355,1780,o),
(216,1608,o),
(216,1424,cs),
(216,1295,o),
(248,1212,o),
(284,1113,c),
(135,1089,l)
);
}
);
width = 851;
},
{
anchors = (
{
name = bottom;
pos = (426,0);
},
{
name = top;
pos = (426,1992);
}
);
layerId = m002;
shapes = (
{
closed = 1;
nodes = (
(90,1076,o),
(76,1064,o),
(76,1033,cs),
(76,977,ls),
(76,945,o),
(92,920,o),
(139,920,cs),
(280,920,l),
(280,71,ls),
(280,29,o),
(306,0,o),
(353,0,cs),
(451,0,ls),
(494,0,o),
(519,29,o),
(519,71,cs),
(519,920,l),
(763,920,ls),
(811,920,o),
(826,943,o),
(826,976,cs),
(826,1073,ls),
(826,1102,o),
(812,1128,o),
(763,1128,cs),
(494,1128,l),
(456,1232,o),
(448,1316,o),
(448,1355,cs),
(448,1458,o),
(479,1568,o),
(617,1568,cs),
(748,1568,o),
(780,1504,o),
(823,1504,cs),
(836,1504,o),
(848,1512,o),
(862,1531,cs),
(910,1599,ls),
(923,1617,o),
(928,1633,o),
(928,1647,cs),
(928,1676,o),
(900,1698,o),
(869,1717,cs),
(793,1762,o),
(704,1780,o),
(616,1780,cs),
(355,1780,o),
(216,1608,o),
(216,1424,cs),
(216,1295,o),
(248,1212,o),
(284,1113,c),
(135,1089,l)
);
}
);
width = 851;
},
{
anchors = (
{
name = bottom;
pos = (426,0);
},
{
name = top;
pos = (426,1992);
}
);
layerId = m003;
shapes = (
{
closed = 1;
nodes = (
(90,1076,o),
(76,1064,o),
(76,1033,cs),
(76,977,ls),
(76,945,o),
(92,920,o),
(139,920,cs),
(280,920,l),
(280,71,ls),
(280,29,o),
(306,0,o),
(353,0,cs),
(451,0,ls),
(494,0,o),
(519,29,o),
(519,71,cs),
(519,920,l),
(763,920,ls),
(811,920,o),
(826,943,o),
(826,976,cs),
(826,1073,ls),
(826,1102,o),
(812,1128,o),
(763,1128,cs),
(494,1128,l),
(456,1232,o),
(448,1316,o),
(448,1355,cs),
(448,1458,o),
(479,1568,o),
(617,1568,cs),
(748,1568,o),
(780,1504,o),
(823,1504,cs),
(836,1504,o),
(848,1512,o),
(862,1531,cs),
(910,1599,ls),
(923,1617,o),
(928,1633,o),
(928,1647,cs),
(928,1676,o),
(900,1698,o),
(869,1717,cs),
(793,1762,o),
(704,1780,o),
(616,1780,cs),
(355,1780,o),
(216,1608,o),
(216,1424,cs),
(216,1295,o),
(248,1212,o),
(284,1113,c),
(135,1089,l)
);
}
);
width = 851;
}
);
unicode = 102;
}
{
color = 4;
glyphname = g;
layers = (
{
anchors = (
{
name = bottom;
pos = (597,-568);
},
{
name = top;
pos = (597,1128);
}
);
guides = (
{
pos = (0,1126);
},
{
pos = (0,734);
},
{
pos = (0,597);
}
);
layerId = m001;
shapes = (
{
closed = 1;
nodes = (
(870,-568,o),
(1143,-442,o),
(1143,-191,cs),
(1143,51,o),
(901,153,o),
(682,153,cs),
(605,153,o),
(519,136,o),
(459,107,c),
(505,162,o),
(637,246,o),
(707,289,cs),
(847,375,o),
(1051,503,o),
(1051,726,cs),
(1051,738,o),
(1050,750,o),
(1049,764,c),
(1100,872,o),
(1123,1003,o),
(1123,1105,cs),
(1123,1168,o),
(1118,1336,o),
(1040,1336,cs),
(954,1336,ls),
(942,1336,o),
(895,1331,o),
(895,1278,cs),
(895,1231,o),
(942,1101,o),
(942,971,c),
(886,1082,o),
(748,1153,o),
(575,1153,cs),
(345,1153,o),
(113,1002,o),
(113,731,cs),
(113,490,o),
(323,354,o),
(520,335,c),
(332,227,o),
(109,30,o),
(109,-204,cs),
(109,-444,o),
(349,-568,o),
(617,-568,cs)
);
},
{
closed = 1;
nodes = (
(423,-35,o),
(563,-31,o),
(610,-31,cs),
(726,-31,o),
(903,-54,o),
(903,-200,cs),
(903,-305,o),
(763,-363,o),
(617,-363,cs),
(475,-363,o),
(328,-305,o),
(328,-172,cs),
(328,-142,o),
(336,-111,o),
(365,-78,c)
);
},
{
closed = 1;
nodes = (
(830,598,o),
(722,511,o),
(592,511,cs),
(449,511,o),
(341,598,o),
(341,734,cs),
(341,872,o),
(455,944,o),
(582,944,cs),
(704,944,o),
(830,878,o),
(830,734,cs)
);
}
);
width = 1193;
},
{
anchors = (
{
name = bottom;
pos = (597,-568);
},
{
name = top;
pos = (597,1128);
}
);
guides = (
{
pos = (0,1126);
},
{
pos = (0,734);
},
{
pos = (0,597);
}
);
layerId = m002;
shapes = (
{
closed = 1;
nodes = (
(870,-568,o),
(1143,-442,o),
(1143,-191,cs),
(1143,51,o),
(901,153,o),
(682,153,cs),
(605,153,o),
(519,136,o),
(459,107,c),
(505,162,o),
(637,246,o),
(707,289,cs),
(847,375,o),
(1051,503,o),
(1051,726,cs),
(1051,738,o),
(1050,750,o),
(1049,764,c),
(1100,872,o),
(1123,1003,o),
(1123,1105,cs),
(1123,1168,o),
(1118,1336,o),
(1040,1336,cs),
(954,1336,ls),
(942,1336,o),
(895,1331,o),
(895,1278,cs),
(895,1231,o),
(942,1101,o),
(942,971,c),
(886,1082,o),
(748,1153,o),
(575,1153,cs),
(345,1153,o),
(113,1002,o),
(113,731,cs),
(113,490,o),
(323,354,o),
(520,335,c),
(332,227,o),
(109,30,o),
(109,-204,cs),
(109,-444,o),
(349,-568,o),
(617,-568,cs)
);
},
{
closed = 1;
nodes = (
(423,-35,o),
(563,-31,o),
(610,-31,cs),
(726,-31,o),
(903,-54,o),
(903,-200,cs),
(903,-305,o),
(763,-363,o),
(617,-363,cs),
(475,-363,o),
(328,-305,o),
(328,-172,cs),
(328,-142,o),
(336,-111,o),
(365,-78,c)
);
},
{
closed = 1;
nodes = (
(830,598,o),
(722,511,o),
(592,511,cs),
(449,511,o),
(341,598,o),
(341,734,cs),
(341,872,o),
(455,944,o),
(582,944,cs),
(704,944,o),
(830,878,o),
(830,734,cs)
);
}
);
width = 1193;
},
{
anchors = (
{
name = bottom;
pos = (597,-568);
},
{
name = top;
pos = (597,1128);
}
);
guides = (
{
pos = (0,1126);
},
{
pos = (0,734);
},
{
pos = (0,597);
}
);
layerId = m003;
shapes = (
{
closed = 1;
nodes = (
(870,-568,o),
(1143,-442,o),
(1143,-191,cs),
(1143,51,o),
(901,153,o),
(682,153,cs),
(605,153,o),
(519,136,o),
(459,107,c),
(505,162,o),
(637,246,o),
(707,289,cs),
(847,375,o),
(1051,503,o),
(1051,726,cs),
(1051,738,o),
(1050,750,o),
(1049,764,c),
(1100,872,o),
(1123,1003,o),
(1123,1105,cs),
(1123,1168,o),
(1118,1336,o),
(1040,1336,cs),
(954,1336,ls),
(942,1336,o),
(895,1331,o),
(895,1278,cs),
(895,1231,o),
(942,1101,o),
(942,971,c),
(886,1082,o),
(748,1153,o),
(575,1153,cs),
(345,1153,o),
(113,1002,o),
(113,731,cs),
(113,490,o),
(323,354,o),
(520,335,c),
(332,227,o),
(109,30,o),
(109,-204,cs),
(109,-444,o),
(349,-568,o),
(617,-568,cs)
);
},
{
closed = 1;
nodes = (
(423,-35,o),
(563,-31,o),
(610,-31,cs),
(726,-31,o),
(903,-54,o),
(903,-200,cs),
(903,-305,o),
(763,-363,o),
(617,-363,cs),
(475,-363,o),
(328,-305,o),
(328,-172,cs),
(328,-142,o),
(336,-111,o),
(365,-78,c)
);
},
{
closed = 1;
nodes = (
(830,598,o),
(722,511,o),
(592,511,cs),
(449,511,o),
(341,598,o),
(341,734,cs),
(341,872,o),
(455,944,o),
(582,944,cs),
(704,944,o),
(830,878,o),
(830,734,cs)
);
}
);
width = 1193;
}
);
unicode = 103;
}
{
color = 4;
glyphname = h;
layers = (
{
anchors = (
{
name = bottom;
pos = (682,0);
},
{
name = center;
pos = (341,1415);
},
{
name = top;
pos = (335,1773);
}
);
guides = (
{
pos = (0,1773);
},
{
pos = (0,66);
}
);
layerId = m001;
shapes = (
{
closed = 1;
nodes = (
(1161,0,o),
(1185,26,o),
(1185,66,cs),
(1185,687,ls),
(1185,954,o),
(1106,1153,o),
(818,1153,cs),
(671,1153,o),
(534,1084,o),
(457,953,c),
(457,1710,ls),
(457,1746,o),
(434,1773,o),
(404,1773,cs),
(267,1773,ls),
(238,1773,o),
(214,1746,o),
(214,1710,cs),
(214,66,ls),
(214,29,o),
(238,0,o),
(276,0,cs),
(385,0,ls),
(435,0,o),
(457,29,o),
(457,66,cs),
(457,622,ls),
(457,805,o),
(623,944,o),
(754,944,cs),
(881,944,o),
(942,859,o),
(942,688,cs),
(942,66,ls),
(942,29,o),
(966,0,o),
(1016,0,cs),
(1114,0,ls)
);
}
);
width = 1367;
},
{
anchors = (
{
name = bottom;
pos = (682,0);
},
{
name = center;
pos = (341,1415);
},
{
name = top;
pos = (335,1773);
}
);
guides = (
{
pos = (0,1773);
},
{
pos = (0,66);
}
);
layerId = m002;
shapes = (
{
closed = 1;
nodes = (
(1161,0,o),
(1185,26,o),
(1185,66,cs),
(1185,687,ls),
(1185,954,o),
(1106,1153,o),
(818,1153,cs),
(671,1153,o),
(534,1084,o),
(457,953,c),
(457,1710,ls),
(457,1746,o),
(434,1773,o),
(404,1773,cs),
(267,1773,ls),
(238,1773,o),
(214,1746,o),
(214,1710,cs),
(214,66,ls),
(214,29,o),
(238,0,o),
(276,0,cs),
(385,0,ls),
(435,0,o),
(457,29,o),
(457,66,cs),
(457,622,ls),
(457,805,o),
(623,944,o),
(754,944,cs),
(881,944,o),
(942,859,o),
(942,688,cs),
(942,66,ls),
(942,29,o),
(966,0,o),
(1016,0,cs),
(1114,0,ls)
);
}
);
width = 1367;
},
{
anchors = (
{
name = bottom;
pos = (682,0);
},
{
name = center;
pos = (341,1415);
},
{
name = top;
pos = (335,1773);
}
);
guides = (
{
pos = (0,1773);
},
{
pos = (0,66);
}
);
layerId = m003;
shapes = (
{
closed = 1;
nodes = (
(1161,0,o),
(1185,26,o),
(1185,66,cs),
(1185,687,ls),
(1185,954,o),
(1106,1153,o),
(818,1153,cs),
(671,1153,o),
(534,1084,o),
(457,953,c),
(457,1710,ls),
(457,1746,o),
(434,1773,o),
(404,1773,cs),
(267,1773,ls),
(238,1773,o),
(214,1746,o),
(214,1710,cs),
(214,66,ls),
(214,29,o),
(238,0,o),
(276,0,cs),
(385,0,ls),
(435,0,o),
(457,29,o),
(457,66,cs),
(457,622,ls),
(457,805,o),
(623,944,o),
(754,944,cs),
(881,944,o),
(942,859,o),
(942,688,cs),
(942,66,ls),
(942,29,o),
(966,0,o),
(1016,0,cs),
(1114,0,ls)
);
}
);
width = 1367;
}
);
metricRight = n;
unicode = 104;
}
{
color = 4;
glyphname = i;
layers = (
{
anchors = (
{
name = bottom;
pos = (342,0);
}
);
guides = (
{
angle = 90;
pos = (425,0);
},
{
angle = 90;
pos = (184,0);
}
);
layerId = m001;
shapes = (
{
closed = 1;
nodes = (
(423,1062,ls),
(423,1099,o),
(400,1128,o),
(370,1128,cs),
(236,1128,ls),
(207,1128,o),
(182,1099,o),
(182,1062,cs),
(182,282,ls),
(182,57,o),
(266,-17,o),
(402,-17,cs),
(461,-17,o),
(545,-5,o),
(611,56,cs),
(624,68,o),
(632,80,o),
(632,97,cs),
(632,107,o),
(630,118,o),
(624,131,cs),
(593,201,ls),
(584,222,o),
(575,230,o),
(562,230,cs),
(529,230,o),
(502,204,o),
(470,204,cs),
(443,204,o),
(423,222,o),
(423,275,cs)
);
},
{
closed = 1;
nodes = (
(469,1577,o),
(396,1646,o),
(306,1646,cs),
(215,1646,o),
(142,1577,o),
(142,1484,cs),
(142,1391,o),
(215,1321,o),
(306,1321,cs),
(396,1321,o),
(469,1391,o),
(469,1484,cs)
);
}
);
width = 683;
},
{
anchors = (
{
name = bottom;
pos = (342,0);
}
);
guides = (
{
angle = 90;
pos = (425,0);
},
{
angle = 90;
pos = (184,0);
}
);
layerId = m002;
shapes = (
{
closed = 1;
nodes = (
(423,1062,ls),
(423,1099,o),
(400,1128,o),
(370,1128,cs),
(236,1128,ls),
(207,1128,o),
(182,1099,o),
(182,1062,cs),
(182,282,ls),
(182,57,o),
(266,-17,o),
(402,-17,cs),
(461,-17,o),
(545,-5,o),
(611,56,cs),
(624,68,o),
(632,80,o),
(632,97,cs),
(632,107,o),
(630,118,o),
(624,131,cs),
(593,201,ls),
(584,222,o),
(575,230,o),
(562,230,cs),
(529,230,o),
(502,204,o),
(470,204,cs),
(443,204,o),
(423,222,o),
(423,275,cs)
);
},
{
closed = 1;
nodes = (
(469,1577,o),
(396,1646,o),
(306,1646,cs),
(215,1646,o),
(142,1577,o),
(142,1484,cs),
(142,1391,o),
(215,1321,o),
(306,1321,cs),
(396,1321,o),
(469,1391,o),
(469,1484,cs)
);
}
);
width = 683;
},
{
anchors = (
{
name = bottom;
pos = (342,0);
}
);
guides = (
{
angle = 90;
pos = (425,0);
},
{
angle = 90;
pos = (184,0);
}
);
layerId = m003;
shapes = (
{
closed = 1;
nodes = (
(423,1062,ls),
(423,1099,o),
(400,1128,o),
(370,1128,cs),
(236,1128,ls),
(207,1128,o),
(182,1099,o),
(182,1062,cs),
(182,282,ls),
(182,57,o),
(266,-17,o),
(402,-17,cs),
(461,-17,o),
(545,-5,o),
(611,56,cs),
(624,68,o),
(632,80,o),
(632,97,cs),
(632,107,o),
(630,118,o),
(624,131,cs),
(593,201,ls),
(584,222,o),
(575,230,o),
(562,230,cs),
(529,230,o),
(502,204,o),
(470,204,cs),
(443,204,o),
(423,222,o),
(423,275,cs)
);
},
{
closed = 1;
nodes = (
(469,1577,o),
(396,1646,o),
(306,1646,cs),
(215,1646,o),
(142,1577,o),
(142,1484,cs),
(142,1391,o),
(215,1321,o),
(306,1321,cs),
(396,1321,o),
(469,1391,o),
(469,1484,cs)
);
}
);
width = 683;
}
);
unicode = 105;
}
{
color = 4;
glyphname = j;
layers = (
{
layerId = m001;
shapes = (
{
closed = 1;
nodes = (
(230,-249,o),
(219,-360,o),
(127,-360,cs),
(79,-360,o),
(53,-315,o),
(11,-315,cs),
(-17,-315,o),
(-31,-343,o),
(-40,-374,cs),
(-55,-424,o),
(-58,-439,o),
(-58,-452,cs),
(-58,-477,o),
(-48,-494,o),
(-21,-516,cs),
(11,-541,o),
(60,-568,o),
(165,-568,cs),
(348,-568,o),
(474,-420,o),
(474,-131,cs),
(474,1062,ls),
(474,1100,o),
(449,1128,o),
(420,1128,cs),
(283,1128,ls),
(253,1128,o),
(230,1100,o),
(230,1062,cs),
(230,-171,ls)
);
},
{
closed = 1;
nodes = (
(512,1577,o),
(439,1646,o),
(349,1646,cs),
(258,1646,o),
(185,1577,o),
(185,1484,cs),
(185,1391,o),
(258,1321,o),
(349,1321,cs),
(439,1321,o),
(512,1391,o),
(512,1484,cs)
);
}
);
width = 683;
},
{
layerId = m002;
shapes = (
{
closed = 1;
nodes = (
(230,-249,o),
(219,-360,o),
(127,-360,cs),
(79,-360,o),
(53,-315,o),
(11,-315,cs),
(-17,-315,o),
(-31,-343,o),
(-40,-374,cs),
(-55,-424,o),
(-58,-439,o),
(-58,-452,cs),
(-58,-477,o),
(-48,-494,o),
(-21,-516,cs),
(11,-541,o),
(60,-568,o),
(165,-568,cs),
(348,-568,o),
(474,-420,o),
(474,-131,cs),
(474,1062,ls),
(474,1100,o),
(449,1128,o),
(420,1128,cs),
(283,1128,ls),
(253,1128,o),
(230,1100,o),
(230,1062,cs),
(230,-171,ls)
);
},
{
closed = 1;
nodes = (
(512,1577,o),
(439,1646,o),
(349,1646,cs),
(258,1646,o),
(185,1577,o),
(185,1484,cs),
(185,1391,o),
(258,1321,o),
(349,1321,cs),
(439,1321,o),
(512,1391,o),
(512,1484,cs)
);
}
);
width = 683;
},
{
layerId = m003;
shapes = (
{
closed = 1;
nodes = (
(230,-249,o),
(219,-360,o),
(127,-360,cs),
(79,-360,o),
(53,-315,o),
(11,-315,cs),
(-17,-315,o),
(-31,-343,o),
(-40,-374,cs),
(-55,-424,o),
(-58,-439,o),
(-58,-452,cs),
(-58,-477,o),
(-48,-494,o),
(-21,-516,cs),
(11,-541,o),
(60,-568,o),
(165,-568,cs),
(348,-568,o),
(474,-420,o),
(474,-131,cs),
(474,1062,ls),
(474,1100,o),
(449,1128,o),
(420,1128,cs),
(283,1128,ls),
(253,1128,o),
(230,1100,o),
(230,1062,cs),
(230,-171,ls)
);
},
{
closed = 1;
nodes = (
(512,1577,o),
(439,1646,o),
(349,1646,cs),
(258,1646,o),
(185,1577,o),
(185,1484,cs),
(185,1391,o),
(258,1321,o),
(349,1321,cs),
(439,1321,o),
(512,1391,o),
(512,1484,cs)
);
}
);
width = 683;
}
);
unicode = 106;
}
{
color = 4;
glyphname = k;
layers = (
{
anchors = (
{
name = bottom;
pos = (622,0);
},
{
name = top;
pos = (622,1992);
}
);
layerId = m001;
shapes = (
{
closed = 1;
nodes = (
(458,1746,o),
(435,1773,o),
(405,1773,cs),
(267,1773,ls),
(238,1773,o),
(214,1746,o),
(214,1710,cs),
(214,65,ls),
(214,28,o),
(238,0,o),
(267,0,cs),
(347,0,ls),
(388,0,o),
(401,29,o),
(410,65,cs),
(438,178,o),
(543,325,o),
(618,424,c),
(677,323,o),
(750,182,o),
(794,120,cs),
(861,23,o),
(931,-17,o),
(1035,-17,cs),
(1121,-17,o),
(1192,25,o),
(1192,86,cs),
(1192,91,o),
(1192,96,o),
(1191,101,cs),
(1177,173,ls),
(1173,193,o),
(1159,220,o),
(1133,220,cs),
(1131,220,o),
(1129,219,o),
(1126,219,cs),
(1126,219,o),
(1072,204,o),
(1049,204,cs),
(977,204,o),
(864,415,o),
(767,581,c),
(877,718,o),
(1007,846,o),
(1122,955,cs),
(1142,973,o),
(1149,992,o),
(1149,1008,cs),
(1148,1035,o),
(1127,1060,o),
(1115,1074,cs),
(1070,1124,ls),
(1052,1144,o),
(1032,1156,o),
(1009,1156,cs),
(991,1156,o),
(969,1148,o),
(948,1125,cs),
(750,910,o),
(591,692,o),
(449,436,cs),
(439,417,o),
(430,410,o),
(426,410,cs),
(422,410,o),
(421,413,o),
(421,418,cs),
(421,422,ls),
(435,543,o),
(461,745,o),
(461,867,cs),
(458,1710,ls)
);
}
);
width = 1220;
},
{
anchors = (
{
name = bottom;
pos = (622,0);
},
{
name = top;
pos = (622,1992);
}
);
layerId = m002;
shapes = (
{
closed = 1;
nodes = (
(458,1746,o),
(435,1773,o),
(405,1773,cs),
(267,1773,ls),
(238,1773,o),
(214,1746,o),
(214,1710,cs),
(214,65,ls),
(214,28,o),
(238,0,o),
(267,0,cs),
(347,0,ls),
(388,0,o),
(401,29,o),
(410,65,cs),
(438,178,o),
(543,325,o),
(618,424,c),
(677,323,o),
(750,182,o),
(794,120,cs),
(861,23,o),
(931,-17,o),
(1035,-17,cs),
(1121,-17,o),
(1192,25,o),
(1192,86,cs),
(1192,91,o),
(1192,96,o),
(1191,101,cs),
(1177,173,ls),
(1173,193,o),
(1159,220,o),
(1133,220,cs),
(1131,220,o),
(1129,219,o),
(1126,219,cs),
(1126,219,o),
(1072,204,o),
(1049,204,cs),
(977,204,o),
(864,415,o),
(767,581,c),
(877,718,o),
(1007,846,o),
(1122,955,cs),
(1142,973,o),
(1149,992,o),
(1149,1008,cs),
(1148,1035,o),
(1127,1060,o),
(1115,1074,cs),
(1070,1124,ls),
(1052,1144,o),
(1032,1156,o),
(1009,1156,cs),
(991,1156,o),
(969,1148,o),
(948,1125,cs),
(750,910,o),
(591,692,o),
(449,436,cs),
(439,417,o),
(430,410,o),
(426,410,cs),
(422,410,o),
(421,413,o),
(421,418,cs),
(421,422,ls),
(435,543,o),
(461,745,o),
(461,867,cs),
(458,1710,ls)
);
}
);
width = 1220;
},
{
anchors = (
{
name = bottom;
pos = (622,0);
},
{
name = top;
pos = (622,1992);
}
);
layerId = m003;
shapes = (
{
closed = 1;
nodes = (
(458,1746,o),
(435,1773,o),
(405,1773,cs),
(267,1773,ls),
(238,1773,o),
(214,1746,o),
(214,1710,cs),
(214,65,ls),
(214,28,o),
(238,0,o),
(267,0,cs),
(347,0,ls),
(388,0,o),
(401,29,o),
(410,65,cs),
(438,178,o),
(543,325,o),
(618,424,c),
(677,323,o),
(750,182,o),
(794,120,cs),
(861,23,o),
(931,-17,o),
(1035,-17,cs),
(1121,-17,o),
(1192,25,o),
(1192,86,cs),
(1192,91,o),
(1192,96,o),
(1191,101,cs),
(1177,173,ls),
(1173,193,o),
(1159,220,o),
(1133,220,cs),
(1131,220,o),
(1129,219,o),
(1126,219,cs),
(1126,219,o),
(1072,204,o),
(1049,204,cs),
(977,204,o),
(864,415,o),
(767,581,c),
(877,718,o),
(1007,846,o),
(1122,955,cs),
(1142,973,o),
(1149,992,o),
(1149,1008,cs),
(1148,1035,o),
(1127,1060,o),
(1115,1074,cs),
(1070,1124,ls),
(1052,1144,o),
(1032,1156,o),
(1009,1156,cs),
(991,1156,o),
(969,1148,o),
(948,1125,cs),
(750,910,o),
(591,692,o),
(449,436,cs),
(439,417,o),
(430,410,o),
(426,410,cs),
(422,410,o),
(421,413,o),
(421,418,cs),
(421,422,ls),
(435,543,o),
(461,745,o),
(461,867,cs),
(458,1710,ls)
);
}
);
width = 1220;
}
);
metricLeft = h;
unicode = 107;
}
